<svg xmlns="http://www.w3.org/2000/svg" width="118.008" height="16.992" viewBox="0 0 118.008 16.992">
  <path id="Path_34" data-name="Path 34" d="M3.5,0,4.512-3.144h5.544L11.064,0H14.64L8.88-16.56H5.664L-.1,0ZM7.272-11.808,9.144-5.976H5.4ZM17.64-16.56V0h6.072C28.08,0,29.76-2.184,29.76-4.752a3.843,3.843,0,0,0-2.712-3.936,3.731,3.731,0,0,0,2.184-3.528c0-2.952-2.136-4.344-6.048-4.344ZM21-7.176h2.112c2.256,0,3.288.6,3.288,2.16,0,1.416-.96,2.184-2.976,2.184H21Zm0-6.552h1.872c2.424,0,3,.672,3,1.824,0,1.176-.792,1.9-2.64,1.9H21ZM45.816-7.1V-9.456c0-5.112-2.616-7.32-6.36-7.32-3.72,0-6.336,2.208-6.336,7.32V-7.1c0,5.064,2.616,7.32,6.336,7.32C43.2.216,45.816-2.04,45.816-7.1ZM36.48-9.456c0-3.168,1.032-4.488,2.976-4.488s3,1.32,3,4.488V-7.1c0,3.168-1.056,4.488-3,4.488S36.48-3.936,36.48-7.1Zm22.9-7.1V-6.7c0,2.832-.936,4.08-3,4.08s-3-1.248-3-4.08V-16.56h-3.36V-6.7c0,4.872,2.688,6.912,6.36,6.912s6.36-2.04,6.36-6.936v-9.84Zm6.624,0V-13.7h4.56V0h3.36V-13.7h4.56V-16.56Zm32.544,0V-6.7c0,2.832-.936,4.08-3,4.08s-3-1.248-3-4.08V-16.56h-3.36V-6.7c0,4.872,2.688,6.912,6.36,6.912s6.36-2.04,6.36-6.936v-9.84Zm19.2,2.5c-1.176-1.824-3.168-2.712-5.808-2.712-3.936,0-5.664,2.04-5.664,4.656,0,2.736,1.632,4.3,4.9,5.16,2.688.7,3.384,1.344,3.384,2.5,0,1.008-.648,1.848-2.568,1.848a4.137,4.137,0,0,1-3.6-1.656L105.816-2.5C107.28-.576,109.3.216,112.2.216c3.888,0,5.712-2.112,5.712-4.824,0-2.928-1.56-4.224-5.016-5.088-2.208-.552-3.264-1.128-3.264-2.424,0-1.128.816-1.824,2.328-1.824a3.373,3.373,0,0,1,3.264,1.68Z" transform="translate(0.096 16.776)" fill="#fff"/>
</svg>
