<svg xmlns="http://www.w3.org/2000/svg" width="108.174" height="15.576" viewBox="0 0 108.174 15.576"><path d="M3.212,0l.924-2.882H9.218L10.142,0H13.42L8.14-15.18H5.192L-.088,0ZM6.666-10.824,8.382-5.478H4.95Zm9.5-4.356V0h5.566c4,0,5.544-2,5.544-4.356a3.523,3.523,0,0,0-2.486-3.608,3.42,3.42,0,0,0,2-3.234c0-2.706-1.958-3.982-5.544-3.982Zm3.08,8.6h1.936c2.068,0,3.014.55,3.014,1.98,0,1.3-.88,2-2.728,2H19.25Zm0-6.006h1.716c2.222,0,2.75.616,2.75,1.672,0,1.078-.726,1.738-2.42,1.738H19.25ZM42-6.512V-8.668c0-4.686-2.4-6.71-5.83-6.71-3.41,0-5.808,2.024-5.808,6.71v2.156c0,4.642,2.4,6.71,5.808,6.71C39.6.2,42-1.87,42-6.512ZM33.44-8.668c0-2.9.946-4.114,2.728-4.114s2.75,1.21,2.75,4.114v2.156c0,2.9-.968,4.114-2.75,4.114S33.44-3.608,33.44-6.512ZM54.428-15.18v9.042c0,2.6-.858,3.74-2.75,3.74s-2.75-1.144-2.75-3.74V-15.18h-3.08v9.042C45.848-1.672,48.312.2,51.678.2s5.83-1.87,5.83-6.358v-9.02Zm6.072,0v2.618h4.18V0h3.08V-12.562h4.18V-15.18Zm29.832,0v9.042c0,2.6-.858,3.74-2.75,3.74s-2.75-1.144-2.75-3.74V-15.18h-3.08v9.042C81.752-1.672,84.216.2,87.582.2s5.83-1.87,5.83-6.358v-9.02Zm17.6,2.288c-1.078-1.672-2.9-2.486-5.324-2.486-3.608,0-5.192,1.87-5.192,4.268,0,2.508,1.5,3.938,4.488,4.73,2.464.638,3.1,1.232,3.1,2.288,0,.924-.594,1.694-2.354,1.694a3.792,3.792,0,0,1-3.3-1.518L97-2.288C98.34-.528,100.188.2,102.85.2c3.564,0,5.236-1.936,5.236-4.422,0-2.684-1.43-3.872-4.6-4.664-2.024-.506-2.992-1.034-2.992-2.222,0-1.034.748-1.672,2.134-1.672a3.091,3.091,0,0,1,2.992,1.54Z" transform="translate(0.088 15.378)" fill="#fff"/></svg>