<svg xmlns="http://www.w3.org/2000/svg" width="52.448" height="15.576" viewBox="0 0 52.448 15.576"><path d="M1.5-15.18V0H7.062c4,0,5.544-2,5.544-4.356A3.523,3.523,0,0,0,10.12-7.964a3.42,3.42,0,0,0,2-3.234c0-2.706-1.958-3.982-5.544-3.982Zm3.08,8.6H6.512c2.068,0,3.014.55,3.014,1.98,0,1.3-.88,2-2.728,2H4.576Zm0-6.006H6.292c2.222,0,2.75.616,2.75,1.672,0,1.078-.726,1.738-2.42,1.738H4.576Zm14.652-2.6h-3.08V0h9.46V-2.6h-6.38ZM39.16-6.512V-8.668c0-4.686-2.4-6.71-5.83-6.71-3.41,0-5.808,2.024-5.808,6.71v2.156C27.522-1.87,29.92.2,33.33.2,36.762.2,39.16-1.87,39.16-6.512ZM30.6-8.668c0-2.9.946-4.114,2.728-4.114s2.75,1.21,2.75,4.114v2.156c0,2.9-.968,4.114-2.75,4.114S30.6-3.608,30.6-6.512Zm17.82.77v2.6h2.552c-.176,1.826-.88,2.9-2.618,2.9-1.782,0-2.728-1.21-2.728-4.114V-8.668c0-2.9.946-4.114,2.728-4.114a2.51,2.51,0,0,1,2.618,2.31h2.948c-.462-3.1-2.376-4.906-5.566-4.906-3.41,0-5.808,2.024-5.808,6.93v1.936c0,4.642,2.4,6.71,5.808,6.71,3.432,0,5.588-2.068,5.588-6.71V-7.9Z" transform="translate(-1.496 15.378)" fill="#fff"/></svg>