<svg height="16.992" viewBox="0 0 57.216 16.992" width="57.216" xmlns="http://www.w3.org/2000/svg"><path d="m1.632-16.56v16.56h6.068c4.368 0 6.048-2.184 6.048-4.752a3.843 3.843 0 0 0 -2.708-3.936 3.731 3.731 0 0 0 2.184-3.528c0-2.952-2.136-4.344-6.048-4.344zm3.36 9.384h2.108c2.256 0 3.288.6 3.288 2.16 0 1.416-.96 2.184-2.976 2.184h-2.42zm0-6.552h1.872c2.424 0 3 .672 3 1.824 0 1.176-.792 1.9-2.64 1.9h-2.232zm15.984-2.832h-3.36v16.56h10.32v-2.832h-6.96zm21.744 9.46v-2.356c0-5.112-2.616-7.32-6.36-7.32-3.72 0-6.336 2.208-6.336 7.32v2.356c0 5.064 2.616 7.32 6.336 7.32 3.74-.004 6.36-2.26 6.36-7.32zm-9.336-2.356c0-3.168 1.032-4.488 2.976-4.488s3 1.32 3 4.488v2.356c0 3.168-1.056 4.488-3 4.488s-2.976-1.324-2.976-4.488zm19.44.84v2.832h2.784c-.192 1.992-.96 3.168-2.856 3.168-1.944 0-2.976-1.32-2.976-4.488v-2.352c0-3.168 1.032-4.488 2.976-4.488a2.739 2.739 0 0 1 2.856 2.52h3.216c-.5-3.384-2.592-5.352-6.072-5.352-3.72 0-6.336 2.208-6.336 7.56v2.116c0 5.064 2.616 7.32 6.336 7.32 3.744 0 6.1-2.256 6.1-7.32v-1.516z" fill="#fff" transform="translate(-1.632 16.776)"/></svg>