<svg xmlns="http://www.w3.org/2000/svg" width="115.742" height="15.576" viewBox="0 0 115.742 15.576"><path d="M1.5-15.18V0H7.062c4,0,5.544-2,5.544-4.356A3.523,3.523,0,0,0,10.12-7.964a3.42,3.42,0,0,0,2-3.234c0-2.706-1.958-3.982-5.544-3.982Zm3.08,8.6H6.512c2.068,0,3.014.55,3.014,1.98,0,1.3-.88,2-2.728,2H4.576Zm0-6.006H6.292c2.222,0,2.75.616,2.75,1.672,0,1.078-.726,1.738-2.42,1.738H4.576ZM27.324-6.512V-8.668c0-4.686-2.4-6.71-5.83-6.71-3.41,0-5.808,2.024-5.808,6.71v2.156c0,4.642,2.4,6.71,5.808,6.71C24.926.2,27.324-1.87,27.324-6.512ZM18.766-8.668c0-2.9.946-4.114,2.728-4.114s2.75,1.21,2.75,4.114v2.156c0,2.9-.968,4.114-2.75,4.114s-2.728-1.21-2.728-4.114ZM42.35-6.512V-8.668c0-4.686-2.4-6.71-5.83-6.71-3.41,0-5.808,2.024-5.808,6.71v2.156C30.712-1.87,33.11.2,36.52.2,39.952.2,42.35-1.87,42.35-6.512ZM33.792-8.668c0-2.9.946-4.114,2.728-4.114s2.75,1.21,2.75,4.114v2.156c0,2.9-.968,4.114-2.75,4.114s-2.728-1.21-2.728-4.114ZM58.63,0,53.086-9.042l4.642-6.138H54.076l-4.8,6.556V-15.18H46.2V0h3.08V-4.026l1.8-2.376L54.956,0ZM77.022-15.18v9.526l-5.94-9.526H68.53V0h2.926V-9.394L77.374,0h2.574V-15.18ZM95.458-6.512V-8.668c0-4.686-2.4-6.71-5.83-6.71-3.41,0-5.808,2.024-5.808,6.71v2.156c0,4.642,2.4,6.71,5.808,6.71C93.06.2,95.458-1.87,95.458-6.512ZM86.9-8.668c0-2.9.946-4.114,2.728-4.114s2.75,1.21,2.75,4.114v2.156c0,2.9-.968,4.114-2.75,4.114S86.9-3.608,86.9-6.512Zm20.68-1.782L110.792,0h2.948l3.5-15.18h-3.322l-2,10.054-2.97-10.054h-2.772L103.29-5.192l-2.024-9.988h-3.3L101.442,0h2.926Z" transform="translate(-1.496 15.378)" fill="#fff"/></svg>