<svg xmlns="http://www.w3.org/2000/svg" width="126.264" height="16.992" viewBox="0 0 126.264 16.992">
  <path id="Path_41" data-name="Path 41" d="M1.632-16.56V0H7.7c4.368,0,6.048-2.184,6.048-4.752A3.843,3.843,0,0,0,11.04-8.688a3.731,3.731,0,0,0,2.184-3.528c0-2.952-2.136-4.344-6.048-4.344Zm3.36,9.384H7.1c2.256,0,3.288.6,3.288,2.16,0,1.416-.96,2.184-2.976,2.184H4.992Zm0-6.552H6.864c2.424,0,3,.672,3,1.824,0,1.176-.792,1.9-2.64,1.9H4.992ZM29.808-7.1V-9.456c0-5.112-2.616-7.32-6.36-7.32-3.72,0-6.336,2.208-6.336,7.32V-7.1c0,5.064,2.616,7.32,6.336,7.32C27.192.216,29.808-2.04,29.808-7.1ZM20.472-9.456c0-3.168,1.032-4.488,2.976-4.488s3,1.32,3,4.488V-7.1c0,3.168-1.056,4.488-3,4.488S20.472-3.936,20.472-7.1ZM46.2-7.1V-9.456c0-5.112-2.616-7.32-6.36-7.32-3.72,0-6.336,2.208-6.336,7.32V-7.1C33.5-2.04,36.12.216,39.84.216,43.584.216,46.2-2.04,46.2-7.1ZM36.864-9.456c0-3.168,1.032-4.488,2.976-4.488s3,1.32,3,4.488V-7.1c0,3.168-1.056,4.488-3,4.488S36.864-3.936,36.864-7.1ZM63.96,0,57.912-9.864l5.064-6.7H58.992L53.76-9.408V-16.56H50.4V0h3.36V-4.392l1.968-2.592L59.952,0ZM84.024-16.56V-6.168L77.544-16.56H74.76V0h3.192V-10.248L84.408,0h2.808V-16.56ZM104.136-7.1V-9.456c0-5.112-2.616-7.32-6.36-7.32-3.72,0-6.336,2.208-6.336,7.32V-7.1c0,5.064,2.616,7.32,6.336,7.32C101.52.216,104.136-2.04,104.136-7.1ZM94.8-9.456c0-3.168,1.032-4.488,2.976-4.488s3,1.32,3,4.488V-7.1c0,3.168-1.056,4.488-3,4.488S94.8-3.936,94.8-7.1ZM117.36-11.4l3.5,11.4h3.216L127.9-16.56h-3.624L122.088-5.592l-3.24-10.968h-3.024l-3.144,10.9-2.208-10.9h-3.6L110.664,0h3.192Z" transform="translate(-1.632 16.776)" fill="#fff"/>
</svg>
