<svg xmlns="http://www.w3.org/2000/svg" width="45.09" height="12.744" viewBox="0 0 45.09 12.744"><path d="M1.368-12.42V0H5.76c3.222,0,4.41-1.692,4.41-3.564A2.809,2.809,0,0,0,7.956-6.5,2.8,2.8,0,0,0,9.774-9.2c0-2.142-1.494-3.222-4.41-3.222ZM3.456-5.544H5.382c1.836,0,2.7.558,2.7,1.872,0,1.188-.774,1.872-2.448,1.872H3.456Zm0-5.076H5.22c1.98,0,2.466.576,2.466,1.548,0,1.026-.648,1.728-2.2,1.728H3.456Zm18.27,5.2V-7c0-3.906-1.872-5.58-4.662-5.58-2.772,0-4.644,1.674-4.644,5.58v1.584c0,3.906,1.872,5.58,4.644,5.58C19.854.162,21.726-1.512,21.726-5.418ZM14.508-7c0-2.682.9-3.762,2.556-3.762S19.638-9.684,19.638-7v1.584c0,2.682-.918,3.762-2.574,3.762s-2.556-1.08-2.556-3.762ZM33.48-5.418V-7c0-3.906-1.872-5.58-4.662-5.58-2.772,0-4.644,1.674-4.644,5.58v1.584c0,3.906,1.872,5.58,4.644,5.58C31.608.162,33.48-1.512,33.48-5.418ZM26.262-7c0-2.682.9-3.762,2.556-3.762S31.392-9.684,31.392-7v1.584c0,2.682-.918,3.762-2.574,3.762s-2.556-1.08-2.556-3.762Zm20.2,7L41.724-7.416l3.924-5H43.092L38.52-6.426V-12.42H36.432V0H38.52V-3.312L40.356-5.67,43.956,0Z" transform="translate(-1.368 12.582)" fill="#fff"/></svg>