<svg xmlns="http://www.w3.org/2000/svg" width="100.452" height="15.576" viewBox="0 0 100.452 15.576"><path d="M12.408-10.472c-.506-3.322-2.552-4.906-5.566-4.906-3.41,0-5.808,2.024-5.808,6.71v2.156C1.034-1.87,3.432.2,6.842.2c3.124,0,5.038-1.5,5.544-4.906H9.46C9.13-3.168,8.382-2.4,6.842-2.4,5.06-2.4,4.114-3.7,4.114-6.512V-8.668c0-2.9.946-4.114,2.728-4.114a2.521,2.521,0,0,1,2.618,2.31ZM17.446,0l.924-2.882h5.082L24.376,0h3.278l-5.28-15.18H19.426L14.146,0ZM20.9-10.824l1.716,5.346H19.184ZM33.286-15.18H30.4V0H33.33V-9.35l3.256,6.622h1.87l3.3-6.688V0H44.7V-15.18H41.778L37.554-6.908ZM54.45-5.346c3.52,0,5.676-1.76,5.676-4.972,0-3.256-2.178-4.862-5.676-4.862H49.016V0H52.1V-5.346ZM52.1-7.942v-4.62H54.01c2.134,0,3.036.792,3.036,2.244,0,1.628-.9,2.376-3.036,2.376Zm11.22-7.238V0h9.46V-2.6H66.4v-3.96h5.72v-2.6H66.4v-3.41h6.38V-15.18ZM87.89,0,84.744-6.468a4.05,4.05,0,0,0,2.6-4.07c0-3.08-2.178-4.642-5.676-4.642H76.23V0h3.08V-5.962h2.464L84.5,0ZM79.31-8.558v-4h2.068c1.826,0,2.882.44,2.882,2.024s-1.056,1.98-2.882,1.98Zm22.022-4.334c-1.078-1.672-2.9-2.486-5.324-2.486-3.608,0-5.192,1.87-5.192,4.268,0,2.508,1.5,3.938,4.488,4.73,2.464.638,3.1,1.232,3.1,2.288,0,.924-.594,1.694-2.354,1.694a3.792,3.792,0,0,1-3.3-1.518L90.4-2.288C91.74-.528,93.588.2,96.25.2c3.564,0,5.236-1.936,5.236-4.422,0-2.684-1.43-3.872-4.6-4.664C94.864-9.394,93.9-9.922,93.9-11.11c0-1.034.748-1.672,2.134-1.672a3.091,3.091,0,0,1,2.992,1.54Z" transform="translate(-1.034 15.378)" fill="#fff"/></svg>