<svg xmlns="http://www.w3.org/2000/svg" width="248.976" height="39.648" viewBox="0 0 248.976 39.648">
  <path id="Path_33" data-name="Path 33" d="M31.584-26.656c-1.288-8.456-6.5-12.488-14.168-12.488-8.68,0-14.784,5.152-14.784,17.08v5.488C2.632-4.76,8.736.5,17.416.5,25.368.5,30.24-3.3,31.528-11.984H24.08c-.84,3.92-2.744,5.88-6.664,5.88-4.536,0-6.944-3.3-6.944-10.472v-5.488c0-7.392,2.408-10.472,6.944-10.472,3.808,0,5.936,2.24,6.664,5.88ZM43.288,0,45.64-7.336H58.576L60.928,0h8.344L55.832-38.64h-7.5L34.888,0ZM52.08-27.552l4.368,13.608H47.712ZM82.488-38.64H75.152V0H82.6V-23.8L90.888-6.944h4.76l8.4-17.024V0h7.5V-38.64H104.1L93.352-17.584ZM135.24-13.608c8.96,0,14.448-4.48,14.448-12.656,0-8.288-5.544-12.376-14.448-12.376H121.408V0h7.84V-13.608Zm-5.992-6.608v-11.76h4.872c5.432,0,7.728,2.016,7.728,5.712,0,4.144-2.3,6.048-7.728,6.048Zm27.44-18.424V0h24.08V-6.608h-16.24v-10.08h14.56V-23.3h-14.56v-8.68h16.24V-38.64ZM218.12,0l-8.008-16.464c4.2-1.736,6.608-5.152,6.608-10.36,0-7.84-5.544-11.816-14.448-11.816H188.44V0h7.84V-15.176h6.272L209.5,0ZM196.28-21.784V-31.976h5.264c4.648,0,7.336,1.12,7.336,5.152s-2.688,5.04-7.336,5.04Zm54.936-11.032c-2.744-4.256-7.392-6.328-13.552-6.328-9.184,0-13.216,4.76-13.216,10.864,0,6.384,3.808,10.024,11.424,12.04,6.272,1.624,7.9,3.136,7.9,5.824,0,2.352-1.512,4.312-5.992,4.312-3.976,0-6.328-1.288-8.4-3.864l-5.992,4.144C226.8-1.344,231.5.5,238.28.5c9.072,0,13.328-4.928,13.328-11.256,0-6.832-3.64-9.856-11.7-11.872-5.152-1.288-7.616-2.632-7.616-5.656,0-2.632,1.9-4.256,5.432-4.256,3.92,0,5.936,1.288,7.616,3.92Z" transform="translate(-2.632 39.144)" fill="#313031"/>
</svg>
