<svg xmlns="http://www.w3.org/2000/svg" width="109.584" height="16.992" viewBox="0 0 109.584 16.992"><path d="M13.536-11.424c-.552-3.624-2.784-5.352-6.072-5.352-3.72,0-6.336,2.208-6.336,7.32V-7.1c0,5.064,2.616,7.32,6.336,7.32,3.408,0,5.5-1.632,6.048-5.352H10.32c-.36,1.68-1.176,2.52-2.856,2.52C5.52-2.616,4.488-4.032,4.488-7.1V-9.456c0-3.168,1.032-4.488,2.976-4.488a2.75,2.75,0,0,1,2.856,2.52ZM19.032,0,20.04-3.144h5.544L26.592,0h3.576l-5.76-16.56H21.192L15.432,0ZM22.8-11.808l1.872,5.832H20.928ZM36.312-16.56H33.168V0H36.36V-10.2l3.552,7.224h2.04l3.6-7.3V0h3.216V-16.56H45.576L40.968-7.536ZM59.4-5.832c3.84,0,6.192-1.92,6.192-5.424,0-3.552-2.376-5.3-6.192-5.3H53.472V0h3.36V-5.832ZM56.832-8.664V-13.7H58.92c2.328,0,3.312.864,3.312,2.448,0,1.776-.984,2.592-3.312,2.592Zm12.24-7.9V0h10.32V-2.832h-6.96v-4.32h6.24V-9.984h-6.24V-13.7h6.96V-16.56ZM95.88,0,92.448-7.056A4.418,4.418,0,0,0,95.28-11.5c0-3.36-2.376-5.064-6.192-5.064H83.16V0h3.36V-6.5h2.688L92.184,0ZM86.52-9.336V-13.7h2.256c1.992,0,3.144.48,3.144,2.208s-1.152,2.16-3.144,2.16Zm24.024-4.728c-1.176-1.824-3.168-2.712-5.808-2.712-3.936,0-5.664,2.04-5.664,4.656,0,2.736,1.632,4.3,4.9,5.16,2.688.7,3.384,1.344,3.384,2.5,0,1.008-.648,1.848-2.568,1.848a4.137,4.137,0,0,1-3.6-1.656L98.616-2.5C100.08-.576,102.1.216,105,.216c3.888,0,5.712-2.112,5.712-4.824,0-2.928-1.56-4.224-5.016-5.088-2.208-.552-3.264-1.128-3.264-2.424,0-1.128.816-1.824,2.328-1.824a3.373,3.373,0,0,1,3.264,1.68Z" transform="translate(-1.128 16.776)" fill="#fff"/></svg>