<svg xmlns="http://www.w3.org/2000/svg" width="119.68" height="15.576" viewBox="0 0 119.68 15.576">
  <path id="Path_34" data-name="Path 34" d="M12.408-10.472c-.506-3.322-2.552-4.906-5.566-4.906-3.41,0-5.808,2.024-5.808,6.71v2.156C1.034-1.87,3.432.2,6.842.2c3.124,0,5.038-1.5,5.544-4.906H9.46C9.13-3.168,8.382-2.4,6.842-2.4,5.06-2.4,4.114-3.7,4.114-6.512V-8.668c0-2.9.946-4.114,2.728-4.114a2.521,2.521,0,0,1,2.618,2.31Zm14.5,3.96V-8.668c0-4.686-2.4-6.71-5.83-6.71-3.41,0-5.808,2.024-5.808,6.71v2.156c0,4.642,2.4,6.71,5.808,6.71C24.508.2,26.906-1.87,26.906-6.512ZM18.348-8.668c0-2.9.946-4.114,2.728-4.114s2.75,1.21,2.75,4.114v2.156c0,2.9-.968,4.114-2.75,4.114s-2.728-1.21-2.728-4.114Zm20.9-6.512v9.526l-5.94-9.526H30.756V0h2.926V-9.394L39.6,0h2.574V-15.18ZM57.42-10.472c-.506-3.322-2.552-4.906-5.566-4.906-3.41,0-5.808,2.024-5.808,6.71v2.156c0,4.642,2.4,6.71,5.808,6.71,3.124,0,5.038-1.5,5.544-4.906H54.472c-.33,1.54-1.078,2.31-2.618,2.31-1.782,0-2.728-1.3-2.728-4.114V-8.668c0-2.9.946-4.114,2.728-4.114a2.521,2.521,0,0,1,2.618,2.31ZM64.2-15.18h-3.08V0H64.2Zm4.532,0V0h9.46V-2.6h-6.38v-3.96h5.72v-2.6h-5.72v-3.41h6.38V-15.18ZM93.3,0,90.156-6.468a4.05,4.05,0,0,0,2.6-4.07c0-3.08-2.178-4.642-5.676-4.642H81.642V0h3.08V-5.962h2.464L89.914,0Zm-8.58-8.558v-4H86.79c1.826,0,2.882.44,2.882,2.024s-1.056,1.98-2.882,1.98Zm17.16.66v2.6h2.552c-.176,1.826-.88,2.9-2.618,2.9-1.782,0-2.728-1.21-2.728-4.114V-8.668c0-2.9.946-4.114,2.728-4.114a2.51,2.51,0,0,1,2.618,2.31h2.948c-.462-3.1-2.376-4.906-5.566-4.906-3.41,0-5.808,2.024-5.808,6.93v1.936c0,4.642,2.4,6.71,5.808,6.71,3.432,0,5.588-2.068,5.588-6.71V-7.9Zm9.372-7.282V0h9.46V-2.6h-6.38v-3.96h5.72v-2.6h-5.72v-3.41h6.38V-15.18Z" transform="translate(-1.034 15.378)" fill="#fff"/>
</svg>
