<svg xmlns="http://www.w3.org/2000/svg" width="295.68" height="39.648" viewBox="0 0 295.68 39.648">
  <path id="Path_33" data-name="Path 33" d="M31.584-26.656c-1.288-8.456-6.5-12.488-14.168-12.488-8.68,0-14.784,5.152-14.784,17.08v5.488C2.632-4.76,8.736.5,17.416.5,25.368.5,30.24-3.3,31.528-11.984H24.08c-.84,3.92-2.744,5.88-6.664,5.88-4.536,0-6.944-3.3-6.944-10.472v-5.488c0-7.392,2.408-10.472,6.944-10.472,3.808,0,5.936,2.24,6.664,5.88Zm35.784,10.08v-5.488c0-11.928-6.1-17.08-14.84-17.08-8.68,0-14.784,5.152-14.784,17.08v5.488C37.744-4.76,43.848.5,52.528.5,61.264.5,67.368-4.76,67.368-16.576ZM45.584-22.064c0-7.392,2.408-10.472,6.944-10.472s7,3.08,7,10.472v5.488c0,7.392-2.464,10.472-7,10.472s-6.944-3.08-6.944-10.472ZM97.664-38.64v24.248L82.544-38.64h-6.5V0H83.5V-23.912L98.56,0h6.552V-38.64ZM142.8-26.656c-1.288-8.456-6.5-12.488-14.168-12.488-8.68,0-14.784,5.152-14.784,17.08v5.488c0,11.816,6.1,17.08,14.784,17.08,7.952,0,12.824-3.808,14.112-12.488H135.3c-.84,3.92-2.744,5.88-6.664,5.88-4.536,0-6.944-3.3-6.944-10.472v-5.488c0-7.392,2.408-10.472,6.944-10.472,3.808,0,5.936,2.24,6.664,5.88ZM158.928-38.64h-7.84V0h7.84Zm10.416,0V0h24.08V-6.608h-16.24v-10.08h14.56V-23.3h-14.56v-8.68h16.24V-38.64ZM230.776,0l-8.008-16.464c4.2-1.736,6.608-5.152,6.608-10.36,0-7.84-5.544-11.816-14.448-11.816H201.1V0h7.84V-15.176h6.272L222.152,0Zm-21.84-21.784V-31.976H214.2c4.648,0,7.336,1.12,7.336,5.152s-2.688,5.04-7.336,5.04ZM251.5-20.1V-13.5h6.5c-.448,4.648-2.24,7.392-6.664,7.392-4.536,0-6.944-3.08-6.944-10.472v-5.488c0-7.392,2.408-10.472,6.944-10.472,3.92,0,5.992,2.352,6.664,5.88h7.5c-1.176-7.9-6.048-12.488-14.168-12.488-8.68,0-14.784,5.152-14.784,17.64v4.928c0,11.816,6.1,17.08,14.784,17.08,8.736,0,14.224-5.264,14.224-17.08V-20.1ZM274.232-38.64V0h24.08V-6.608h-16.24v-10.08h14.56V-23.3h-14.56v-8.68h16.24V-38.64Z" transform="translate(-2.632 39.144)" fill="#313031"/>
</svg>
