<svg xmlns="http://www.w3.org/2000/svg" width="130.56" height="16.992" viewBox="0 0 130.56 16.992"><path d="M13.536-11.424c-.552-3.624-2.784-5.352-6.072-5.352-3.72,0-6.336,2.208-6.336,7.32V-7.1c0,5.064,2.616,7.32,6.336,7.32,3.408,0,5.5-1.632,6.048-5.352H10.32c-.36,1.68-1.176,2.52-2.856,2.52C5.52-2.616,4.488-4.032,4.488-7.1V-9.456c0-3.168,1.032-4.488,2.976-4.488a2.75,2.75,0,0,1,2.856,2.52ZM29.352-7.1V-9.456c0-5.112-2.616-7.32-6.36-7.32-3.72,0-6.336,2.208-6.336,7.32V-7.1c0,5.064,2.616,7.32,6.336,7.32C26.736.216,29.352-2.04,29.352-7.1ZM20.016-9.456c0-3.168,1.032-4.488,2.976-4.488s3,1.32,3,4.488V-7.1c0,3.168-1.056,4.488-3,4.488S20.016-3.936,20.016-7.1Zm22.8-7.1V-6.168L36.336-16.56H33.552V0h3.192V-10.248L43.2,0h2.808V-16.56ZM62.64-11.424c-.552-3.624-2.784-5.352-6.072-5.352-3.72,0-6.336,2.208-6.336,7.32V-7.1c0,5.064,2.616,7.32,6.336,7.32,3.408,0,5.5-1.632,6.048-5.352H59.424c-.36,1.68-1.176,2.52-2.856,2.52-1.944,0-2.976-1.416-2.976-4.488V-9.456c0-3.168,1.032-4.488,2.976-4.488a2.75,2.75,0,0,1,2.856,2.52Zm7.392-5.136h-3.36V0h3.36Zm4.944,0V0H85.3V-2.832h-6.96v-4.32h6.24V-9.984h-6.24V-13.7H85.3V-16.56ZM101.784,0,98.352-7.056a4.418,4.418,0,0,0,2.832-4.44c0-3.36-2.376-5.064-6.192-5.064H89.064V0h3.36V-6.5h2.688L98.088,0Zm-9.36-9.336V-13.7H94.68c1.992,0,3.144.48,3.144,2.208s-1.152,2.16-3.144,2.16Zm18.72.72v2.832h2.784c-.192,1.992-.96,3.168-2.856,3.168-1.944,0-2.976-1.32-2.976-4.488V-9.456c0-3.168,1.032-4.488,2.976-4.488a2.739,2.739,0,0,1,2.856,2.52h3.216c-.5-3.384-2.592-5.352-6.072-5.352-3.72,0-6.336,2.208-6.336,7.56V-7.1c0,5.064,2.616,7.32,6.336,7.32,3.744,0,6.1-2.256,6.1-7.32V-8.616Zm10.224-7.944V0h10.32V-2.832h-6.96v-4.32h6.24V-9.984h-6.24V-13.7h6.96V-16.56Z" transform="translate(-1.128 16.776)" fill="#fff"/></svg>