<svg height="16.992" viewBox="0 0 104.952 16.992" width="104.952" xmlns="http://www.w3.org/2000/svg"><path d="m13.536-11.424c-.552-3.624-2.784-5.352-6.072-5.352-3.72 0-6.336 2.208-6.336 7.32v2.356c0 5.064 2.616 7.32 6.336 7.32 3.408 0 5.5-1.632 6.048-5.352h-3.192c-.36 1.68-1.176 2.52-2.856 2.52-1.944-.004-2.976-1.42-2.976-4.488v-2.356c0-3.168 1.032-4.488 2.976-4.488a2.75 2.75 0 0 1 2.856 2.52zm15.816 4.324v-2.356c0-5.112-2.616-7.32-6.36-7.32-3.72 0-6.336 2.208-6.336 7.32v2.356c0 5.064 2.616 7.32 6.336 7.32 3.744-.004 6.36-2.26 6.36-7.32zm-9.336-2.356c0-3.168 1.032-4.488 2.976-4.488s3 1.32 3 4.488v2.356c0 3.168-1.056 4.488-3 4.488s-2.976-1.324-2.976-4.488zm22.8-7.1v10.388l-6.48-10.392h-2.784v16.56h3.192v-10.248l6.456 10.248h2.808v-16.56zm6.48 0v2.856h4.56v13.7h3.36v-13.7h4.56v-2.86zm16.728 16.556 1.008-3.144h5.544l1.008 3.144h3.576l-5.76-16.56h-3.216l-5.76 16.56zm3.768-11.808 1.872 5.832h-3.744zm21.792.384c-.552-3.624-2.784-5.352-6.072-5.352-3.72 0-6.336 2.208-6.336 7.32v2.356c0 5.064 2.616 7.32 6.336 7.32 3.408 0 5.5-1.632 6.048-5.352h-3.192c-.36 1.68-1.176 2.52-2.856 2.52-1.944 0-2.976-1.416-2.976-4.488v-2.356c0-3.168 1.032-4.488 2.976-4.488a2.75 2.75 0 0 1 2.856 2.52zm2.016-5.136v2.86h4.56v13.7h3.36v-13.7h4.56v-2.86z" fill="#fff" transform="translate(-1.128 16.776)"/></svg>