<svg xmlns="http://www.w3.org/2000/svg" width="96.206" height="15.576" viewBox="0 0 96.206 15.576"><path d="M12.408-10.472c-.506-3.322-2.552-4.906-5.566-4.906-3.41,0-5.808,2.024-5.808,6.71v2.156C1.034-1.87,3.432.2,6.842.2c3.124,0,5.038-1.5,5.544-4.906H9.46C9.13-3.168,8.382-2.4,6.842-2.4,5.06-2.4,4.114-3.7,4.114-6.512V-8.668c0-2.9.946-4.114,2.728-4.114a2.521,2.521,0,0,1,2.618,2.31Zm14.5,3.96V-8.668c0-4.686-2.4-6.71-5.83-6.71-3.41,0-5.808,2.024-5.808,6.71v2.156c0,4.642,2.4,6.71,5.808,6.71C24.508.2,26.906-1.87,26.906-6.512ZM18.348-8.668c0-2.9.946-4.114,2.728-4.114s2.75,1.21,2.75,4.114v2.156c0,2.9-.968,4.114-2.75,4.114s-2.728-1.21-2.728-4.114Zm20.9-6.512v9.526l-5.94-9.526H30.756V0h2.926V-9.394L39.6,0h2.574V-15.18Zm5.94,0v2.618h4.18V0h3.08V-12.562h4.18V-15.18ZM60.522,0l.924-2.882h5.082L67.452,0H70.73L65.45-15.18H62.5L57.222,0Zm3.454-10.824,1.716,5.346H62.26Zm19.976.352c-.506-3.322-2.552-4.906-5.566-4.906-3.41,0-5.808,2.024-5.808,6.71v2.156c0,4.642,2.4,6.71,5.808,6.71,3.124,0,5.038-1.5,5.544-4.906H81c-.33,1.54-1.078,2.31-2.618,2.31-1.782,0-2.728-1.3-2.728-4.114V-8.668c0-2.9.946-4.114,2.728-4.114A2.521,2.521,0,0,1,81-10.472ZM85.8-15.18v2.618h4.18V0h3.08V-12.562h4.18V-15.18Z" transform="translate(-1.034 15.378)" fill="#fff"/></svg>