<svg xmlns="http://www.w3.org/2000/svg" width="141.504" height="16.992" viewBox="0 0 141.504 16.992">
  <path id="Path_36" data-name="Path 36" d="M1.632-16.56V0h10.32V-2.832H4.992v-4.32h6.24V-9.984H4.992V-13.7h6.96V-16.56ZM18.048,0l3.144-5.64L24.36,0h3.624L23.3-8.544,27.48-16.56H23.856l-2.664,5.28-2.64-5.28H14.9l4.152,8.016L14.4,0ZM37.3-5.832c3.84,0,6.192-1.92,6.192-5.424,0-3.552-2.376-5.3-6.192-5.3H31.368V0h3.36V-5.832ZM34.728-8.664V-13.7h2.088c2.328,0,3.312.864,3.312,2.448,0,1.776-.984,2.592-3.312,2.592Zm12.24-7.9V0h10.32V-2.832h-6.96v-4.32h6.24V-9.984h-6.24V-13.7h6.96V-16.56ZM73.776,0,70.344-7.056a4.418,4.418,0,0,0,2.832-4.44c0-3.36-2.376-5.064-6.192-5.064H61.056V0h3.36V-6.5H67.1L70.08,0Zm-9.36-9.336V-13.7h2.256c1.992,0,3.144.48,3.144,2.208s-1.152,2.16-3.144,2.16ZM80.9-16.56h-3.36V0H80.9Zm4.944,0V0h10.32V-2.832h-6.96v-4.32h6.24V-9.984h-6.24V-13.7h6.96V-16.56Zm23.352,0V-6.168L102.72-16.56H99.936V0h3.192V-10.248L109.584,0h2.808V-16.56Zm19.824,5.136c-.552-3.624-2.784-5.352-6.072-5.352-3.72,0-6.336,2.208-6.336,7.32V-7.1c0,5.064,2.616,7.32,6.336,7.32,3.408,0,5.5-1.632,6.048-5.352h-3.192c-.36,1.68-1.176,2.52-2.856,2.52-1.944,0-2.976-1.416-2.976-4.488V-9.456c0-3.168,1.032-4.488,2.976-4.488a2.75,2.75,0,0,1,2.856,2.52Zm3.792-5.136V0h10.32V-2.832h-6.96v-4.32h6.24V-9.984h-6.24V-13.7h6.96V-16.56Z" transform="translate(-1.632 16.776)" fill="#fff"/>
</svg>
