<svg height="14.559" viewBox="0 0 7.839 14.559" width="7.839" xmlns="http://www.w3.org/2000/svg"><path d="m1187.7 822.754h-1.813a3.3 3.3 0 0 0 -3.491 3.553v1.768h-1.943a.3.3 0 0 0 -.3.3v2.488a.294.294 0 0 0 .3.294h1.945v5.864a.294.294 0 0 0 .294.295h2.488a.3.3 0 0 0 .3-.3v-5.862h2.225a.294.294 0 0 0 .294-.294v-2.479a.31.31 0 0 0 -.087-.216.3.3 0 0 0 -.21-.09h-2.223v-1.51c0-.669.155-1.009 1-1.009h1.222a.3.3 0 0 0 .294-.295v-2.21a.294.294 0 0 0 -.295-.297z" fill="#fff" transform="translate(-1180.161 -822.751)"/></svg>