<svg xmlns="http://www.w3.org/2000/svg" width="97.328" height="41.328" viewBox="0 0 97.328 41.328"><path d="M3.808-38.64V0h7.84V-15.792h14.56V-22.4H11.648v-9.576h16.24V-38.64ZM38.3,0l2.352-7.336H53.592L55.944,0h8.344L50.848-38.64h-7.5L29.9,0ZM47.1-27.552l4.368,13.608H42.728ZM97.5-16.576v-5.488c0-11.928-6.1-17.08-14.84-17.08-8.68,0-14.784,5.152-14.784,17.08v5.488C67.872-4.76,73.976.5,82.656.5A14.842,14.842,0,0,0,91.784-2.24l5.208,4.424,4.144-4.928L95.76-7.336A22.109,22.109,0,0,0,97.5-16.576ZM75.712-22.064c0-7.392,2.408-10.472,6.944-10.472s7,3.08,7,10.472v5.488a25.014,25.014,0,0,1-.28,3.752l-3.3-2.912-4.256,4.984L86.184-7a6.485,6.485,0,0,1-3.528.9c-4.536,0-6.944-3.08-6.944-10.472Z" transform="translate(-3.808 39.144)"/></svg>