<svg xmlns="http://www.w3.org/2000/svg" width="57.571" height="9.023" viewBox="0 0 57.571 9.023">
  <path id="Path_33" data-name="Path 33" d="M5.367-7.512H2.086v2.906H5.121v.885H2.086V0H1.1V-8.4H5.367ZM10.54.141A2.783,2.783,0,0,1,8.416-.7,3.114,3.114,0,0,1,7.622-2.93a3.244,3.244,0,0,1,.826-2.361,2.97,2.97,0,0,1,2.232-.85,2.691,2.691,0,0,1,2.095.826,3.276,3.276,0,0,1,.753,2.291,3.223,3.223,0,0,1-.812,2.3A2.844,2.844,0,0,1,10.54.141Zm.07-5.473a1.828,1.828,0,0,0-1.465.63,2.587,2.587,0,0,0-.539,1.737,2.447,2.447,0,0,0,.545,1.682,1.852,1.852,0,0,0,1.459.615,1.757,1.757,0,0,0,1.433-.6,2.619,2.619,0,0,0,.5-1.717,2.664,2.664,0,0,0-.5-1.734A1.749,1.749,0,0,0,10.61-5.332ZM17.224,0h-.961V-8.883h.961ZM21.33,0H20.37V-8.883h.961Zm5.653.141A2.783,2.783,0,0,1,24.86-.7a3.114,3.114,0,0,1-.794-2.229,3.244,3.244,0,0,1,.826-2.361,2.97,2.97,0,0,1,2.232-.85,2.691,2.691,0,0,1,2.095.826,3.276,3.276,0,0,1,.753,2.291,3.223,3.223,0,0,1-.812,2.3A2.844,2.844,0,0,1,26.984.141Zm.07-5.473a1.828,1.828,0,0,0-1.465.63,2.587,2.587,0,0,0-.539,1.737,2.447,2.447,0,0,0,.545,1.682,1.852,1.852,0,0,0,1.459.615,1.757,1.757,0,0,0,1.433-.6,2.619,2.619,0,0,0,.5-1.717,2.664,2.664,0,0,0-.5-1.734A1.749,1.749,0,0,0,27.054-5.332ZM40.266-6l-1.8,6h-1L36.234-4.295a2.8,2.8,0,0,1-.094-.557h-.023a2.628,2.628,0,0,1-.123.545L34.652,0h-.961L31.875-6h1.008l1.242,4.512a2.718,2.718,0,0,1,.082.539h.047a2.521,2.521,0,0,1,.105-.551L35.742-6h.879l1.242,4.523a3.229,3.229,0,0,1,.088.539H38a2.493,2.493,0,0,1,.1-.539L39.316-6ZM51.918,0h-.961V-.949h-.023A1.973,1.973,0,0,1,49.082.141q-2.145,0-2.145-2.555V-6h.955v3.434q0,1.9,1.453,1.9A1.47,1.47,0,0,0,50.5-1.187a1.984,1.984,0,0,0,.454-1.356V-6h.961Zm2.776-.217V-1.248a2.844,2.844,0,0,0,1.729.58q1.266,0,1.266-.844a.732.732,0,0,0-.108-.407,1.08,1.08,0,0,0-.293-.3,2.255,2.255,0,0,0-.434-.231q-.249-.1-.536-.214a6.9,6.9,0,0,1-.7-.319,2.115,2.115,0,0,1-.5-.363,1.352,1.352,0,0,1-.3-.46,1.627,1.627,0,0,1-.1-.6,1.434,1.434,0,0,1,.193-.747,1.715,1.715,0,0,1,.516-.545,2.4,2.4,0,0,1,.735-.331A3.262,3.262,0,0,1,57-6.141a3.442,3.442,0,0,1,1.395.27V-4.9a2.718,2.718,0,0,0-1.523-.434,1.781,1.781,0,0,0-.486.062,1.191,1.191,0,0,0-.372.173.8.8,0,0,0-.24.267.7.7,0,0,0-.085.343.822.822,0,0,0,.085.393.864.864,0,0,0,.249.281,1.9,1.9,0,0,0,.4.223q.234.1.533.217a7.421,7.421,0,0,1,.715.313,2.452,2.452,0,0,1,.539.363,1.42,1.42,0,0,1,.343.466,1.5,1.5,0,0,1,.12.627,1.478,1.478,0,0,1-.2.773,1.682,1.682,0,0,1-.524.545A2.4,2.4,0,0,1,57.2.035a3.732,3.732,0,0,1-.9.105A3.4,3.4,0,0,1,54.694-.217Z" transform="translate(-1.102 8.883)" fill="#fff"/>
</svg>
