<svg height="39.648" viewBox="0 0 299.32 39.648" width="299.32" xmlns="http://www.w3.org/2000/svg"><path d="m3.808-38.64v38.64h7.84v-15.792h14.56v-6.608h-14.56v-9.576h16.24v-6.664zm59.864 22.064v-5.488c0-11.928-6.1-17.08-14.84-17.08-8.68 0-14.784 5.152-14.784 17.08v5.488c0 11.816 6.104 17.076 14.784 17.076 8.736 0 14.84-5.26 14.84-17.076zm-21.784-5.488c0-7.392 2.408-10.472 6.944-10.472s7 3.08 7 10.472v5.488c0 7.392-2.464 10.472-7 10.472s-6.944-3.08-6.944-10.472zm38.3-16.576h-7.84v38.64h24.08v-6.608h-16.236zm30.464 0h-7.84v38.64h24.088v-6.608h-16.24zm49.616 22.064v-5.488c0-11.928-6.1-17.08-14.84-17.08-8.68 0-14.784 5.152-14.784 17.08v5.488c0 11.816 6.1 17.08 14.784 17.08 8.74-.004 14.844-5.264 14.844-17.08zm-21.784-5.488c0-7.392 2.408-10.472 6.944-10.472s7 3.08 7 10.472v5.488c0 7.392-2.464 10.472-7 10.472s-6.944-3.08-6.944-10.472zm51.52-4.536 8.18 26.6h7.5l8.9-38.64h-8.456l-5.1 25.592-7.548-25.592h-7.056l-7.336 25.424-5.152-25.424h-8.4l8.848 38.64h7.448zm69.048-12.04v23.016c0 6.608-2.184 9.52-7 9.52s-7-2.912-7-9.52v-23.016h-7.84v23.016c.004 11.368 6.276 16.124 14.844 16.124s14.844-4.756 14.844-16.18v-22.96zm43.68 5.824c-2.744-4.256-7.392-6.328-13.552-6.328-9.184 0-13.216 4.76-13.216 10.864 0 6.384 3.808 10.024 11.424 12.04 6.272 1.624 7.9 3.136 7.9 5.824 0 2.352-1.512 4.312-5.992 4.312-3.976 0-6.328-1.288-8.4-3.864l-5.996 4.144c3.42 4.48 8.124 6.324 14.9 6.324 9.072 0 13.328-4.928 13.328-11.256 0-6.832-3.64-9.856-11.7-11.872-5.152-1.288-7.616-2.632-7.616-5.656 0-2.632 1.9-4.256 5.432-4.256 3.92 0 5.936 1.288 7.616 3.92z" fill="#313031" transform="translate(-3.808 39.144)"/></svg>