<svg height="16.992" viewBox="0 0 69.36 16.992" width="69.36" xmlns="http://www.w3.org/2000/svg"><path d="m7.536-8.616v2.832h2.784c-.192 1.992-.96 3.168-2.856 3.168-1.944 0-2.976-1.32-2.976-4.488v-2.352c0-3.168 1.032-4.488 2.976-4.488a2.739 2.739 0 0 1 2.856 2.52h3.216c-.5-3.384-2.592-5.352-6.072-5.352-3.72 0-6.336 2.208-6.336 7.56v2.116c0 5.064 2.616 7.32 6.336 7.32 3.744 0 6.1-2.256 6.1-7.32v-1.516zm19.584-7.944v9.86c0 2.832-.936 4.08-3 4.08s-3-1.248-3-4.08v-9.86h-3.36v9.86c0 4.872 2.688 6.912 6.36 6.912s6.36-2.04 6.36-6.936v-9.84zm11.664 0h-3.36v16.56h3.36zm10.824 16.56c3.744 0 6.36-1.944 6.36-7.2v-2.16c0-5.28-2.616-7.2-6.36-7.2h-5.88v16.56zm0-2.832h-2.52v-10.868h2.52c2.232 0 3 1.488 3 4.344v2.156c0 2.856-.768 4.368-3 4.368zm10.56-13.728v16.56h10.32v-2.832h-6.96v-4.32h6.24v-2.832h-6.24v-3.716h6.96v-2.86z" fill="#fff" transform="translate(-1.128 16.776)"/></svg>