<svg xmlns="http://www.w3.org/2000/svg" width="63.58" height="15.576" viewBox="0 0 63.58 15.576"><path d="M6.908-7.9v2.6H9.46c-.176,1.826-.88,2.9-2.618,2.9-1.782,0-2.728-1.21-2.728-4.114V-8.668c0-2.9.946-4.114,2.728-4.114a2.51,2.51,0,0,1,2.618,2.31h2.948c-.462-3.1-2.376-4.906-5.566-4.906-3.41,0-5.808,2.024-5.808,6.93v1.936C1.034-1.87,3.432.2,6.842.2c3.432,0,5.588-2.068,5.588-6.71V-7.9ZM24.86-15.18v9.042c0,2.6-.858,3.74-2.75,3.74s-2.75-1.144-2.75-3.74V-15.18H16.28v9.042C16.28-1.672,18.744.2,22.11.2s5.83-1.87,5.83-6.358v-9.02Zm10.692,0h-3.08V0h3.08ZM45.474,0c3.432,0,5.83-1.782,5.83-6.6V-8.58c0-4.84-2.4-6.6-5.83-6.6h-5.39V0Zm0-2.6h-2.31v-9.966h2.31c2.046,0,2.75,1.364,2.75,3.982V-6.6C48.224-3.982,47.52-2.6,45.474-2.6Zm9.68-12.584V0h9.46V-2.6h-6.38v-3.96h5.72v-2.6h-5.72v-3.41h6.38V-15.18Z" transform="translate(-1.034 15.378)" fill="#fff"/></svg>