<svg xmlns="http://www.w3.org/2000/svg" width="360.248" height="39.648" viewBox="0 0 360.248 39.648"><path d="M12.208-38.64H4.368V0h7.84Zm32.032,0v24.248L29.12-38.64h-6.5V0h7.448V-23.912L45.136,0h6.552V-38.64Zm17.36,0V0h7.84V-15.792H84V-22.4H69.44v-9.576H85.68V-38.64Zm59.864,22.064v-5.488c0-11.928-6.1-17.08-14.84-17.08-8.68,0-14.784,5.152-14.784,17.08v5.488C91.84-4.76,97.944.5,106.624.5,115.36.5,121.464-4.76,121.464-16.576ZM99.68-22.064c0-7.392,2.408-10.472,6.944-10.472s7,3.08,7,10.472v5.488c0,7.392-2.464,10.472-7,10.472S99.68-9.184,99.68-16.576ZM159.824,0l-8.008-16.464c4.2-1.736,6.608-5.152,6.608-10.36,0-7.84-5.544-11.816-14.448-11.816H130.144V0h7.84V-15.176h6.272L151.2,0Zm-21.84-21.784V-31.976h5.264c4.648,0,7.336,1.12,7.336,5.152s-2.688,5.04-7.336,5.04ZM174.272-38.64h-7.336V0h7.448V-23.8l8.288,16.856h4.76l8.4-17.024V0h7.5V-38.64h-7.448L185.136-17.584ZM217.56,0l2.352-7.336h12.936L235.2,0h8.344L230.1-38.64h-7.5L209.16,0Zm8.792-27.552,4.368,13.608h-8.736Zm17.64-11.088v6.664h10.64V0h7.84V-31.976h10.64V-38.64Zm44.016,0h-7.84V0h7.84Zm38.864,22.064v-5.488c0-11.928-6.1-17.08-14.84-17.08-8.68,0-14.784,5.152-14.784,17.08v5.488c0,11.816,6.1,17.08,14.784,17.08C320.768.5,326.872-4.76,326.872-16.576Zm-21.784-5.488c0-7.392,2.408-10.472,6.944-10.472s7,3.08,7,10.472v5.488c0,7.392-2.464,10.472-7,10.472s-6.944-3.08-6.944-10.472Zm52.08-16.576v24.248L342.048-38.64h-6.5V0H343V-23.912L358.064,0h6.552V-38.64Z" transform="translate(-4.368 39.144)" fill="#313031"/></svg>