<svg height="14.556" viewBox="0 0 14.556 14.556" width="14.556" xmlns="http://www.w3.org/2000/svg"><g fill="#fff" transform="translate(-1141.173 -822.754)"><path d="m1151.181 822.754h-5.459a4.549 4.549 0 0 0 -4.549 4.548v5.459a4.549 4.549 0 0 0 4.549 4.549h5.459a4.549 4.549 0 0 0 4.548-4.549v-5.461a4.548 4.548 0 0 0 -4.548-4.546zm-.035 13.156h-5.389a3.184 3.184 0 0 1 -3.184-3.184v-5.389a3.185 3.185 0 0 1 3.184-3.184h5.389a3.185 3.185 0 0 1 3.184 3.184v5.389a3.184 3.184 0 0 1 -3.184 3.184z"/><path d="m1148.451 826.393a3.639 3.639 0 1 0 3.639 3.639 3.639 3.639 0 0 0 -3.639-3.639zm0 5.913a2.275 2.275 0 1 1 2.275-2.274 2.278 2.278 0 0 1 -2.275 2.274z"/><path d="m1152.363 825.635a.485.485 0 1 1 -.485.485.485.485 0 0 1 .485-.485z"/></g></svg>