<svg height="16.776" viewBox="0 0 90.336 16.776" width="90.336" xmlns="http://www.w3.org/2000/svg"><path d="m4.992-16.56h-3.36v16.56h10.32v-2.832h-6.96zm13.776 0h-3.36v16.56h3.36zm14.208 0v10.392l-6.476-10.392h-2.788v16.56h3.188v-10.248l6.46 10.248h2.808v-16.56zm7.92 0v16.56h10.32v-2.832h-6.96v-4.32h6.244v-2.832h-6.24v-3.716h6.96v-2.86zm30.888 0v9.86c0 2.832-.936 4.08-3 4.08s-3-1.248-3-4.08v-9.86h-3.36v9.86c0 4.872 2.688 6.912 6.36 6.912s6.36-2.04 6.36-6.936v-9.84zm13.992 10.728c3.84 0 6.192-1.92 6.192-5.424 0-3.552-2.376-5.3-6.192-5.3h-5.928v16.556h3.36v-5.832zm-2.568-2.832v-5.036h2.092c2.328 0 3.312.864 3.312 2.448 0 1.776-.984 2.592-3.312 2.592z" fill="#fff" transform="translate(-1.632 16.56)"/></svg>