<svg xmlns="http://www.w3.org/2000/svg" width="283.302" height="29.236" viewBox="0 0 283.302 29.236"><g transform="translate(-62.527 -40.811)"><path d="M62.527,41.158H76.111v4.084H71.516v24.5H67.122v-24.5H62.527Z" transform="translate(0 -0.019)" fill="#fff"/><path d="M79.658,48c0-4.575,2.357-7.188,6.672-7.188S93,43.424,93,48v14.86c0,4.574-2.357,7.187-6.673,7.187s-6.672-2.613-6.672-7.187Zm4.4,15.147c0,2.041.879,2.817,2.277,2.817s2.278-.776,2.278-2.817V47.712c0-2.042-.879-2.817-2.278-2.817s-2.277.775-2.277,2.817Z" transform="translate(-0.942 0)" fill="#fff"/><path d="M110.738,69.738H106.3l-.759-5.186H100.15l-.759,5.186H95.356l4.475-28.58h6.433ZM100.71,60.672h4.236l-2.078-14.452h-.079Z" transform="translate(-1.804 -0.019)" fill="#fff"/><path d="M114.774,41.158h4.394v24.5H126.4v4.084H114.774Z" transform="translate(-2.871 -0.019)" fill="#fff"/><path d="M150.6,59.063v3.8c0,4.574-2.237,7.187-6.552,7.187s-6.553-2.613-6.553-7.187V48c0-4.575,2.238-7.188,6.553-7.188S150.6,43.424,150.6,48v2.773h-4.155v-3.06c0-2.042-.879-2.817-2.277-2.817s-2.278.775-2.278,2.817V63.146c0,2.041.879,2.777,2.278,2.777s2.277-.735,2.277-2.777V59.063Z" transform="translate(-4.12 0)" fill="#fff"/><path d="M168.908,69.738h-4.435l-.759-5.186H158.32l-.759,5.186h-4.035L158,41.158h6.433ZM158.88,60.672h4.236l-2.078-14.452h-.079Z" transform="translate(-5.001 -0.019)" fill="#fff"/><path d="M182.588,61.451h.079l2.957-20.293h6.113v28.58h-4.155v-20.5H187.5l-2.957,20.5h-4.155l-3.2-20.21h-.08v20.21h-3.835V41.158h6.113Z" transform="translate(-6.087 -0.019)" fill="#fff"/><path d="M209.151,48.222v3.716c0,4.57-2.158,7.059-6.553,7.059H200.52v10.74h-4.4V41.158H202.6C206.993,41.158,209.151,43.647,209.151,48.222Zm-8.63-2.981v9.677H202.6c1.4,0,2.158-.656,2.158-2.7V47.934c0-2.041-.759-2.692-2.158-2.692Z" transform="translate(-7.343 -0.019)" fill="#fff"/><path d="M216.81,53.2h6.033v4.084H216.81v8.37H224.4v4.084H212.415V41.158H224.4v4.084H216.81Z" transform="translate(-8.238 -0.019)" fill="#fff"/><path d="M238.36,69.738a8.958,8.958,0,0,1-.4-3.512V61.734c0-2.653-.879-3.632-2.877-3.632h-1.519V69.738H229.17V41.158H235.8c4.555,0,6.512,2.161,6.512,6.573v2.245c0,2.941-.919,4.819-2.877,5.757v.08c2.2.938,2.917,3.065,2.917,6.045v4.407a8.6,8.6,0,0,0,.479,3.472Zm-4.794-24.5v8.778h1.718c1.639,0,2.638-.734,2.638-3.02V48.178c0-2.037-.679-2.936-2.238-2.936Z" transform="translate(-9.159 -0.019)" fill="#fff"/><path d="M261.274,40.811c4.274,0,6.473,2.613,6.473,7.188v.895h-4.155V47.712c0-2.042-.8-2.817-2.2-2.817s-2.2.775-2.2,2.817c0,2.082.879,3.636,3.756,6.205,3.676,3.308,4.835,5.677,4.835,8.942,0,4.575-2.238,7.188-6.553,7.188s-6.552-2.613-6.552-7.188V61.1h4.155v2.041c0,2.041.879,2.777,2.278,2.777s2.277-.735,2.277-2.777c0-2.082-.879-3.636-3.756-6.205C255.96,53.633,254.8,51.263,254.8,48,254.8,43.424,257,40.811,261.274,40.811Z" transform="translate(-10.561 0)" fill="#fff"/><path d="M276.719,53.2h6.033v4.084h-6.033v8.37h7.591v4.084H272.324V41.158H284.31v4.084h-7.591Z" transform="translate(-11.53 -0.019)" fill="#fff"/><path d="M298.18,69.738a8.959,8.959,0,0,1-.4-3.512V61.734c0-2.653-.879-3.632-2.877-3.632h-1.519V69.738H288.99V41.158h6.632c4.555,0,6.512,2.161,6.512,6.573v2.245c0,2.941-.919,4.819-2.877,5.757v.08c2.2.938,2.917,3.065,2.917,6.045v4.407a8.594,8.594,0,0,0,.479,3.472Zm-4.8-24.5v8.778H295.1c1.639,0,2.638-.734,2.638-3.02V48.178c0-2.037-.68-2.936-2.238-2.936Z" transform="translate(-12.446 -0.019)" fill="#fff"/><path d="M312.485,64.472h.08l3.316-23.314h4.035L315.6,69.738h-6.553l-4.315-28.58h4.435Z" transform="translate(-13.312 -0.019)" fill="#fff"/><path d="M323.81,41.158h4.4v28.58h-4.4Z" transform="translate(-14.36 -0.019)" fill="#fff"/><path d="M344.445,59.063v3.8c0,4.575-2.237,7.188-6.552,7.188s-6.553-2.613-6.553-7.188V48c0-4.575,2.238-7.188,6.553-7.188s6.552,2.613,6.552,7.188v2.773H340.29v-3.06c0-2.042-.879-2.817-2.277-2.817s-2.278.775-2.278,2.817V63.146c0,2.041.879,2.777,2.278,2.777s2.277-.735,2.277-2.777V59.063Z" transform="translate(-14.774 0)" fill="#fff"/><path d="M354.016,53.2h6.033v4.084h-6.033v8.37h7.591v4.084H349.621V41.158h11.987v4.084h-7.591Z" transform="translate(-15.779 -0.019)" fill="#fff"/></g></svg>