<svg height="30.936" viewBox="0 0 299.778 30.936" width="299.778" xmlns="http://www.w3.org/2000/svg"><g fill="#fff" transform="translate(-62.527 -40.811)"><path d="m62.527 41.158h14.373v4.321h-4.861v25.921h-4.65v-25.921h-4.862z"/><path d="m79.658 48.417c0-4.841 2.494-7.606 7.06-7.606s7.061 2.765 7.061 7.606v15.724c0 4.84-2.494 7.605-7.061 7.605s-7.06-2.765-7.06-7.605zm4.651 16.028c0 2.16.93 2.981 2.409 2.981s2.41-.821 2.41-2.981v-16.332c0-2.161-.93-2.981-2.41-2.981s-2.409.82-2.409 2.981z"/><path d="m111.633 71.4h-4.693l-.8-5.488h-5.708l-.8 5.488h-4.27l4.735-30.242h6.803zm-10.612-9.593h4.479l-2.2-15.292h-.084z"/><path d="m114.774 41.158h4.65v25.921h7.653v4.321h-12.3z"/><path d="m151.361 60.124v4.017c0 4.84-2.367 7.605-6.933 7.605s-6.934-2.765-6.934-7.605v-15.724c0-4.841 2.368-7.606 6.934-7.606s6.933 2.765 6.933 7.606v2.934h-4.4v-3.238c0-2.161-.93-2.981-2.409-2.981s-2.41.82-2.41 2.981v16.332c0 2.16.93 2.938 2.41 2.938s2.409-.778 2.409-2.938v-4.321z"/><path d="m169.8 71.4h-4.69l-.8-5.488h-5.71l-.8 5.488h-4.27l4.735-30.242h6.807zm-10.612-9.593h4.482l-2.2-15.292h-.084z"/><path d="m183.129 62.631h.084l3.129-21.473h6.468v30.242h-4.4v-21.689h-.084l-3.126 21.689h-4.4l-3.382-21.385h-.085v21.385h-4.058v-30.242h6.468z"/><path d="m209.908 48.633v3.932c0 4.836-2.283 7.47-6.934 7.47h-2.2v11.365h-4.651v-30.242h6.849c4.653 0 6.936 2.634 6.936 7.475zm-9.132-3.154v10.24h2.2c1.48 0 2.283-.694 2.283-2.854v-4.537c0-2.16-.8-2.849-2.283-2.849z"/><path d="m217.066 53.9h6.384v4.321h-6.384v8.857h8.034v4.322h-12.685v-30.242h12.685v4.321h-8.032z"/><path d="m238.894 71.4a9.479 9.479 0 0 1 -.423-3.716v-4.753c0-2.807-.93-3.843-3.044-3.843h-1.607v12.312h-4.65v-30.242h7.018c4.82 0 6.891 2.287 6.891 6.955v2.376c0 3.112-.972 5.1-3.044 6.092v.085c2.326.993 3.087 3.243 3.087 6.4v4.663a9.094 9.094 0 0 0 .507 3.674zm-5.073-25.921v9.288h1.818c1.734 0 2.791-.777 2.791-3.2v-2.981c0-2.156-.719-3.107-2.368-3.107z"/><path d="m261.657 40.811c4.523 0 6.849 2.765 6.849 7.606v.947h-4.4v-1.251c0-2.161-.846-2.981-2.326-2.981s-2.325.82-2.325 2.981c0 2.2.93 3.847 3.974 6.566 3.89 3.5 5.116 6.007 5.116 9.462 0 4.841-2.368 7.606-6.934 7.606s-6.933-2.765-6.933-7.606v-1.856h4.4v2.16c0 2.16.93 2.938 2.41 2.938s2.409-.778 2.409-2.938c0-2.2-.93-3.847-3.974-6.566-3.889-3.5-5.115-6.008-5.115-9.462 0-4.841 2.325-7.606 6.849-7.606z"/><path d="m276.974 53.9h6.384v4.321h-6.384v8.857h8.033v4.322h-12.683v-30.242h12.683v4.321h-8.033z"/><path d="m298.714 71.4a9.479 9.479 0 0 1 -.423-3.716v-4.753c0-2.807-.93-3.843-3.044-3.843h-1.607v12.312h-4.65v-30.242h7.018c4.82 0 6.891 2.287 6.891 6.955v2.376c0 3.112-.972 5.1-3.044 6.092v.085c2.326.993 3.087 3.243 3.087 6.4v4.663a9.094 9.094 0 0 0 .507 3.674zm-5.074-25.921v9.288h1.818c1.734 0 2.791-.777 2.791-3.2v-2.981c0-2.156-.719-3.107-2.368-3.107z"/><path d="m312.936 65.828h.085l3.509-24.67h4.27l-4.566 30.242h-6.934l-4.566-30.242h4.693z"/><path d="m323.81 41.158h4.651v30.242h-4.651z"/><path d="m345.207 60.124v4.017c0 4.841-2.367 7.606-6.933 7.606s-6.934-2.765-6.934-7.606v-15.724c0-4.841 2.368-7.606 6.934-7.606s6.933 2.765 6.933 7.606v2.934h-4.4v-3.238c0-2.161-.93-2.981-2.409-2.981s-2.41.82-2.41 2.981v16.332c0 2.16.93 2.938 2.41 2.938s2.409-.778 2.409-2.938v-4.321z"/><path d="m354.272 53.9h6.384v4.321h-6.384v8.857h8.028v4.322h-12.679v-30.242h12.679v4.321h-8.033z"/></g></svg>