<svg xmlns="http://www.w3.org/2000/svg" width="45.684" height="12.744" viewBox="0 0 45.684 12.744"><path d="M3.348-12.42H1.368V0H3.384V-8.262l2.79,5.868H7.65l2.844-5.922V0H12.51V-12.42h-2L6.93-5.22Zm21.42,7V-7c0-3.906-1.872-5.58-4.662-5.58-2.772,0-4.644,1.674-4.644,5.58v1.584c0,3.906,1.872,5.58,4.644,5.58C22.9.162,24.768-1.512,24.768-5.418ZM17.55-7c0-2.682.9-3.762,2.556-3.762S22.68-9.684,22.68-7v1.584c0,2.682-.918,3.762-2.574,3.762S17.55-2.736,17.55-5.418ZM36.918,0,34.272-5.382a3.243,3.243,0,0,0,2.25-3.33c0-2.466-1.71-3.708-4.572-3.708H27.72V0h2.088V-5.04H32.22L34.614,0Zm-7.11-6.84V-10.6h2c1.764,0,2.628.486,2.628,1.89S33.57-6.84,31.806-6.84Zm9.63-5.58V0h7.614V-1.8H41.526V-5.526h4.986v-1.8H41.526V-10.6h5.526V-12.42Z" transform="translate(-1.368 12.582)" fill="#313031"/></svg>