<svg xmlns="http://www.w3.org/2000/svg" width="43.538" height="16.236" viewBox="0 0 43.538 16.236"><path d="M12.672-6.512V-8.668c0-4.686-2.4-6.71-5.83-6.71-3.41,0-5.808,2.024-5.808,6.71v2.156C1.034-1.87,3.432.2,6.842.2A5.831,5.831,0,0,0,10.428-.88L12.474.858,14.1-1.078l-2.112-1.8A8.686,8.686,0,0,0,12.672-6.512ZM4.114-8.668c0-2.9.946-4.114,2.728-4.114s2.75,1.21,2.75,4.114v2.156a9.827,9.827,0,0,1-.11,1.474l-1.3-1.144L6.512-4.224,8.228-2.75A2.548,2.548,0,0,1,6.842-2.4c-1.782,0-2.728-1.21-2.728-4.114ZM15.95-4.026C15.95-1.87,17.8.2,21.186.2a7.326,7.326,0,0,0,4.07-1.1l.836.9h3.542L27.1-2.794a8.054,8.054,0,0,0,1.188-4.29h-2.9a6.553,6.553,0,0,1-.308,2.046l-2.9-3.234c1.584-1.166,3.146-2.4,3.146-4.092,0-1.562-1.364-3.014-4.114-3.014-2.4,0-4.158,1.364-4.158,3.454a5.4,5.4,0,0,0,1.452,3.5A5.554,5.554,0,0,0,15.95-4.026ZM21.318-2.4a2.1,2.1,0,0,1-2.376-2.068A3.059,3.059,0,0,1,20.086-6.6l3.366,3.7A4.253,4.253,0,0,1,21.318-2.4Zm-1.342-9.526a1.191,1.191,0,0,1,1.276-1.32c.836,0,1.3.506,1.3,1.056,0,.836-.792,1.5-1.8,2.2A3.54,3.54,0,0,1,19.976-11.924ZM34.364,0l.924-2.882H40.37L41.294,0h3.278l-5.28-15.18H36.344L31.064,0Zm3.454-10.824,1.716,5.346H36.1Z" transform="translate(-1.034 15.378)" fill="#fff"/></svg>