<svg height="17.712" viewBox="0 0 47.496 17.712" width="47.496" xmlns="http://www.w3.org/2000/svg"><path d="m13.824-7.1v-2.356c0-5.112-2.616-7.32-6.36-7.32-3.72 0-6.336 2.208-6.336 7.32v2.356c0 5.064 2.616 7.32 6.336 7.32a6.361 6.361 0 0 0 3.912-1.18l2.232 1.9 1.776-2.112-2.3-1.968a9.475 9.475 0 0 0 .74-3.96zm-9.336-2.356c0-3.168 1.032-4.488 2.976-4.488s3 1.32 3 4.488v2.356a10.72 10.72 0 0 1 -.12 1.608l-1.416-1.252-1.828 2.136 1.876 1.608a2.779 2.779 0 0 1 -1.512.384c-1.944 0-2.976-1.32-2.976-4.488zm12.912 5.064c0 2.352 2.016 4.608 5.712 4.608a7.992 7.992 0 0 0 4.44-1.2l.912.984h3.864l-2.76-3.048a8.786 8.786 0 0 0 1.3-4.68h-3.168a7.148 7.148 0 0 1 -.34 2.228l-3.168-3.524c1.728-1.272 3.432-2.616 3.432-4.464 0-1.7-1.488-3.288-4.488-3.288-2.616 0-4.536 1.488-4.536 3.768a5.892 5.892 0 0 0 1.584 3.816c-1.484 1.176-2.784 2.616-2.784 4.8zm5.856 1.776a2.3 2.3 0 0 1 -2.592-2.256 3.337 3.337 0 0 1 1.248-2.328l3.672 4.032a4.64 4.64 0 0 1 -2.328.552zm-1.464-10.392a1.3 1.3 0 0 1 1.392-1.44c.912 0 1.416.552 1.416 1.152 0 .912-.864 1.632-1.968 2.4a3.861 3.861 0 0 1 -.84-2.112zm15.696 13.008 1.012-3.144h5.54l1.008 3.144h3.576l-5.76-16.56h-3.216l-5.76 16.56zm3.768-11.808 1.872 5.832h-3.744z" fill="#fff" transform="translate(-1.128 16.776)"/></svg>