<svg xmlns="http://www.w3.org/2000/svg" width="387.255" height="185.343" viewBox="0 0 387.255 185.343">
  <g id="Group_901" data-name="Group 901" transform="translate(-154 -308.352)">
    <path id="Path_2776" data-name="Path 2776" d="M1.016-21.4H30.393l.279,8.836H29.428q-.914-4.164-2.323-5.421t-5.929-1.257H18.281V7.363q0,3.021.939,3.745t4.113.952V13H8.176v-.939q3.3-.254,4.113-1.092T13.1,6.754v-26H10.207q-4.316,0-5.878,1.244T1.98-12.568H.711ZM33.781,12.289a4.445,4.445,0,0,0,2.729-1.028q.647-.749.647-3.542V-16.656a4.544,4.544,0,0,0-.368-2.095q-.368-.673-1.79-.673a3.856,3.856,0,0,0-.546.038q-.267.038-.6.089v-.914q1.117-.33,2.755-.8t2.272-.673l2.438-.762.051.178v15.59a16.621,16.621,0,0,1,2.844-2.691,8.4,8.4,0,0,1,4.824-1.523,5.569,5.569,0,0,1,5.611,3.453,11.945,11.945,0,0,1,.813,4.8V7.719q0,2.691.622,3.5a3.766,3.766,0,0,0,2.555,1.07V13H47.644v-.711a4.741,4.741,0,0,0,2.844-1.041q.635-.736.635-3.529V-2.564A8.354,8.354,0,0,0,50.3-6.55a3.213,3.213,0,0,0-3.11-1.523,6.23,6.23,0,0,0-3.834,1.422Q41.5-5.23,41.5-4.8V7.719q0,2.844.66,3.555a4.936,4.936,0,0,0,2.818,1.015V13h-11.2ZM65.149-19.779a2.608,2.608,0,0,1,.762-1.879,2.511,2.511,0,0,1,1.879-.787,2.544,2.544,0,0,1,1.866.774,2.573,2.573,0,0,1,.774,1.892,2.544,2.544,0,0,1-.774,1.866,2.544,2.544,0,0,1-1.866.774,2.532,2.532,0,0,1-1.879-.774,2.565,2.565,0,0,1-.762-1.866ZM61.9,12.289q2.717-.254,3.428-.927t.711-3.644V-4.393a7.7,7.7,0,0,0-.229-2.285,1.535,1.535,0,0,0-1.6-1.041,2.911,2.911,0,0,0-.546.051q-.267.051-1.536.406v-.787L63.22-8.4q4.443-1.447,6.2-2.184a3.307,3.307,0,0,1,.914-.3,1.381,1.381,0,0,1,.051.381V7.727q0,2.9.7,3.631t3.161.939V13H61.9ZM79.582,5h.838a13.263,13.263,0,0,0,1.574,4.443A5.762,5.762,0,0,0,87.2,12.289a4.179,4.179,0,0,0,3.009-1.054,3.6,3.6,0,0,0,1.1-2.729,3.759,3.759,0,0,0-.635-2.057,6.509,6.509,0,0,0-2.234-1.93L85.6,2.9A16.211,16.211,0,0,1,81-.482a5.933,5.933,0,0,1-1.473-4.012,6,6,0,0,1,2.031-4.672,7.343,7.343,0,0,1,5.1-1.828,9.914,9.914,0,0,1,2.958.508,13.706,13.706,0,0,0,1.815.508,1.3,1.3,0,0,0,.66-.127,1.063,1.063,0,0,0,.355-.406h.609l.178,7.084h-.787a11.746,11.746,0,0,0-1.371-3.834A5.039,5.039,0,0,0,86.539-9.8a3.627,3.627,0,0,0-2.793,1.092A3.643,3.643,0,0,0,82.73-6.144q0,2.336,3.5,4.164l3.352,1.8Q94.99,2.765,94.99,6.675a6.13,6.13,0,0,1-2.247,4.9,8.781,8.781,0,0,1-5.878,1.9,13.732,13.732,0,0,1-3.453-.508,15.592,15.592,0,0,0-2.285-.508.752.752,0,0,0-.533.216,1.5,1.5,0,0,0-.351.525h-.66ZM137.419-9.8a8.183,8.183,0,0,0-2.26.508,1.3,1.3,0,0,0-.736,1.32,3.973,3.973,0,0,0,.165,1.1q.165.571.444,1.333l4.621,12.061,4.52-11.02a19.31,19.31,0,0,0,.66-1.866,6.556,6.556,0,0,0,.355-1.739,1.329,1.329,0,0,0-.584-1.27,4.9,4.9,0,0,0-1.7-.482v-.736h6.449v.736a1.776,1.776,0,0,0-1.041.609,10.349,10.349,0,0,0-1.143,2.285l-8.125,20.037a1.81,1.81,0,0,1-.178.33.267.267,0,0,1-.229.1.848.848,0,0,1-.355-.254L132.544-.941,125.866,13.2a.634.634,0,0,1-.14.216.294.294,0,0,1-.216.089.848.848,0,0,1-.355-.254L117.563-5.462a24.621,24.621,0,0,0-1.65-3.618,2.362,2.362,0,0,0-1.6-.724v-.787h9.4V-9.8a5.008,5.008,0,0,0-1.79.419,1.377,1.377,0,0,0-.622,1.358,15.627,15.627,0,0,0,1.041,3.605q.609,1.65,1.549,4.012L126.78,6.8,131.35-3l.051-.3a6.484,6.484,0,0,0-.546-1.892q-.546-1.384-1.054-2.476a3.689,3.689,0,0,0-1.155-1.587,3.777,3.777,0,0,0-1.815-.546v-.787h10.588ZM153.68,1.22a12.156,12.156,0,0,1,3.212-8.544,10.723,10.723,0,0,1,8.265-3.491,11.29,11.29,0,0,1,8.328,3.3,11.874,11.874,0,0,1,3.3,8.785,13.071,13.071,0,0,1-3.2,8.785,10.4,10.4,0,0,1-8.276,3.732,10.91,10.91,0,0,1-8.252-3.58,12.585,12.585,0,0,1-3.377-8.988ZM164.446-9.292a5.04,5.04,0,0,0-3.479,1.32Q158.428-5.661,158.428,0a17.927,17.927,0,0,0,2.044,8.43q2.044,3.91,5.675,3.91a4.825,4.825,0,0,0,4.38-2.615,13.439,13.439,0,0,0,1.536-6.855,18.162,18.162,0,0,0-1.955-8.277q-1.955-3.887-5.662-3.887Zm15.7,21.455a6.146,6.146,0,0,0,3.1-.825q.762-.622.762-2.653V-2.768a9.8,9.8,0,0,0-.47-3.593,1.712,1.712,0,0,0-1.714-1.079,4.718,4.718,0,0,0-.673.063q-.419.063-.876.165V-8.05l2.971-1.041q1.523-.533,2.107-.762,1.27-.482,2.615-1.092.178,0,.216.127a2.312,2.312,0,0,1,.038.533v4.164a19.4,19.4,0,0,1,3.136-3.529,4.831,4.831,0,0,1,3.136-1.27,2.929,2.929,0,0,1,2.107.774,2.571,2.571,0,0,1,.813,1.942,2.566,2.566,0,0,1-.622,1.752,1.988,1.988,0,0,1-1.562.711,2.921,2.921,0,0,1-1.942-.889,2.746,2.746,0,0,0-1.536-.889q-.889,0-2.184,1.435a4.4,4.4,0,0,0-1.3,2.958V8.328a3.793,3.793,0,0,0,1.016,3.034,5.1,5.1,0,0,0,3.377.8V13H180.149Zm19.714.127a6.011,6.011,0,0,0,3.2-.952,3.679,3.679,0,0,0,.838-2.831V-16.3a6.478,6.478,0,0,0-.279-2.311,2.047,2.047,0,0,0-2.057-1.066,4.35,4.35,0,0,0-.774.076q-.419.076-1.054.229v-.838q3.428-.914,8.252-2.437a.2.2,0,0,1,.216.152,3.481,3.481,0,0,1,.038.66V8.607q0,2.209.762,2.856a5.929,5.929,0,0,0,3.148.825V13H199.863Zm27.255-23.283a7.211,7.211,0,0,1,3.4.813,8.124,8.124,0,0,1,1.955,1.473v-8.074a4.609,4.609,0,0,0-.343-2.133q-.343-.584-1.638-.584a4.9,4.9,0,0,0-.533.025q-.229.025-1.016.1v-.838l2.082-.533q1.143-.3,2.285-.635t2.006-.635q.406-.127,1.346-.482l.152.051-.051,2.666q-.025,1.447-.051,2.983t-.025,3.034L236.64,6.982a4.712,4.712,0,0,0,.406,2.311q.406.66,2.158.66.279,0,.559-.013a4.181,4.181,0,0,0,.559-.063v.838l-3.682,1.27-3.986,1.5-.178-.229V10.131a13.254,13.254,0,0,1-2.463,2.209,8.01,8.01,0,0,1-4.291,1.142,8.543,8.543,0,0,1-7-3.339,12,12,0,0,1-2.679-7.731,14.514,14.514,0,0,1,3.212-9.458,9.784,9.784,0,0,1,7.863-3.948Zm.939,21.734a4.431,4.431,0,0,0,3.2-1.168,3.234,3.234,0,0,0,1.219-2.209V-3.529q0-3.3-1.765-4.659a5.679,5.679,0,0,0-3.44-1.358,5.575,5.575,0,0,0-4.977,2.831,12.863,12.863,0,0,0-1.777,6.97,14.044,14.044,0,0,0,1.892,7.287,6.154,6.154,0,0,0,5.652,3.2Zm33.132-30.52a2.608,2.608,0,0,1,.762-1.879,2.511,2.511,0,0,1,1.879-.787,2.544,2.544,0,0,1,1.866.774,2.573,2.573,0,0,1,.774,1.892,2.544,2.544,0,0,1-.774,1.866,2.544,2.544,0,0,1-1.866.774,2.532,2.532,0,0,1-1.879-.774,2.565,2.565,0,0,1-.759-1.866Zm-3.247,32.068q2.717-.254,3.428-.927t.711-3.644V-4.393a7.7,7.7,0,0,0-.229-2.285,1.535,1.535,0,0,0-1.6-1.041,2.911,2.911,0,0,0-.546.051q-.267.051-1.536.406v-.787l1.092-.355q4.443-1.447,6.2-2.184a3.307,3.307,0,0,1,.914-.3,1.382,1.382,0,0,1,.051.381V7.723q0,2.9.7,3.631t3.161.939V13h-12.34ZM275.622,5h.838a13.262,13.262,0,0,0,1.574,4.443,5.762,5.762,0,0,0,5.206,2.846,4.179,4.179,0,0,0,3.009-1.054,3.6,3.6,0,0,0,1.1-2.729,3.759,3.759,0,0,0-.635-2.057,6.509,6.509,0,0,0-2.234-1.93l-2.844-1.625a16.211,16.211,0,0,1-4.6-3.377A5.933,5.933,0,0,1,275.563-4.5a6,6,0,0,1,2.031-4.672,7.343,7.343,0,0,1,5.1-1.828,9.914,9.914,0,0,1,2.958.508,13.706,13.706,0,0,0,1.815.508,1.3,1.3,0,0,0,.66-.127,1.063,1.063,0,0,0,.355-.406h.609l.178,7.084H288.5a11.744,11.744,0,0,0-1.371-3.834A5.039,5.039,0,0,0,282.584-9.8a3.627,3.627,0,0,0-2.793,1.092,3.643,3.643,0,0,0-1.016,2.564q0,2.336,3.5,4.164l3.352,1.8q5.408,2.945,5.408,6.855a6.13,6.13,0,0,1-2.247,4.9,8.781,8.781,0,0,1-5.878,1.9,13.732,13.732,0,0,1-3.453-.508,15.593,15.593,0,0,0-2.285-.508.752.752,0,0,0-.533.216,1.5,1.5,0,0,0-.355.521h-.66Zm33.843-24.3v-.863a47.807,47.807,0,0,0,5.2-1.473,25.182,25.182,0,0,1,2.488-.812.959.959,0,0,1,.051.3V-6.685A7.98,7.98,0,0,1,319.189-9a8.274,8.274,0,0,1,5.383-1.9,8.049,8.049,0,0,1,6.373,3.148A12.293,12.293,0,0,1,333.586.428a13.351,13.351,0,0,1-3.428,9.217,11.511,11.511,0,0,1-9.013,3.837,14.434,14.434,0,0,1-5.535-1.117q-2.717-1.117-2.717-2.234V-16.707a4.006,4.006,0,0,0-.406-2.095q-.406-.622-1.879-.622Zm7.643,28.59a2.53,2.53,0,0,0,1.98,1.892,10.1,10.1,0,0,0,3.072.571,5.826,5.826,0,0,0,5.269-2.666,11.675,11.675,0,0,0,1.714-6.449,15.472,15.472,0,0,0-1.6-7,5.394,5.394,0,0,0-5.18-3.212,6.477,6.477,0,0,0-3.529,1.1,3.257,3.257,0,0,0-1.727,2.806ZM344.9-10.51V5.74a6.655,6.655,0,0,0,.482,2.768,3.489,3.489,0,0,0,3.453,1.93A5.871,5.871,0,0,0,352.209,9.3a9.907,9.907,0,0,0,1.9-1.752V-6.373a3.235,3.235,0,0,0-.762-2.564,5.773,5.773,0,0,0-3.047-.736v-.838h8.2V7.363a3.445,3.445,0,0,0,.622,2.374,3.571,3.571,0,0,0,2.628.571v.711q-1.4.381-2.057.571t-2.209.7q-.66.229-2.895,1.092a.138.138,0,0,1-.152-.114,1.236,1.236,0,0,1-.019-.268V8.912a17.175,17.175,0,0,1-3.148,3.047,7.793,7.793,0,0,1-4.57,1.523,6.53,6.53,0,0,1-4.164-1.574q-1.98-1.549-1.98-5.205V-6.475a3.36,3.36,0,0,0-.863-2.717A5.191,5.191,0,0,0,337.3-9.8v-.711Zm32.74.1v1.828h-5.18l-.051,14.625a9.786,9.786,0,0,0,.33,2.92,2.346,2.346,0,0,0,2.387,1.752,2.875,2.875,0,0,0,1.587-.432,8.329,8.329,0,0,0,1.536-1.371l.66.559-.559.762a8.124,8.124,0,0,1-2.793,2.514,6.349,6.349,0,0,1-2.844.736,4,4,0,0,1-4.062-2.666,11.041,11.041,0,0,1-.584-4.012V-8.582H365.3a.748.748,0,0,1-.19-.152.307.307,0,0,1-.063-.2.606.606,0,0,1,.114-.394,7.616,7.616,0,0,1,.724-.647,21.86,21.86,0,0,0,2.526-2.349q.774-.9,3.644-4.761a.847.847,0,0,1,.394.051q.063.051.063.381v6.246ZM14.9,46.934a23.248,23.248,0,0,0-4.824,2.133Q6.424,51.326,6.424,54.2a3.9,3.9,0,0,0,1.523,3.4,3.7,3.7,0,0,0,2.209.711,6.067,6.067,0,0,0,3.212-.939,2.756,2.756,0,0,0,1.532-2.39Zm-13,9.014q0-3.682,3.682-6.145A55.549,55.549,0,0,1,14.9,45.664V43.506a8.891,8.891,0,0,0-.5-3.606q-.863-1.7-3.58-1.7a4.932,4.932,0,0,0-2.463.66,2.1,2.1,0,0,0-1.168,1.879,6.888,6.888,0,0,0,.127,1.028,7.3,7.3,0,0,1,.127.927,2.111,2.111,0,0,1-.939,1.98A2.364,2.364,0,0,1,5.23,45a2.128,2.128,0,0,1-1.752-.749,2.572,2.572,0,0,1-.609-1.663q0-1.777,2.2-3.72T11.5,36.93q4.926,0,6.678,3.2a11.05,11.05,0,0,1,.939,5.1V55.414a6.813,6.813,0,0,0,.2,2.031,1.326,1.326,0,0,0,1.371.99,2.285,2.285,0,0,0,.965-.178,9.861,9.861,0,0,0,1.32-.863v1.32a8.264,8.264,0,0,1-1.752,1.625,5.105,5.105,0,0,1-2.895.965,2.826,2.826,0,0,1-2.5-1.117,5.01,5.01,0,0,1-.851-2.666,23.911,23.911,0,0,1-3.3,2.488A8.65,8.65,0,0,1,7.282,61.38,5.279,5.279,0,0,1,3.5,59.845a5.172,5.172,0,0,1-1.6-3.9ZM52.12,37.057a9.18,9.18,0,0,1,5.48,1.637q2.3,1.638,2.3,3.593a2.439,2.439,0,0,1-.584,1.562,2.179,2.179,0,0,1-1.8.724,2.255,2.255,0,0,1-1.562-.609,3.531,3.531,0,0,1-.978-1.777l-.3-1.219a3.089,3.089,0,0,0-1.143-1.9,4.064,4.064,0,0,0-2.209-.533,6.021,6.021,0,0,0-4.888,2.526,10.538,10.538,0,0,0-1.993,6.716,11.479,11.479,0,0,0,2.2,6.881A6.938,6.938,0,0,0,52.556,57.7a7.1,7.1,0,0,0,4.7-1.727A16.107,16.107,0,0,0,59.9,52.825l.711.432a20.128,20.128,0,0,1-3.047,4.824,9.335,9.335,0,0,1-7.109,3.4,9.523,9.523,0,0,1-7.008-3.123,11.623,11.623,0,0,1-3.047-8.48A13.23,13.23,0,0,1,43.72,40.84a10.709,10.709,0,0,1,8.4-3.783Zm26.621,9.877a23.248,23.248,0,0,0-4.824,2.133q-3.656,2.26-3.656,5.129a3.9,3.9,0,0,0,1.523,3.4A3.7,3.7,0,0,0,74,58.309a6.067,6.067,0,0,0,3.212-.939,2.756,2.756,0,0,0,1.536-2.387Zm-13,9.014q0-3.682,3.682-6.145a55.548,55.548,0,0,1,9.318-4.139V43.506a8.891,8.891,0,0,0-.508-3.605q-.863-1.7-3.58-1.7a4.932,4.932,0,0,0-2.463.66,2.1,2.1,0,0,0-1.168,1.879,6.887,6.887,0,0,0,.127,1.028,7.3,7.3,0,0,1,.127.927,2.111,2.111,0,0,1-.939,1.98,2.364,2.364,0,0,1-1.27.33,2.128,2.128,0,0,1-1.752-.749,2.572,2.572,0,0,1-.609-1.663q0-1.777,2.2-3.72t6.437-1.942q4.926,0,6.678,3.2a11.05,11.05,0,0,1,.939,5.1V55.414a6.813,6.813,0,0,0,.2,2.031,1.326,1.326,0,0,0,1.371.99,2.285,2.285,0,0,0,.965-.178,9.861,9.861,0,0,0,1.32-.863v1.32a8.264,8.264,0,0,1-1.752,1.625,5.105,5.105,0,0,1-2.895.965,2.826,2.826,0,0,1-2.5-1.117,5.01,5.01,0,0,1-.851-2.666,23.911,23.911,0,0,1-3.3,2.488,8.65,8.65,0,0,1-4.393,1.371,5.279,5.279,0,0,1-3.783-1.536,5.172,5.172,0,0,1-1.6-3.9ZM89.42,60.289a4.588,4.588,0,0,0,2.526-.9q.724-.673.724-3.009V43.506a6,6,0,0,0-.3-2.285,1.994,1.994,0,0,0-1.98-.965,4.489,4.489,0,0,0-.47.025q-.241.025-.6.076v-.889q1.041-.3,4.926-1.574l2.387-.787q.178,0,.216.127a1.3,1.3,0,0,1,.038.355v3.732a26.039,26.039,0,0,1,3.656-3,7.627,7.627,0,0,1,4.113-1.244,5.387,5.387,0,0,1,3.148.99q2.742,1.93,2.742,6.881V56.811a3.876,3.876,0,0,0,.736,2.641,3.263,3.263,0,0,0,2.463.838V61H102.9v-.711a4.35,4.35,0,0,0,2.59-1.028q.736-.774.736-3.364V45.055a7.267,7.267,0,0,0-.812-3.618,3.14,3.14,0,0,0-3-1.435,5.545,5.545,0,0,0-3.047,1.016,17.453,17.453,0,0,0-2.234,1.93V57.166a2.962,2.962,0,0,0,.813,2.45,4.454,4.454,0,0,0,2.564.673V61H89.42Zm37.792-22.877V38.2a6.689,6.689,0,0,0-1.866.406,1.1,1.1,0,0,0-.546,1.117,2.6,2.6,0,0,0,.114.774q.114.368.394,1.079L130.589,54.7l4.57-11.629q.33-.838.622-1.752a5.033,5.033,0,0,0,.292-1.4,1.466,1.466,0,0,0-.939-1.422,5.224,5.224,0,0,0-1.523-.3V37.41h7.211v.79a2.355,2.355,0,0,0-1.79.825,17.518,17.518,0,0,0-1.587,3.339l-7.338,18.281a3.835,3.835,0,0,1-.33.66.412.412,0,0,1-.355.178.509.509,0,0,1-.432-.292,7.807,7.807,0,0,1-.381-.724l-7.77-18.586a7.436,7.436,0,0,0-2.006-3.072,4.039,4.039,0,0,0-1.854-.609v-.787ZM158.5,46.934a23.249,23.249,0,0,0-4.824,2.133q-3.656,2.26-3.656,5.129a3.9,3.9,0,0,0,1.523,3.4,3.7,3.7,0,0,0,2.209.711,6.067,6.067,0,0,0,3.212-.939,2.756,2.756,0,0,0,1.536-2.387Zm-13,9.014q0-3.682,3.682-6.145a55.548,55.548,0,0,1,9.318-4.139V43.506A8.891,8.891,0,0,0,158,39.9q-.863-1.7-3.58-1.7a4.932,4.932,0,0,0-2.463.66,2.1,2.1,0,0,0-1.168,1.879,6.886,6.886,0,0,0,.127,1.028,7.3,7.3,0,0,1,.127.927,2.111,2.111,0,0,1-.939,1.98,2.364,2.364,0,0,1-1.27.33,2.128,2.128,0,0,1-1.752-.749,2.572,2.572,0,0,1-.609-1.663q0-1.777,2.2-3.72T155.1,36.93q4.926,0,6.678,3.2a11.05,11.05,0,0,1,.939,5.1V55.414a6.812,6.812,0,0,0,.2,2.031,1.326,1.326,0,0,0,1.371.99,2.285,2.285,0,0,0,.965-.178,9.863,9.863,0,0,0,1.32-.863v1.32a8.264,8.264,0,0,1-1.752,1.625,5.1,5.1,0,0,1-2.9.965,2.826,2.826,0,0,1-2.5-1.117,5.01,5.01,0,0,1-.851-2.666,23.91,23.91,0,0,1-3.3,2.488,8.65,8.65,0,0,1-4.393,1.371,5.279,5.279,0,0,1-3.783-1.536,5.172,5.172,0,0,1-1.6-3.9ZM170.932,53h.838a13.264,13.264,0,0,0,1.574,4.443,5.762,5.762,0,0,0,5.205,2.844,4.179,4.179,0,0,0,3.009-1.054,3.6,3.6,0,0,0,1.1-2.729,3.759,3.759,0,0,0-.635-2.057,6.509,6.509,0,0,0-2.234-1.93l-2.844-1.625a16.211,16.211,0,0,1-4.6-3.377,5.933,5.933,0,0,1-1.473-4.012,6,6,0,0,1,2.031-4.672A7.343,7.343,0,0,1,178,37a9.914,9.914,0,0,1,2.958.508,13.706,13.706,0,0,0,1.815.508,1.3,1.3,0,0,0,.66-.127,1.063,1.063,0,0,0,.355-.406h.609l.178,7.084H183.8a11.746,11.746,0,0,0-1.371-3.834,5.039,5.039,0,0,0-4.545-2.539,3.607,3.607,0,0,0-3.809,3.656q0,2.336,3.5,4.164l3.352,1.8q5.408,2.945,5.408,6.855a6.13,6.13,0,0,1-2.247,4.9,8.781,8.781,0,0,1-5.878,1.9,13.732,13.732,0,0,1-3.453-.508,15.591,15.591,0,0,0-2.285-.508.752.752,0,0,0-.533.216,1.5,1.5,0,0,0-.355.521h-.66Zm46.893-15.41v1.828h-5.18l-.051,14.625a9.784,9.784,0,0,0,.33,2.92,2.346,2.346,0,0,0,2.387,1.752,2.875,2.875,0,0,0,1.587-.432,8.328,8.328,0,0,0,1.536-1.371l.66.559-.559.762a8.124,8.124,0,0,1-2.793,2.514,6.349,6.349,0,0,1-2.844.736,4,4,0,0,1-4.062-2.666,11.041,11.041,0,0,1-.584-4.012V39.418h-2.768a.747.747,0,0,1-.19-.152.307.307,0,0,1-.063-.2.606.606,0,0,1,.114-.394,7.616,7.616,0,0,1,.724-.647,21.863,21.863,0,0,0,2.526-2.349q.774-.9,3.644-4.761a.847.847,0,0,1,.394.051q.063.051.063.381V37.59Zm4.1,11.629a12.156,12.156,0,0,1,3.212-8.544,10.723,10.723,0,0,1,8.265-3.491,11.29,11.29,0,0,1,8.328,3.3,11.874,11.874,0,0,1,3.3,8.785,13.071,13.071,0,0,1-3.2,8.785,10.4,10.4,0,0,1-8.277,3.732,10.91,10.91,0,0,1-8.252-3.58,12.585,12.585,0,0,1-3.377-8.987ZM232.69,38.707a5.04,5.04,0,0,0-3.479,1.32q-2.539,2.311-2.539,7.973a17.927,17.927,0,0,0,2.044,8.43q2.044,3.91,5.675,3.91a4.825,4.825,0,0,0,4.38-2.615,13.439,13.439,0,0,0,1.536-6.855,18.162,18.162,0,0,0-1.955-8.277Q236.4,38.707,232.69,38.707ZM1.32,100.219a12.156,12.156,0,0,1,3.212-8.544A10.723,10.723,0,0,1,12.8,88.184a11.29,11.29,0,0,1,8.328,3.3,11.874,11.874,0,0,1,3.3,8.785,13.071,13.071,0,0,1-3.2,8.785,10.4,10.4,0,0,1-8.277,3.732,10.91,10.91,0,0,1-8.252-3.58,12.585,12.585,0,0,1-3.379-8.987ZM12.086,89.707a5.04,5.04,0,0,0-3.479,1.32Q6.068,93.338,6.068,99a17.927,17.927,0,0,0,2.044,8.43q2.044,3.91,5.675,3.91a4.825,4.825,0,0,0,4.38-2.615A13.439,13.439,0,0,0,19.7,101.87a18.162,18.162,0,0,0-1.955-8.277Q15.793,89.707,12.086,89.707Zm23.523-1.219v16.25a6.656,6.656,0,0,0,.482,2.768,3.489,3.489,0,0,0,3.453,1.93,5.871,5.871,0,0,0,3.377-1.143,9.908,9.908,0,0,0,1.9-1.752V92.627a3.235,3.235,0,0,0-.762-2.564,5.773,5.773,0,0,0-3.047-.736v-.838h8.2v17.875a3.445,3.445,0,0,0,.622,2.374,3.571,3.571,0,0,0,2.628.571v.711q-1.4.381-2.057.571t-2.209.7q-.66.229-2.9,1.092a.138.138,0,0,1-.152-.114A1.241,1.241,0,0,1,45.13,112v-4.088a17.174,17.174,0,0,1-3.148,3.047,7.793,7.793,0,0,1-4.57,1.523,6.53,6.53,0,0,1-4.164-1.574q-1.98-1.549-1.98-5.205V92.525a3.36,3.36,0,0,0-.863-2.717,5.191,5.191,0,0,0-2.387-.609v-.711Zm19.74,22.674a6.146,6.146,0,0,0,3.1-.825q.762-.622.762-2.653V96.232a9.8,9.8,0,0,0-.47-3.593,1.712,1.712,0,0,0-1.714-1.079,4.718,4.718,0,0,0-.673.063q-.419.063-.876.165V90.95l2.971-1.041q1.523-.533,2.107-.762,1.27-.482,2.615-1.092.178,0,.216.127a2.312,2.312,0,0,1,.038.533v4.164a19.4,19.4,0,0,1,3.136-3.529A4.831,4.831,0,0,1,69.7,88.08a2.929,2.929,0,0,1,2.107.774,2.751,2.751,0,0,1,.19,3.694,1.988,1.988,0,0,1-1.562.711,2.921,2.921,0,0,1-1.942-.889,2.746,2.746,0,0,0-1.536-.889q-.889,0-2.184,1.435a4.4,4.4,0,0,0-1.3,2.958v11.451a3.793,3.793,0,0,0,1.016,3.034,5.1,5.1,0,0,0,3.377.8V112H55.349ZM92.822,79.221a2.608,2.608,0,0,1,.762-1.879,2.511,2.511,0,0,1,1.879-.787,2.544,2.544,0,0,1,1.866.774,2.573,2.573,0,0,1,.774,1.892,2.641,2.641,0,1,1-5.282,0Zm-3.25,32.068q2.717-.254,3.428-.927t.711-3.644V94.607a7.7,7.7,0,0,0-.229-2.285,1.535,1.535,0,0,0-1.6-1.041,2.911,2.911,0,0,0-.546.051q-.267.051-1.536.406v-.787l1.092-.355q4.443-1.447,6.2-2.184a3.307,3.307,0,0,1,.914-.3,1.381,1.381,0,0,1,.051.381v18.23q0,2.9.7,3.631t3.161.939V112H89.572Zm15.83.051a5.8,5.8,0,0,0,2.641-.66q1.016-.736,1.016-2.945V94.607a4.132,4.132,0,0,0-.5-2.463,2.04,2.04,0,0,0-1.638-.584,4.635,4.635,0,0,0-.8.051,4.262,4.262,0,0,0-.622.178V90.9l1.828-.609q.99-.33,3.25-1.193t2.387-.863a.141.141,0,0,1,.152.127,2.956,2.956,0,0,1,.025.482v3.428a19.372,19.372,0,0,1,4.342-3.161,8.6,8.6,0,0,1,3.758-.876,5.244,5.244,0,0,1,4.164,1.777,7.715,7.715,0,0,1,1.346,2.615,21.177,21.177,0,0,1,3.275-2.818,8.917,8.917,0,0,1,4.926-1.574q4.088,0,5.459,3.326A16.475,16.475,0,0,1,141.2,97.5v10.537a3.035,3.035,0,0,0,.8,2.45,5.633,5.633,0,0,0,2.882.851V112H133.433v-.711a5.006,5.006,0,0,0,2.907-.889,4.014,4.014,0,0,0,.7-2.793V96.664a9.25,9.25,0,0,0-.533-3.631,3.639,3.639,0,0,0-3.682-2.082,5.829,5.829,0,0,0-3.275,1.092,16.223,16.223,0,0,0-2.311,2.031v13a5.568,5.568,0,0,0,.724,3.123q.724,1.066,3.06,1.143V112H119.366v-.66q2.412-.3,3.072-1.168t.66-4.24v-7.11a19.038,19.038,0,0,0-.508-5.383,3.41,3.41,0,0,0-3.555-2.488,6.107,6.107,0,0,0-3.047.851,9.572,9.572,0,0,0-2.641,2.222v13.889a4,4,0,0,0,.673,2.666q.673.736,2.933.762V112H105.4Zm56.074-13.406a23.248,23.248,0,0,0-4.824,2.133Q153,102.327,153,105.2a3.9,3.9,0,0,0,1.523,3.4,3.7,3.7,0,0,0,2.209.711,6.067,6.067,0,0,0,3.212-.939,2.756,2.756,0,0,0,1.536-2.387Zm-13,9.014q0-3.682,3.682-6.145a55.551,55.551,0,0,1,9.318-4.139V94.506a8.891,8.891,0,0,0-.508-3.605q-.863-1.7-3.58-1.7a4.932,4.932,0,0,0-2.463.66,2.1,2.1,0,0,0-1.168,1.879,6.886,6.886,0,0,0,.127,1.028,7.3,7.3,0,0,1,.127.927,2.111,2.111,0,0,1-.939,1.98,2.364,2.364,0,0,1-1.27.33,2.128,2.128,0,0,1-1.752-.749,2.572,2.572,0,0,1-.609-1.663q0-1.777,2.2-3.72t6.437-1.942q4.926,0,6.678,3.2a11.05,11.05,0,0,1,.939,5.1v10.182a6.813,6.813,0,0,0,.2,2.031,1.326,1.326,0,0,0,1.371.99,2.285,2.285,0,0,0,.965-.178,9.863,9.863,0,0,0,1.32-.863v1.32a8.265,8.265,0,0,1-1.752,1.625,5.106,5.106,0,0,1-2.9.965,2.826,2.826,0,0,1-2.5-1.117,5.01,5.01,0,0,1-.851-2.666,23.912,23.912,0,0,1-3.3,2.488,8.65,8.65,0,0,1-4.393,1.371,5.279,5.279,0,0,1-3.783-1.536,5.172,5.172,0,0,1-1.6-3.9Zm27.839,9.75a3.006,3.006,0,0,0,2.4,2.945,17.112,17.112,0,0,0,5.5.813A14.1,14.1,0,0,0,191.07,119q2.641-1.46,2.641-3.593,0-1.7-2.133-2.26a26.064,26.064,0,0,0-5-.381q-.939-.025-1.98-.063t-1.9-.089q-.559-.025-1.8-.2t-1.854-.3q-.3,0-1.5,1.6a5.136,5.136,0,0,0-1.229,2.99Zm3.3-13.229a6.649,6.649,0,0,1-3.593-2.717,7.834,7.834,0,0,1-1.282-4.393,8.6,8.6,0,0,1,9.039-8.3,11.3,11.3,0,0,1,4.088.876,11.741,11.741,0,0,0,4.291.876q.533,0,1.612-.038t1.562-.038h.3v2.057h-4.393q.457,1.066.711,1.854a9.938,9.938,0,0,1,.432,2.793,7.435,7.435,0,0,1-2.4,5.319,8.681,8.681,0,0,1-6.462,2.425,19.837,19.837,0,0,1-2.285-.229q-.736,0-1.942,1.244a3.423,3.423,0,0,0-1.206,2.031q0,.812,1.777,1.193a12.214,12.214,0,0,0,2.59.254q6.525,0,8.861.736a4.939,4.939,0,0,1,3.834,5.129q0,4.012-4.481,6.4a19.078,19.078,0,0,1-9.052,2.387,11.417,11.417,0,0,1-6.6-1.688q-2.437-1.688-2.437-3.542a2.985,2.985,0,0,1,.647-1.79,21.127,21.127,0,0,1,2.552-2.6l1.676-1.5.3-.3a7.874,7.874,0,0,1-1.752-.889,2.262,2.262,0,0,1-1.016-1.8,3.5,3.5,0,0,1,.876-2.069,33.587,33.587,0,0,1,3.753-3.681Zm4.824-.508a3.589,3.589,0,0,0,2.336-.762q1.523-1.219,1.523-4.24a14.6,14.6,0,0,0-1.231-5.434,4.23,4.23,0,0,0-4.1-3.021,3.421,3.421,0,0,0-3.428,2.361,8.542,8.542,0,0,0-.482,3.072,10.487,10.487,0,0,0,1.5,5.561,4.445,4.445,0,0,0,3.883,2.463Zm18.6-23.74a2.608,2.608,0,0,1,.762-1.879,2.511,2.511,0,0,1,1.879-.787,2.544,2.544,0,0,1,1.866.774,2.573,2.573,0,0,1,.774,1.892,2.641,2.641,0,1,1-5.282,0Zm-3.25,32.068q2.717-.254,3.428-.927t.711-3.644V94.607a7.7,7.7,0,0,0-.229-2.285,1.535,1.535,0,0,0-1.6-1.041,2.911,2.911,0,0,0-.546.051q-.267.051-1.536.406v-.787l1.092-.355q4.443-1.447,6.2-2.184a3.307,3.307,0,0,1,.914-.3,1.381,1.381,0,0,1,.051.381v18.23q0,2.9.7,3.631t3.161.939V112h-12.34Zm15.931,0a4.588,4.588,0,0,0,2.526-.9q.724-.673.724-3.009V94.506a6,6,0,0,0-.3-2.285,1.994,1.994,0,0,0-1.98-.965,4.486,4.486,0,0,0-.47.025q-.241.025-.6.076v-.889q1.041-.3,4.926-1.574l2.387-.787q.178,0,.216.127a1.3,1.3,0,0,1,.038.355v3.732a26.041,26.041,0,0,1,3.656-3,7.627,7.627,0,0,1,4.113-1.244,5.387,5.387,0,0,1,3.148.99q2.742,1.93,2.742,6.881V107.8a3.876,3.876,0,0,0,.736,2.641,3.263,3.263,0,0,0,2.463.838V112H229.2v-.711a4.35,4.35,0,0,0,2.59-1.028q.736-.774.736-3.364V96.055a7.266,7.266,0,0,0-.812-3.618,3.14,3.14,0,0,0-3-1.435,5.545,5.545,0,0,0-3.047,1.016,17.455,17.455,0,0,0-2.234,1.93v14.219a2.962,2.962,0,0,0,.813,2.45,4.454,4.454,0,0,0,2.564.673V112h-11.1Zm41.525-13.355a23.248,23.248,0,0,0-4.824,2.133q-3.656,2.26-3.656,5.129a3.9,3.9,0,0,0,1.523,3.4,3.7,3.7,0,0,0,2.209.711,6.067,6.067,0,0,0,3.212-.939,2.756,2.756,0,0,0,1.536-2.387Zm-13,9.014q0-3.682,3.682-6.145a55.549,55.549,0,0,1,9.318-4.139V94.506a8.891,8.891,0,0,0-.508-3.605q-.863-1.7-3.58-1.7a4.932,4.932,0,0,0-2.463.66,2.1,2.1,0,0,0-1.168,1.879,6.888,6.888,0,0,0,.127,1.028,7.293,7.293,0,0,1,.127.927,2.111,2.111,0,0,1-.939,1.98,2.364,2.364,0,0,1-1.27.33,2.128,2.128,0,0,1-1.752-.749,2.572,2.572,0,0,1-.609-1.663q0-1.777,2.2-3.72t6.437-1.942q4.926,0,6.678,3.2a11.05,11.05,0,0,1,.939,5.1v10.182a6.812,6.812,0,0,0,.2,2.031,1.326,1.326,0,0,0,1.371.99,2.285,2.285,0,0,0,.965-.178,9.863,9.863,0,0,0,1.32-.863v1.32a8.264,8.264,0,0,1-1.752,1.625,5.1,5.1,0,0,1-2.895.965,2.826,2.826,0,0,1-2.5-1.117,5.01,5.01,0,0,1-.851-2.666,23.913,23.913,0,0,1-3.3,2.488,8.65,8.65,0,0,1-4.393,1.371,5.279,5.279,0,0,1-3.783-1.536,5.172,5.172,0,0,1-1.6-3.9ZM280.207,88.59v1.828h-5.18l-.051,14.625a9.785,9.785,0,0,0,.33,2.92,2.346,2.346,0,0,0,2.387,1.752,2.875,2.875,0,0,0,1.587-.432,8.327,8.327,0,0,0,1.536-1.371l.66.559-.559.762a8.124,8.124,0,0,1-2.793,2.514,6.349,6.349,0,0,1-2.844.736,4,4,0,0,1-4.062-2.666,11.041,11.041,0,0,1-.584-4.012V90.418h-2.768a.747.747,0,0,1-.19-.152.307.307,0,0,1-.063-.2.606.606,0,0,1,.114-.394,7.62,7.62,0,0,1,.724-.647,21.861,21.861,0,0,0,2.526-2.349q.774-.9,3.644-4.761a.847.847,0,0,1,.394.051q.063.051.063.381V88.59Zm7.044-9.369a2.608,2.608,0,0,1,.762-1.879,2.511,2.511,0,0,1,1.879-.787,2.544,2.544,0,0,1,1.866.774,2.573,2.573,0,0,1,.774,1.892,2.641,2.641,0,1,1-5.282,0ZM284,111.289q2.717-.254,3.428-.927t.711-3.644V94.607a7.7,7.7,0,0,0-.229-2.285,1.535,1.535,0,0,0-1.6-1.041,2.911,2.911,0,0,0-.546.051q-.267.051-1.536.406v-.787l1.092-.355q4.443-1.447,6.2-2.184a3.307,3.307,0,0,1,.914-.3,1.382,1.382,0,0,1,.051.381v18.23q0,2.9.7,3.631t3.161.939V112H284Zm16.312-11.07a12.156,12.156,0,0,1,3.212-8.544,10.723,10.723,0,0,1,8.265-3.491,11.29,11.29,0,0,1,8.328,3.3,11.874,11.874,0,0,1,3.3,8.785,13.071,13.071,0,0,1-3.2,8.785,10.4,10.4,0,0,1-8.277,3.732,10.91,10.91,0,0,1-8.252-3.58,12.585,12.585,0,0,1-3.375-8.987Zm10.766-10.512a5.04,5.04,0,0,0-3.479,1.32Q305.06,93.338,305.06,99a17.927,17.927,0,0,0,2.044,8.43q2.044,3.91,5.675,3.91a4.825,4.825,0,0,0,4.38-2.615,13.439,13.439,0,0,0,1.536-6.855,18.162,18.162,0,0,0-1.955-8.277q-1.954-3.886-5.661-3.886Zm16.414,21.582a4.588,4.588,0,0,0,2.526-.9q.724-.673.724-3.009V94.506a6,6,0,0,0-.3-2.285,1.994,1.994,0,0,0-1.98-.965,4.487,4.487,0,0,0-.47.025q-.241.025-.6.076v-.889q1.041-.3,4.926-1.574l2.387-.787q.178,0,.216.127a1.3,1.3,0,0,1,.038.355v3.732a26.036,26.036,0,0,1,3.656-3,7.627,7.627,0,0,1,4.113-1.244,5.387,5.387,0,0,1,3.148.99q2.742,1.93,2.742,6.881V107.8a3.876,3.876,0,0,0,.736,2.641,3.263,3.263,0,0,0,2.463.838V112H340.975v-.711a4.35,4.35,0,0,0,2.59-1.028q.736-.774.736-3.364V96.055a7.267,7.267,0,0,0-.812-3.618,3.14,3.14,0,0,0-3-1.435,5.545,5.545,0,0,0-3.047,1.016,17.452,17.452,0,0,0-2.234,1.93v14.219a2.962,2.962,0,0,0,.813,2.45,4.454,4.454,0,0,0,2.564.673V112h-11.1ZM356.8,104h.838a13.262,13.262,0,0,0,1.574,4.443,5.762,5.762,0,0,0,5.2,2.844,4.179,4.179,0,0,0,3.009-1.054,3.6,3.6,0,0,0,1.1-2.729,3.759,3.759,0,0,0-.635-2.057,6.509,6.509,0,0,0-2.234-1.93l-2.844-1.625a16.211,16.211,0,0,1-4.6-3.377A5.933,5.933,0,0,1,356.74,94.5a6,6,0,0,1,2.031-4.672,7.343,7.343,0,0,1,5.1-1.828,9.914,9.914,0,0,1,2.958.508,13.7,13.7,0,0,0,1.815.508,1.3,1.3,0,0,0,.66-.127,1.063,1.063,0,0,0,.355-.406h.609l.178,7.084h-.787a11.746,11.746,0,0,0-1.371-3.834,5.039,5.039,0,0,0-4.545-2.539,3.607,3.607,0,0,0-3.809,3.656q0,2.336,3.5,4.164l3.352,1.8q5.408,2.945,5.408,6.855a6.13,6.13,0,0,1-2.247,4.9,8.781,8.781,0,0,1-5.878,1.9,13.733,13.733,0,0,1-3.453-.508,15.591,15.591,0,0,0-2.285-.508.752.752,0,0,0-.533.216,1.5,1.5,0,0,0-.355.521h-.66Zm27.585,8.607a2.775,2.775,0,0,1-2.057-.851,2.808,2.808,0,0,1-.838-2.044,2.745,2.745,0,0,1,.851-2.031,2.808,2.808,0,0,1,2.044-.838,2.861,2.861,0,0,1,2.869,2.869,2.83,2.83,0,0,1-.825,2.044,2.734,2.734,0,0,1-2.039.853Z" transform="translate(154.001 331)" fill="#fff"/>
    <path id="Path_2777" data-name="Path 2777" d="M.29-.325A2.37,2.37,0,0,0,1.608-.716a2.431,2.431,0,0,0,.264-1.446v-7.8a1.851,1.851,0,0,0-.294-1.257,2.173,2.173,0,0,0-1.288-.36v-.334h5v.334A2.2,2.2,0,0,0,4-11.215a1.831,1.831,0,0,0-.3,1.257v3.507H9.158V-9.958a1.872,1.872,0,0,0-.29-1.257,2.167,2.167,0,0,0-1.292-.36v-.334h5v.334a2.173,2.173,0,0,0-1.288.36A1.851,1.851,0,0,0,11-9.958v8.007A1.828,1.828,0,0,0,11.29-.69a2.328,2.328,0,0,0,1.288.365V0h-5V-.325A2.3,2.3,0,0,0,8.9-.712a2.489,2.489,0,0,0,.259-1.45v-3.5H3.7v3.709A1.827,1.827,0,0,0,4-.686a2.288,2.288,0,0,0,1.292.36V0h-5ZM18.2-8.244a3.106,3.106,0,0,1,2.171.857,3.136,3.136,0,0,1,.932,2.43h-5.58a4.7,4.7,0,0,0,.923,2.971,2.573,2.573,0,0,0,1.978.932,2.487,2.487,0,0,0,1.556-.483,4.853,4.853,0,0,0,1.169-1.371l.308.105A5,5,0,0,1,20.306-.738a3.364,3.364,0,0,1-2.421.949,2.963,2.963,0,0,1-2.553-1.248,4.784,4.784,0,0,1-.9-2.874,4.677,4.677,0,0,1,1.046-3.05A3.349,3.349,0,0,1,18.2-8.244Zm-.51.642a1.68,1.68,0,0,0-1.529.888,3.492,3.492,0,0,0-.4,1.2H19.47a3.648,3.648,0,0,0-.334-1.31A1.517,1.517,0,0,0,17.691-7.6ZM23.473-.246a1.588,1.588,0,0,0,.875-.312A1.487,1.487,0,0,0,24.6-1.6V-6.056a2.077,2.077,0,0,0-.1-.791.69.69,0,0,0-.686-.334,1.553,1.553,0,0,0-.163.009l-.207.026v-.308q.361-.1,1.7-.546l.826-.272q.062,0,.075.044a.448.448,0,0,1,.013.123v1.292A9.014,9.014,0,0,1,27.323-7.85a2.64,2.64,0,0,1,1.424-.431,1.865,1.865,0,0,1,1.09.343,2.716,2.716,0,0,1,.949,2.382v4.1a1.342,1.342,0,0,0,.255.914,1.129,1.129,0,0,0,.853.29V0H28.14V-.246a1.506,1.506,0,0,0,.9-.356,1.8,1.8,0,0,0,.255-1.165V-5.52a2.515,2.515,0,0,0-.281-1.252,1.087,1.087,0,0,0-1.037-.5,1.919,1.919,0,0,0-1.055.352,6.042,6.042,0,0,0-.773.668V-1.33a1.025,1.025,0,0,0,.281.848,1.542,1.542,0,0,0,.888.233V0H23.473ZM33.307-.29A2.128,2.128,0,0,0,34.38-.576a1.179,1.179,0,0,0,.264-.918V-5.458A3.394,3.394,0,0,0,34.481-6.7a.593.593,0,0,0-.593-.374,1.633,1.633,0,0,0-.233.022q-.145.022-.3.057v-.29l1.028-.36q.527-.185.729-.264.439-.167.9-.378.062,0,.075.044a.8.8,0,0,1,.013.185v1.441A6.715,6.715,0,0,1,37.188-7.84a1.672,1.672,0,0,1,1.085-.439A1.014,1.014,0,0,1,39-8.011a.89.89,0,0,1,.281.672.888.888,0,0,1-.215.606.688.688,0,0,1-.541.246,1.011,1.011,0,0,1-.672-.308.951.951,0,0,0-.532-.308q-.308,0-.756.5a1.523,1.523,0,0,0-.448,1.024v3.964a1.313,1.313,0,0,0,.352,1.05A1.765,1.765,0,0,0,37.64-.29V0H33.307Zm7.241-7.787h3.709V-7.8a2.365,2.365,0,0,0-.65.079q-.4.114-.4.448a.765.765,0,0,0,.044.25q.044.127.158.382l2.057,4.562,1.652-4.6Q47.14-6.75,47.2-7a1.824,1.824,0,0,0,.057-.334.372.372,0,0,0-.158-.334.824.824,0,0,0-.4-.123L46.42-7.8v-.272h2.417V-7.8a.829.829,0,0,0-.541.246A1.74,1.74,0,0,0,47.984-7L45.216.334a11.216,11.216,0,0,1-1.38,2.751,2.027,2.027,0,0,1-1.67.853,1.83,1.83,0,0,1-.923-.246.835.835,0,0,1-.431-.782.726.726,0,0,1,.259-.576.965.965,0,0,1,.655-.224,2.2,2.2,0,0,1,.681.167,2.2,2.2,0,0,0,.646.167q.492,0,1.037-1.143a4.728,4.728,0,0,0,.545-1.529.885.885,0,0,0-.026-.193,1.386,1.386,0,0,0-.062-.2L41.735-6.706a2.9,2.9,0,0,0-.523-.857,1.206,1.206,0,0,0-.664-.268ZM59.663-1.389a.649.649,0,0,0,.215.58,1.853,1.853,0,0,0,.892.141A6.551,6.551,0,0,0,64.242-1.5a4.731,4.731,0,0,0,2.092-4.386,5.047,5.047,0,0,0-1.723-4.166,6.028,6.028,0,0,0-3.911-1.2,1.742,1.742,0,0,0-.822.132q-.215.132-.215.58ZM56.252-.325a2.64,2.64,0,0,0,1.283-.356q.3-.25.3-1.27V-9.958a1.869,1.869,0,0,0-.29-1.266,2.223,2.223,0,0,0-1.292-.352v-.334H61.1a9.592,9.592,0,0,1,4.148.809,5.245,5.245,0,0,1,3.059,5.186,6.129,6.129,0,0,1-.549,2.558A5.249,5.249,0,0,1,66.1-1.31a5.59,5.59,0,0,1-1.459.8A9.851,9.851,0,0,1,61.253,0h-5ZM75.2-4.869a8.047,8.047,0,0,0-1.67.738,2.176,2.176,0,0,0-1.266,1.775,1.351,1.351,0,0,0,.527,1.178,1.28,1.28,0,0,0,.765.246,2.1,2.1,0,0,0,1.112-.325.954.954,0,0,0,.532-.826Zm-4.5,3.12a2.5,2.5,0,0,1,1.274-2.127A19.229,19.229,0,0,1,75.2-5.309v-.747A3.078,3.078,0,0,0,75.025-7.3a1.253,1.253,0,0,0-1.239-.589,1.707,1.707,0,0,0-.853.229.726.726,0,0,0-.4.65,2.385,2.385,0,0,0,.044.356,2.527,2.527,0,0,1,.044.321.731.731,0,0,1-.325.686.818.818,0,0,1-.439.114.737.737,0,0,1-.606-.259.89.89,0,0,1-.211-.576,1.83,1.83,0,0,1,.76-1.288,3.267,3.267,0,0,1,2.228-.672A2.4,2.4,0,0,1,76.34-7.221a3.825,3.825,0,0,1,.325,1.767V-1.93a2.358,2.358,0,0,0,.07.7.459.459,0,0,0,.475.343.791.791,0,0,0,.334-.062,3.413,3.413,0,0,0,.457-.3v.457a2.861,2.861,0,0,1-.606.563,1.767,1.767,0,0,1-1,.334.978.978,0,0,1-.866-.387,1.734,1.734,0,0,1-.294-.923,8.278,8.278,0,0,1-1.143.861,2.994,2.994,0,0,1-1.521.475A1.827,1.827,0,0,1,71.254-.4,1.79,1.79,0,0,1,70.7-1.749ZM82.978-8.165v.272a2.316,2.316,0,0,0-.646.141.381.381,0,0,0-.189.387.9.9,0,0,0,.04.268q.04.127.136.374L84.147-2.18,85.729-6.2q.114-.29.215-.606a1.742,1.742,0,0,0,.1-.483.508.508,0,0,0-.325-.492,1.808,1.808,0,0,0-.527-.1v-.272h2.5v.272a.815.815,0,0,0-.62.286,6.064,6.064,0,0,0-.549,1.156L83.98-.123a1.327,1.327,0,0,1-.114.229.143.143,0,0,1-.123.062.176.176,0,0,1-.149-.1,2.7,2.7,0,0,1-.132-.25l-2.69-6.436a2.574,2.574,0,0,0-.694-1.063,1.4,1.4,0,0,0-.642-.211v-.272Zm7.689-3.182a.9.9,0,0,1,.264-.65.869.869,0,0,1,.65-.272.88.88,0,0,1,.646.268.891.891,0,0,1,.268.655.88.88,0,0,1-.268.646.88.88,0,0,1-.646.268.876.876,0,0,1-.65-.268A.888.888,0,0,1,90.667-11.347ZM89.542-.246a2.242,2.242,0,0,0,1.187-.321q.246-.233.246-1.261V-6.021a2.666,2.666,0,0,0-.079-.791.531.531,0,0,0-.554-.36,1.008,1.008,0,0,0-.189.018q-.092.018-.532.141v-.272L90-7.409q1.538-.5,2.145-.756a1.145,1.145,0,0,1,.316-.1.478.478,0,0,1,.018.132v6.311A2.062,2.062,0,0,0,92.72-.571a1.8,1.8,0,0,0,1.094.325V0H89.542Zm9.992-8.06a2.5,2.5,0,0,1,1.178.281,2.812,2.812,0,0,1,.677.51V-10.31a1.6,1.6,0,0,0-.119-.738q-.119-.2-.567-.2a1.694,1.694,0,0,0-.185.009l-.352.035v-.29l.721-.185q.4-.1.791-.22t.694-.22q.141-.044.466-.167l.053.018-.018.923q-.009.5-.018,1.033t-.009,1.05l-.018,7.181a1.631,1.631,0,0,0,.141.8q.141.229.747.229h.193a1.447,1.447,0,0,0,.193-.022v.29l-1.274.439-1.38.519-.062-.079V-.993a4.588,4.588,0,0,1-.853.765,2.773,2.773,0,0,1-1.485.4A2.957,2.957,0,0,1,96.63-.989a4.153,4.153,0,0,1-.93-2.676,5.024,5.024,0,0,1,1.112-3.274,3.387,3.387,0,0,1,2.722-1.367ZM99.86-.782a1.534,1.534,0,0,0,1.107-.4,1.119,1.119,0,0,0,.422-.765V-5.722a1.915,1.915,0,0,0-.611-1.613,1.966,1.966,0,0,0-1.191-.47,1.93,1.93,0,0,0-1.723.98,4.452,4.452,0,0,0-.615,2.413A4.861,4.861,0,0,0,97.9-1.89,2.13,2.13,0,0,0,99.86-.782Zm11.107-11.127h10.169l.1,3.059H120.8a3.672,3.672,0,0,0-.8-1.876,3.3,3.3,0,0,0-2.052-.435h-1V-1.95q0,1.046.325,1.3a2.989,2.989,0,0,0,1.424.33V0H113.45V-.325A2.483,2.483,0,0,0,114.869-.7a2.373,2.373,0,0,0,.281-1.459v-9h-1a3.435,3.435,0,0,0-2.035.431,3.183,3.183,0,0,0-.813,1.881h-.439ZM122.849-.246a1.539,1.539,0,0,0,.945-.356,2.129,2.129,0,0,0,.224-1.226v-8.437a1.573,1.573,0,0,0-.127-.725q-.127-.233-.62-.233a1.335,1.335,0,0,0-.189.013l-.207.031V-11.5q.387-.114.954-.277t.787-.233l.844-.264.018.062v5.4a5.752,5.752,0,0,1,.984-.932,2.907,2.907,0,0,1,1.67-.527,1.928,1.928,0,0,1,1.942,1.2,4.135,4.135,0,0,1,.281,1.661v3.586a2.236,2.236,0,0,0,.215,1.213,1.3,1.3,0,0,0,.883.369V0h-3.806V-.246a1.641,1.641,0,0,0,.984-.36,2.14,2.14,0,0,0,.22-1.222v-3.56a2.892,2.892,0,0,0-.286-1.38,1.112,1.112,0,0,0-1.077-.527,2.157,2.157,0,0,0-1.327.492q-.642.492-.642.642v4.333a2.068,2.068,0,0,0,.229,1.23,1.709,1.709,0,0,0,.976.352V0h-3.876Zm10.379-3.832a4.208,4.208,0,0,1,1.112-2.958,3.712,3.712,0,0,1,2.86-1.208A3.908,3.908,0,0,1,140.083-7.1a4.11,4.11,0,0,1,1.143,3.041,4.525,4.525,0,0,1-1.107,3.041,3.6,3.6,0,0,1-2.866,1.29A3.777,3.777,0,0,1,134.4-.967a4.356,4.356,0,0,1-1.173-3.111Zm3.727-3.639a1.745,1.745,0,0,0-1.2.457,3.607,3.607,0,0,0-.879,2.76,6.206,6.206,0,0,0,.708,2.918,2.166,2.166,0,0,0,1.964,1.354,1.67,1.67,0,0,0,1.516-.9,4.652,4.652,0,0,0,.532-2.373,6.287,6.287,0,0,0-.677-2.865,2.122,2.122,0,0,0-1.965-1.346ZM142.929-.29A2.128,2.128,0,0,0,144-.576a1.179,1.179,0,0,0,.264-.918V-5.458A3.4,3.4,0,0,0,144.1-6.7a.593.593,0,0,0-.593-.374,1.633,1.633,0,0,0-.233.022q-.145.022-.3.057v-.29L144-7.646q.527-.185.729-.264.439-.167.9-.378.062,0,.075.044a.8.8,0,0,1,.013.185v1.441A6.715,6.715,0,0,1,146.81-7.84a1.672,1.672,0,0,1,1.085-.439,1.014,1.014,0,0,1,.729.268.89.89,0,0,1,.281.672.888.888,0,0,1-.215.606.688.688,0,0,1-.541.246,1.011,1.011,0,0,1-.672-.308.951.951,0,0,0-.532-.308q-.308,0-.756.5a1.523,1.523,0,0,0-.448,1.024v3.964a1.313,1.313,0,0,0,.352,1.05,1.765,1.765,0,0,0,1.169.277V0h-4.333Zm11.117-7.954a3.106,3.106,0,0,1,2.171.857,3.136,3.136,0,0,1,.932,2.43h-5.581a4.7,4.7,0,0,0,.923,2.971,2.573,2.573,0,0,0,1.978.932,2.487,2.487,0,0,0,1.556-.483,4.853,4.853,0,0,0,1.169-1.371l.308.1a5,5,0,0,1-1.349,2.065,3.364,3.364,0,0,1-2.421.949,2.963,2.963,0,0,1-2.553-1.248,4.784,4.784,0,0,1-.9-2.874,4.677,4.677,0,0,1,1.046-3.05,3.349,3.349,0,0,1,2.722-1.283Zm-.51.642a1.68,1.68,0,0,0-1.529.888,3.492,3.492,0,0,0-.4,1.2h3.709a3.648,3.648,0,0,0-.334-1.31,1.517,1.517,0,0,0-1.445-.776Zm10.616,2.733a8.047,8.047,0,0,0-1.67.738,2.176,2.176,0,0,0-1.266,1.775,1.351,1.351,0,0,0,.527,1.178,1.28,1.28,0,0,0,.765.246,2.1,2.1,0,0,0,1.112-.325.954.954,0,0,0,.532-.826Zm-4.5,3.12a2.5,2.5,0,0,1,1.274-2.127,19.229,19.229,0,0,1,3.226-1.433v-.747a3.078,3.078,0,0,0-.176-1.248,1.253,1.253,0,0,0-1.239-.589,1.707,1.707,0,0,0-.853.229.726.726,0,0,0-.4.65,2.386,2.386,0,0,0,.044.356,2.524,2.524,0,0,1,.044.321.731.731,0,0,1-.325.686.818.818,0,0,1-.439.114A.737.737,0,0,1,160.2-5.8a.89.89,0,0,1-.211-.576,1.83,1.83,0,0,1,.76-1.288,3.267,3.267,0,0,1,2.228-.672,2.4,2.4,0,0,1,2.312,1.107,3.825,3.825,0,0,1,.325,1.767v3.524a2.358,2.358,0,0,0,.07.7.459.459,0,0,0,.475.343.791.791,0,0,0,.334-.062,3.412,3.412,0,0,0,.457-.3V-.8a2.861,2.861,0,0,1-.606.563,1.767,1.767,0,0,1-1,.334.978.978,0,0,1-.866-.387,1.734,1.734,0,0,1-.294-.923,8.276,8.276,0,0,1-1.143.861,2.994,2.994,0,0,1-1.521.475,1.827,1.827,0,0,1-1.31-.532,1.79,1.79,0,0,1-.557-1.34Zm11.2-6.39v5.625a2.3,2.3,0,0,0,.167.958,1.208,1.208,0,0,0,1.2.668,2.032,2.032,0,0,0,1.169-.4,3.43,3.43,0,0,0,.659-.606V-6.706a1.12,1.12,0,0,0-.264-.888,2,2,0,0,0-1.055-.255v-.29h2.839v6.188a1.192,1.192,0,0,0,.215.822,1.236,1.236,0,0,0,.91.2v.246q-.483.132-.712.2t-.765.242q-.229.079-1,.378a.048.048,0,0,1-.053-.04.43.43,0,0,1-.017-.1V-1.415a5.946,5.946,0,0,1-1.09,1.055,2.7,2.7,0,0,1-1.582.527,2.26,2.26,0,0,1-1.441-.545,2.153,2.153,0,0,1-.686-1.8V-6.741a1.163,1.163,0,0,0-.3-.94,1.8,1.8,0,0,0-.826-.211v-.246Z" transform="translate(174.001 489.757)" fill="#fff"/>
    <line id="Line_26" data-name="Line 26" x2="12" transform="translate(154 485.514)" fill="none" stroke="#fff" stroke-miterlimit="10" stroke-width="1"/>
  </g>
</svg>
