<svg xmlns="http://www.w3.org/2000/svg" width="323.684" height="158.209" viewBox="0 0 323.684 158.209">
  <g id="Group_148" data-name="Group 148" transform="translate(-30 -353.965)">
    <line id="Line_27" data-name="Line 27" x2="12" transform="translate(30 504.005)" fill="none" stroke="#fff" stroke-miterlimit="10" stroke-width="1"/>
    <g id="Group_147" data-name="Group 147">
      <path id="Path_34" data-name="Path 34" d="M.342,0V-.342Q1.476-.378,1.7-.756a2.963,2.963,0,0,0,.225-1.386V-9.954a1.84,1.84,0,0,0-.288-1.26,2.308,2.308,0,0,0-1.3-.342v-.36h5v.342a2.181,2.181,0,0,0-1.3.387,1.934,1.934,0,0,0-.279,1.251v3.474H9.216V-9.954a1.84,1.84,0,0,0-.288-1.26,2.308,2.308,0,0,0-1.3-.342v-.36h5v.342a2.181,2.181,0,0,0-1.305.387,1.934,1.934,0,0,0-.279,1.251v7.974a2.041,2.041,0,0,0,.27,1.233,1.932,1.932,0,0,0,1.314.4V0h-5V-.342Q8.766-.378,8.991-.756a2.963,2.963,0,0,0,.225-1.386V-5.67H3.762v3.708a2.041,2.041,0,0,0,.27,1.233,1.932,1.932,0,0,0,1.314.4V0ZM21.42-2.952l.288.126a4.27,4.27,0,0,1-.243.6,4.314,4.314,0,0,1-.549.855A4.6,4.6,0,0,1,19.728-.3a3.316,3.316,0,0,1-1.836.48,3.1,3.1,0,0,1-2.43-1.053,4.307,4.307,0,0,1-.936-2.961,4.579,4.579,0,0,1,.756-2.826,3.965,3.965,0,0,1,1.674-1.35,3.843,3.843,0,0,1,.639-.189,3.076,3.076,0,0,1,.6-.063,3.148,3.148,0,0,1,2.151.765,3.625,3.625,0,0,1,1.017,2.529h-5.6a5.206,5.206,0,0,0,.783,2.813,2.706,2.706,0,0,0,1.431,1.039,3.016,3.016,0,0,0,.324.054,2.955,2.955,0,0,0,.324.018A2.461,2.461,0,0,0,20-1.4a4.089,4.089,0,0,0,.909-.792q.162-.2.288-.387t.216-.351Zm-5.6-2.61h3.71q-.018-.126-.045-.279t-.063-.315a2.751,2.751,0,0,0-.459-1A1.341,1.341,0,0,0,17.8-7.614a1.863,1.863,0,0,0-1.251.437,2.737,2.737,0,0,0-.727,1.615ZM24.588-1.62V-6.084A1.654,1.654,0,0,0,24.426-7a.521.521,0,0,0-.342-.216h-.126a2.631,2.631,0,0,0-.324.018.5.5,0,0,0-.2.054V-7.47q.414-.108.828-.234t.828-.27q.2-.072.414-.144t.414-.144l.126.018v1.422q.234-.2.441-.387t.423-.369a4.026,4.026,0,0,1,.819-.5,2.292,2.292,0,0,1,.945-.189,2.309,2.309,0,0,1,.342.027,1.611,1.611,0,0,1,.36.1,2.092,2.092,0,0,1,.963.765,3.008,3.008,0,0,1,.441,1.809v4.1a1.41,1.41,0,0,0,.216.9,1.3,1.3,0,0,0,.882.306V0H28.134V-.27a1.471,1.471,0,0,0,.819-.243q.315-.225.315-1.251v-3.78a2.322,2.322,0,0,0-.3-1.269,1.2,1.2,0,0,0-1.089-.459,1.606,1.606,0,0,0-.828.261,5.581,5.581,0,0,0-.954.765v5.04a.9.9,0,0,0,.243.693,1.557,1.557,0,0,0,.945.261V0H23.472V-.27a1.217,1.217,0,0,0,.873-.279A1.613,1.613,0,0,0,24.588-1.6ZM34.6-1.512v-4.5a1.465,1.465,0,0,0-.162-.855.529.529,0,0,0-.342-.207H33.97a2.86,2.86,0,0,0-.333.018A1.771,1.771,0,0,0,33.354-7v-.306q.324-.09.657-.207t.675-.243q.342-.108.675-.243t.657-.261l.09.018v1.6h.036a6.084,6.084,0,0,1,.882-1.08,1.968,1.968,0,0,1,.792-.468,1.368,1.368,0,0,1,.225-.054,1.6,1.6,0,0,1,.243-.018.955.955,0,0,1,.72.261.98.98,0,0,1,.252.711.879.879,0,0,1-.18.567.609.609,0,0,1-.5.225.746.746,0,0,1-.4-.1,2.229,2.229,0,0,1-.306-.225.282.282,0,0,1-.072-.054l-.072-.072a1.3,1.3,0,0,0-.189-.126.426.426,0,0,0-.207-.054.475.475,0,0,0-.225.063,1.4,1.4,0,0,0-.243.171,1.722,1.722,0,0,0-.342.324,2.225,2.225,0,0,0-.27.414,1.091,1.091,0,0,0-.108.261.953.953,0,0,0-.036.243V-1.62q0,.954.423,1.143a3.154,3.154,0,0,0,1.107.225V0h-4.32V-.27a.787.787,0,0,0,.171-.018.706.706,0,0,1,.153-.018,1.478,1.478,0,0,0,.747-.315,1.287,1.287,0,0,0,.207-.873ZM48.852-8.1v.27q-.108.036-.234.072a.852.852,0,0,0-.27.144,1.321,1.321,0,0,0-.18.234,2.249,2.249,0,0,0-.18.378L45.216.324q-.126.342-.252.639t-.252.567a6.052,6.052,0,0,1-1.134,1.8,1.94,1.94,0,0,1-1.422.594,1.394,1.394,0,0,1-.891-.252,1.025,1.025,0,0,1-.387-.558q-.018-.072-.027-.126a.656.656,0,0,1-.009-.108,1.31,1.31,0,0,1,.018-.153,1.008,1.008,0,0,1,.072-.243,1,1,0,0,1,.261-.27.862.862,0,0,1,.513-.126.956.956,0,0,1,.135.009,1.341,1.341,0,0,1,.135.027,1.589,1.589,0,0,1,.243.054l.225.072q.162.054.306.108a.7.7,0,0,0,.234.054.873.873,0,0,0,.693-.441,4.822,4.822,0,0,0,.531-.963,5.769,5.769,0,0,0,.324-.855,2.558,2.558,0,0,0,.108-.5,1.774,1.774,0,0,0-.171-.5q-.171-.387-.387-.819a.148.148,0,0,0-.009-.045.113.113,0,0,0-.027-.045l-.306-.612q-.144-.288-.216-.468L41.472-7.272a.974.974,0,0,0-.216-.27A.991.991,0,0,0,41-7.7a1.442,1.442,0,0,0-.243-.081q-.117-.027-.207-.045V-8.1h3.708v.27a1.138,1.138,0,0,1-.158.03q-.09.009-.18.009a1.7,1.7,0,0,0-.486.135.369.369,0,0,0-.216.369.566.566,0,0,0,.009.09.566.566,0,0,1,.009.09l.036.144a.4.4,0,0,0,.054.126.934.934,0,0,0,.036.117q.018.045.036.081L45.468-2.1l1.4-4q.018-.054.045-.126a1.5,1.5,0,0,1,.063-.144q.108-.306.207-.576a1.363,1.363,0,0,0,.1-.36.418.418,0,0,0-.2-.378,1.122,1.122,0,0,0-.594-.126h-.072V-8.1ZM56.25,0V-.342a1.921,1.921,0,0,0,1.305-.351,1.98,1.98,0,0,0,.279-1.251v-8.01a1.934,1.934,0,0,0-.27-1.26,2.281,2.281,0,0,0-1.314-.342v-.36h4.86a8.526,8.526,0,0,1,5.211,1.5A5.284,5.284,0,0,1,68.292-5.9a6.1,6.1,0,0,1-.072.909,7.825,7.825,0,0,1-.22.977,6.01,6.01,0,0,1-2,2.763A7.191,7.191,0,0,1,61.362,0Zm3.42-10.548V-1.4a.7.7,0,0,0,.216.612,1.735,1.735,0,0,0,.864.144q.36,0,1.1-.054a5.919,5.919,0,0,0,1.55-.346,4.942,4.942,0,0,0,2.016-1.5,5.1,5.1,0,0,0,.918-3.339,6.644,6.644,0,0,0-.369-2.2,4.471,4.471,0,0,0-1.305-1.89,4.971,4.971,0,0,0-1.539-.918,7.611,7.611,0,0,0-2.6-.342q-.63,0-.738.216a1.072,1.072,0,0,0-.108.486Zm18.324,9.36V-.72a2.179,2.179,0,0,1-.972.792,2.73,2.73,0,0,1-.63.108q-.09,0-.234-.009A.745.745,0,0,1,75.87.09a1.047,1.047,0,0,1-.414-.351,1.6,1.6,0,0,1-.234-.855,1.64,1.64,0,0,1-.153.135L74.9-.846a5.958,5.958,0,0,1-1.062.711A2.582,2.582,0,0,1,72.612.18,2.049,2.049,0,0,1,71.3-.3a1.663,1.663,0,0,1-.6-1.374,2.1,2.1,0,0,1,.549-1.512,5.435,5.435,0,0,1,1.611-1.08q.486-.234,1.071-.468t1.269-.5v-1.12a1.482,1.482,0,0,0-.288-1.017,1.308,1.308,0,0,0-.63-.4,1.228,1.228,0,0,0-.243-.045q-.117-.009-.225-.009h-.1a.34.34,0,0,0-.108.018,1.53,1.53,0,0,0-.729.261.7.7,0,0,0-.333.6,1.155,1.155,0,0,0,.018.207q.018.1.036.189a.786.786,0,0,0,.018.171.644.644,0,0,1,.018.135v.054a.764.764,0,0,1-.243.5.769.769,0,0,1-.567.225.663.663,0,0,1-.459-.153,1.122,1.122,0,0,1-.261-.333q-.018-.09-.036-.162a.592.592,0,0,1-.018-.144,1.2,1.2,0,0,1,.063-.36,1.7,1.7,0,0,1,.189-.4,2.675,2.675,0,0,1,.936-.855,3.392,3.392,0,0,1,1.746-.387,2.639,2.639,0,0,1,1.971.576,2.517,2.517,0,0,1,.657,1.26q.036.27.045.54t.009.5V-1.89a3.892,3.892,0,0,0,.063.738q.063.324.459.324a.957.957,0,0,0,.432-.09,1.525,1.525,0,0,0,.324-.216.037.037,0,0,0,.027-.009l.027-.027ZM75.2-2.214v-2.61q-.432.162-.783.306a5.775,5.775,0,0,0-.639.306,2.733,2.733,0,0,0-1.26,1.053,2.186,2.186,0,0,0-.234.873v.018a1.506,1.506,0,0,0,.342,1.035,1.084,1.084,0,0,0,.846.387.916.916,0,0,0,.18-.018q.09-.018.2-.036a1.421,1.421,0,0,0,.216-.054q.108-.036.2-.072a1.118,1.118,0,0,0,.189-.081.84.84,0,0,1,.135-.063,1.006,1.006,0,0,1,.108-.063.825.825,0,0,1,.108-.045.769.769,0,0,0,.333-.378A1.846,1.846,0,0,0,75.2-2.2ZM87.7-8.1v.27a1.046,1.046,0,0,0-.45.144,1.046,1.046,0,0,0-.306.36q-.09.162-.189.387t-.225.531l-2.3,5.76q-.144.378-.27.639t-.216.261a.3.3,0,0,1-.072-.009A.081.081,0,0,1,83.61.2a.555.555,0,0,1-.144-.225Q83.394-.2,83.25-.576q-.162-.432-.549-1.368t-.819-1.962q-.036-.072-.063-.135t-.045-.117L81.018-5.9q-.356-.819-.576-1.251a1.032,1.032,0,0,0-.459-.531,1.541,1.541,0,0,0-.531-.135V-8.1H82.98v.27a2.553,2.553,0,0,0-.58.13.4.4,0,0,0-.252.432.5.5,0,0,0,.009.1.505.505,0,0,1,.009.1q.018.072.036.135t.036.117q.018.054.036.1a.877.877,0,0,0,.036.081l1.836,4.59q.162-.432.369-.954t.423-1.062q.414-1.026.756-1.926a4.356,4.356,0,0,0,.342-1.224.463.463,0,0,0-.252-.441A1.4,1.4,0,0,0,85.19-7.8v-.3ZM89.478,0V-.27a1.924,1.924,0,0,0,1.134-.261q.288-.243.288-1.287V-6.012a1.465,1.465,0,0,0-.162-.855.529.529,0,0,0-.342-.207H90.27q-.18,0-.36.018A3.36,3.36,0,0,0,89.55-7v-.29a6.8,6.8,0,0,0,.7-.216q.342-.126.7-.252.342-.126.693-.252t.693-.252l.072.036v6.39a2.529,2.529,0,0,0,.2,1.215q.2.315,1.134.369V0Zm1.116-11.376a.774.774,0,0,1,.018-.144,1.027,1.027,0,0,1,.054-.18,1.117,1.117,0,0,1,.288-.4.773.773,0,0,1,.54-.18.9.9,0,0,1,.675.27.9.9,0,0,1,.261.648.891.891,0,0,1-.261.657.913.913,0,0,1-.675.261.807.807,0,0,1-.549-.18.909.909,0,0,1-.279-.4,1.026,1.026,0,0,1-.054-.18.833.833,0,0,1-.018-.162ZM104.112-1.044v.288a1.935,1.935,0,0,1-.288.117q-.144.045-.288.1a.052.052,0,0,1-.036.018.052.052,0,0,0-.036.018q-.486.162-.972.333t-1.026.35l-.072-.054v-1.1h-.036a1.72,1.72,0,0,1-.117.171l-.135.171a2.823,2.823,0,0,1-.783.558A2.84,2.84,0,0,1,99.036.18a4.332,4.332,0,0,1-.648-.072,2.923,2.923,0,0,1-.9-.324A3.5,3.5,0,0,1,96.3-1.4a4.474,4.474,0,0,1-.54-2.43,4.7,4.7,0,0,1,1.107-3.1,3.315,3.315,0,0,1,2.619-1.332,2.666,2.666,0,0,1,.846.126,2.87,2.87,0,0,1,.738.378,1.643,1.643,0,0,0,.153.135l.171.135v-2.826a1.794,1.794,0,0,0-.1-.648q-.1-.252-.693-.252h-.288a.3.3,0,0,0-.072.009.3.3,0,0,1-.072.009v-.3q.684-.162,1.341-.351t1.305-.423l.09.018v10.19a2.15,2.15,0,0,0,.108.782q.108.261.774.261h.126a.052.052,0,0,0,.036-.018h.162Zm-2.718-.792v-4.14a1.883,1.883,0,0,0-.612-1.3,1.9,1.9,0,0,0-1.134-.477H99.54a1.48,1.48,0,0,0-.225.018l-.243.036a2.271,2.271,0,0,0-1.215.945,4.012,4.012,0,0,0-.549,2.331A4.287,4.287,0,0,0,98-1.719a2.378,2.378,0,0,0,1.521.963.956.956,0,0,1,.135.009.956.956,0,0,0,.135.009,1.864,1.864,0,0,0,1.035-.3,1.231,1.231,0,0,0,.567-.783ZM119.07-.342V0h-5.256V-.342q1.224-.036,1.458-.423a2.869,2.869,0,0,0,.234-1.377V-11.16h-.972a3.574,3.574,0,0,0-2.016.432,3.252,3.252,0,0,0-.846,1.89l-.432-.018.108-3.06H121.5l.108,3.06h-.432a3.134,3.134,0,0,0-.828-1.881,3.608,3.608,0,0,0-2.034-.4l-.972-.018v9.2a1.969,1.969,0,0,0,.3,1.269,2.132,2.132,0,0,0,1.431.369Zm12.708.072V0h-3.816V-.27a1.763,1.763,0,0,0,.945-.279q.279-.225.279-1.269V-5.4a2.547,2.547,0,0,0-.324-1.386,1.167,1.167,0,0,0-1.062-.5,2.114,2.114,0,0,0-.9.243,3.481,3.481,0,0,0-1.062.891v4.32q0,1.062.279,1.287a1.857,1.857,0,0,0,.945.3V0h-3.888V-.27a1.472,1.472,0,0,0,.945-.315,2.244,2.244,0,0,0,.207-1.233v-8.5a1.794,1.794,0,0,0-.1-.648q-.1-.252-.693-.252h-.144a.831.831,0,0,0-.117.009.77.77,0,0,1-.081.009v-.3q.486-.126,1-.279t1.035-.315a1.912,1.912,0,0,1,.261-.09,1.912,1.912,0,0,0,.261-.09l.09.036V-6.8h.036A3.71,3.71,0,0,1,127-7.866a2.787,2.787,0,0,1,1.467-.4,1.943,1.943,0,0,1,1.458.486,2.5,2.5,0,0,1,.63,1.062,3.281,3.281,0,0,1,.126.738q.018.36.018.576V-1.84a2.422,2.422,0,0,0,.18,1.2,1.265,1.265,0,0,0,.756.369.3.3,0,0,1,.072.009.3.3,0,0,0,.072.009ZM137.5-8.28a4.07,4.07,0,0,1,2.907,1.125,4.073,4.073,0,0,1,1.143,3.069,4.384,4.384,0,0,1-.045.621,3.654,3.654,0,0,1-.153.639,4.766,4.766,0,0,1-1.26,2.07,3.429,3.429,0,0,1-2.538.936,3.644,3.644,0,0,1-2.844-1.224,4.388,4.388,0,0,1-1.1-3.042A4.436,4.436,0,0,1,134.658-7,3.5,3.5,0,0,1,137.5-8.26Zm.306,7.956a1.016,1.016,0,0,0,.27,0,1.266,1.266,0,0,0,.288-.072,2.147,2.147,0,0,0,1.071-.891,4.068,4.068,0,0,0,.495-2.277,6.189,6.189,0,0,0-.666-2.934,2.077,2.077,0,0,0-1.908-1.26,1.954,1.954,0,0,0-1.485.7,3.038,3.038,0,0,0-.639,2.106q0,.378.054.927a7.779,7.779,0,0,0,.2,1.125,5.13,5.13,0,0,0,.765,1.782,1.772,1.772,0,0,0,1.557.81Zm6.732-1.188v-4.5a1.465,1.465,0,0,0-.162-.855.529.529,0,0,0-.342-.207h-.126a2.86,2.86,0,0,0-.333.018A1.771,1.771,0,0,0,143.3-7v-.306q.324-.09.657-.207t.675-.243q.342-.108.675-.243t.657-.261l.09.018v1.6h.036a6.083,6.083,0,0,1,.882-1.08,1.968,1.968,0,0,1,.792-.468,1.368,1.368,0,0,1,.225-.054,1.6,1.6,0,0,1,.243-.018.955.955,0,0,1,.72.261.98.98,0,0,1,.252.711.879.879,0,0,1-.18.567.609.609,0,0,1-.5.225.746.746,0,0,1-.4-.1,2.229,2.229,0,0,1-.306-.225.282.282,0,0,1-.072-.054l-.072-.072a1.3,1.3,0,0,0-.189-.126.426.426,0,0,0-.207-.054.475.475,0,0,0-.225.063,1.4,1.4,0,0,0-.243.171,1.722,1.722,0,0,0-.342.324,2.225,2.225,0,0,0-.27.414,1.091,1.091,0,0,0-.108.261.954.954,0,0,0-.036.243V-1.62q0,.954.423,1.143a3.154,3.154,0,0,0,1.107.225V0h-4.32V-.27a.787.787,0,0,0,.171-.018.706.706,0,0,1,.153-.018,1.478,1.478,0,0,0,.747-.315,1.287,1.287,0,0,0,.207-.873Zm13.05-1.44.288.126a4.27,4.27,0,0,1-.243.6,4.315,4.315,0,0,1-.549.855A4.6,4.6,0,0,1,155.9-.3a3.316,3.316,0,0,1-1.836.477,3.1,3.1,0,0,1-2.43-1.053,4.307,4.307,0,0,1-.936-2.961,4.579,4.579,0,0,1,.756-2.826,3.965,3.965,0,0,1,1.674-1.35,3.842,3.842,0,0,1,.639-.189,3.076,3.076,0,0,1,.6-.063,3.148,3.148,0,0,1,2.151.765,3.625,3.625,0,0,1,1.017,2.529h-5.6a5.206,5.206,0,0,0,.783,2.813,2.706,2.706,0,0,0,1.431,1.039,3.014,3.014,0,0,0,.324.054,2.956,2.956,0,0,0,.324.018,2.461,2.461,0,0,0,1.377-.36,4.089,4.089,0,0,0,.909-.792q.162-.2.288-.387t.216-.351Zm-5.6-2.61H155.7q-.018-.126-.045-.279t-.063-.315a2.751,2.751,0,0,0-.459-1,1.341,1.341,0,0,0-1.161-.459,1.863,1.863,0,0,0-1.251.437,2.737,2.737,0,0,0-.729,1.616ZM167.27-1.188V-.72a2.179,2.179,0,0,1-.972.792,2.73,2.73,0,0,1-.63.108q-.09,0-.234-.009A.745.745,0,0,1,165.15.09a1.047,1.047,0,0,1-.414-.351,1.6,1.6,0,0,1-.234-.855,1.639,1.639,0,0,1-.153.135l-.171.135a5.958,5.958,0,0,1-1.062.711,2.582,2.582,0,0,1-1.224.315,2.049,2.049,0,0,1-1.314-.48,1.663,1.663,0,0,1-.594-1.377,2.1,2.1,0,0,1,.549-1.512,5.434,5.434,0,0,1,1.611-1.08q.486-.234,1.071-.468t1.269-.5V-6.354a1.482,1.482,0,0,0-.288-1.017,1.308,1.308,0,0,0-.63-.4,1.228,1.228,0,0,0-.243-.045q-.117-.009-.225-.009h-.108a.34.34,0,0,0-.108.018,1.53,1.53,0,0,0-.729.261.7.7,0,0,0-.333.6,1.152,1.152,0,0,0,.018.207q.018.1.036.189a.787.787,0,0,0,.018.171.643.643,0,0,1,.018.135v.054a.763.763,0,0,1-.243.5.769.769,0,0,1-.567.225.663.663,0,0,1-.459-.153,1.122,1.122,0,0,1-.261-.333q-.018-.09-.036-.162a.591.591,0,0,1-.018-.144,1.2,1.2,0,0,1,.063-.36,1.7,1.7,0,0,1,.189-.4,2.676,2.676,0,0,1,.936-.855,3.392,3.392,0,0,1,1.746-.387,2.638,2.638,0,0,1,1.971.576,2.517,2.517,0,0,1,.657,1.26q.036.27.045.54t.009.5V-1.89a3.892,3.892,0,0,0,.063.738q.063.324.459.324a.957.957,0,0,0,.432-.09,1.525,1.525,0,0,0,.324-.216.037.037,0,0,0,.027-.009l.027-.027Zm-2.79-1.026v-2.61q-.432.162-.783.306a5.775,5.775,0,0,0-.639.306,2.733,2.733,0,0,0-1.26,1.053,2.186,2.186,0,0,0-.234.873v.018a1.506,1.506,0,0,0,.342,1.035,1.084,1.084,0,0,0,.846.387.916.916,0,0,0,.18-.018q.09-.018.2-.036a1.421,1.421,0,0,0,.216-.054q.108-.036.2-.072a1.116,1.116,0,0,0,.189-.081.84.84,0,0,1,.135-.063,1.006,1.006,0,0,1,.108-.063.825.825,0,0,1,.108-.045.769.769,0,0,0,.333-.378,1.845,1.845,0,0,0,.063-.54ZM177.012-.9v.252q-.468.144-.864.261t-.774.261q-.2.072-.414.135t-.45.153l-.036-.036V-1.368l-.774.774a1.89,1.89,0,0,1-.252.243,2.076,2.076,0,0,1-.252.171,2.619,2.619,0,0,1-.819.3,3.956,3.956,0,0,1-.567.063,2.424,2.424,0,0,1-.4-.036,2.319,2.319,0,0,1-.45-.126,2.091,2.091,0,0,1-.891-.684,2.314,2.314,0,0,1-.4-1.476V-6.7q0-.738-.315-.918a1.731,1.731,0,0,0-.711-.216h-.09V-8.1h2.628v5.868a1.55,1.55,0,0,0,.036.288,2.127,2.127,0,0,0,.126.4,1.471,1.471,0,0,0,.4.477,1.217,1.217,0,0,0,.783.225,1.939,1.939,0,0,0,.81-.18,3.582,3.582,0,0,0,.756-.468.809.809,0,0,0,.207-.288,1.7,1.7,0,0,0,.081-.63V-6.66a1.47,1.47,0,0,0-.189-.81q-.189-.288-1.143-.306V-8.1H175.9v6.159a1.775,1.775,0,0,0,.135.763q.135.278.855.278h.126Z" transform="translate(50.001 508.248)" fill="#fff"/>
      <path id="Path_2776" data-name="Path 2776" d="M.966-21.605H25.517l.233,7.384h-1.04q-.764-3.48-1.941-4.53T17.814-19.8H15.395V2.433q0,2.525.785,3.13a7.209,7.209,0,0,0,3.437.8v.786H6.95V6.359q2.758-.212,3.437-.913t.678-3.523V-19.8H8.647q-3.607,0-4.912,1.04T1.772-14.224H.711ZM28.348,6.55a3.715,3.715,0,0,0,2.281-.859,5.144,5.144,0,0,0,.541-2.96V-17.64a3.8,3.8,0,0,0-.308-1.751q-.308-.562-1.5-.562a3.222,3.222,0,0,0-.456.032l-.5.074v-.764q.934-.276,2.3-.669t1.9-.562l2.038-.637.043.149V-9.3a13.891,13.891,0,0,1,2.377-2.249A7.02,7.02,0,0,1,41.1-12.823a4.654,4.654,0,0,1,4.689,2.886,9.983,9.983,0,0,1,.679,4.011V2.73a5.381,5.381,0,0,0,.52,2.925,3.147,3.147,0,0,0,2.135.894v.594H39.934V6.55a3.962,3.962,0,0,0,2.377-.87,5.164,5.164,0,0,0,.531-2.949V-5.863a6.982,6.982,0,0,0-.689-3.331,2.685,2.685,0,0,0-2.6-1.273,5.207,5.207,0,0,0-3.2,1.188Q34.8-8.091,34.8-7.732V2.73q0,2.377.552,2.971a4.125,4.125,0,0,0,2.355.848v.594h-9.36Zm26.215-26.8a2.18,2.18,0,0,1,.637-1.57,2.1,2.1,0,0,1,1.57-.658,2.126,2.126,0,0,1,1.559.647,2.15,2.15,0,0,1,.647,1.581,2.126,2.126,0,0,1-.647,1.559,2.126,2.126,0,0,1-1.559.647,2.116,2.116,0,0,1-1.57-.647,2.144,2.144,0,0,1-.637-1.559ZM51.848,6.55a5.412,5.412,0,0,0,2.865-.775q.594-.562.594-3.045V-7.392a6.435,6.435,0,0,0-.191-1.91,1.283,1.283,0,0,0-1.337-.87,2.433,2.433,0,0,0-.456.043q-.223.043-1.284.339v-.658l.913-.293q3.713-1.209,5.182-1.825a2.764,2.764,0,0,1,.764-.251,1.154,1.154,0,0,1,.043.318V2.737q0,2.419.585,3.035a4.362,4.362,0,0,0,2.642.785v.588H51.848ZM66.626.458h.7a11.084,11.084,0,0,0,1.315,3.713A4.815,4.815,0,0,0,72.992,6.55a3.492,3.492,0,0,0,2.515-.881,3.009,3.009,0,0,0,.919-2.281A3.141,3.141,0,0,0,75.9,1.669,5.44,5.44,0,0,0,74.028.056L71.655-1.3a13.548,13.548,0,0,1-3.844-2.822A4.958,4.958,0,0,1,66.58-7.476a5.014,5.014,0,0,1,1.7-3.9,6.137,6.137,0,0,1,4.262-1.528,8.285,8.285,0,0,1,2.472.425,11.455,11.455,0,0,0,1.517.425,1.086,1.086,0,0,0,.552-.106.888.888,0,0,0,.3-.339h.509l.149,5.92h-.658a9.816,9.816,0,0,0-1.146-3.2,4.211,4.211,0,0,0-3.791-2.122A3.031,3.031,0,0,0,70.106-11a3.045,3.045,0,0,0-.849,2.143q0,1.952,2.925,3.48l2.8,1.5Q79.5-1.41,79.5,1.858a5.123,5.123,0,0,1-1.878,4.1,7.338,7.338,0,0,1-4.912,1.588,11.476,11.476,0,0,1-2.886-.425,13.031,13.031,0,0,0-1.91-.425.628.628,0,0,0-.445.181,1.254,1.254,0,0,0-.293.439h-.552Zm48.336-12.369a6.839,6.839,0,0,0-1.889.425,1.086,1.086,0,0,0-.615,1.1,3.32,3.32,0,0,0,.138.919q.138.477.371,1.114l3.862,10.08,3.777-9.21a16.135,16.135,0,0,0,.552-1.559,5.479,5.479,0,0,0,.3-1.453,1.111,1.111,0,0,0-.488-1.061,4.1,4.1,0,0,0-1.421-.4v-.615h5.39v.615a1.484,1.484,0,0,0-.87.509,8.65,8.65,0,0,0-.955,1.91L116.32,7.207a1.513,1.513,0,0,1-.149.276.223.223,0,0,1-.191.084.709.709,0,0,1-.3-.212l-4.8-11.861L105.306,7.311a.53.53,0,0,1-.117.181.246.246,0,0,1-.181.074.709.709,0,0,1-.3-.212L98.367-8.285a20.576,20.576,0,0,0-1.379-3.024,1.974,1.974,0,0,0-1.337-.605v-.658H103.5v.658a4.185,4.185,0,0,0-1.5.35,1.151,1.151,0,0,0-.52,1.135,13.06,13.06,0,0,0,.87,3.013q.509,1.379,1.295,3.353l2.419,6.026,3.819-8.19.043-.251a5.419,5.419,0,0,0-.456-1.581q-.456-1.157-.881-2.069a3.083,3.083,0,0,0-.965-1.326,3.156,3.156,0,0,0-1.517-.456v-.658h8.849Zm13.59,9.21a10.159,10.159,0,0,1,2.684-7.14,8.962,8.962,0,0,1,6.907-2.918A9.435,9.435,0,0,1,145.1-10a9.923,9.923,0,0,1,2.758,7.342,10.924,10.924,0,0,1-2.674,7.342A8.692,8.692,0,0,1,138.27,7.8a9.118,9.118,0,0,1-6.9-2.992A10.518,10.518,0,0,1,128.551-2.7Zm9-8.785a4.212,4.212,0,0,0-2.907,1.1q-2.122,1.931-2.122,6.663a14.982,14.982,0,0,0,1.708,7.045q1.708,3.268,4.743,3.268a4.032,4.032,0,0,0,3.66-2.185,11.231,11.231,0,0,0,1.284-5.729,15.179,15.179,0,0,0-1.634-6.917q-1.634-3.248-4.732-3.248ZM150.67,6.444a5.136,5.136,0,0,0,2.591-.689,2.844,2.844,0,0,0,.637-2.217V-6.034a8.19,8.19,0,0,0-.393-3,1.431,1.431,0,0,0-1.432-.9,3.943,3.943,0,0,0-.562.053q-.35.053-.732.138v-.7l2.483-.87q1.273-.445,1.761-.637,1.061-.4,2.185-.913.149,0,.181.106a1.933,1.933,0,0,1,.032.445v3.48a16.212,16.212,0,0,1,2.621-2.949,4.037,4.037,0,0,1,2.621-1.061,2.448,2.448,0,0,1,1.761.647,2.149,2.149,0,0,1,.679,1.623,2.144,2.144,0,0,1-.52,1.464,1.661,1.661,0,0,1-1.305.594,2.441,2.441,0,0,1-1.623-.743A2.3,2.3,0,0,0,160.369-10q-.743,0-1.825,1.2a3.677,3.677,0,0,0-1.082,2.472V3.239a3.17,3.17,0,0,0,.849,2.536,4.262,4.262,0,0,0,2.822.669v.7H150.672Zm16.476.106a5.024,5.024,0,0,0,2.674-.8,3.075,3.075,0,0,0,.7-2.366V-17.343a5.414,5.414,0,0,0-.233-1.931,1.711,1.711,0,0,0-1.719-.891,3.636,3.636,0,0,0-.647.064q-.35.064-.881.191v-.7q2.865-.764,6.9-2.037a.167.167,0,0,1,.181.127,2.91,2.91,0,0,1,.032.552V3.473a3.178,3.178,0,0,0,.637,2.387,4.955,4.955,0,0,0,2.631.689v.6H167.148Zm22.778-19.458a6.026,6.026,0,0,1,2.841.679A6.789,6.789,0,0,1,194.4-11v-6.748a3.852,3.852,0,0,0-.287-1.783q-.287-.488-1.369-.488a4.1,4.1,0,0,0-.445.021q-.191.021-.849.084v-.7l1.74-.445q.955-.251,1.91-.531t1.676-.531q.339-.106,1.125-.4l.127.043-.043,2.228q-.021,1.209-.043,2.493t-.021,2.536l-.037,17.336a3.938,3.938,0,0,0,.339,1.931q.339.552,1.8.552.233,0,.467-.011a3.5,3.5,0,0,0,.467-.053v.7L197.883,6.3l-3.331,1.254-.149-.191V4.746a11.077,11.077,0,0,1-2.058,1.846,6.694,6.694,0,0,1-3.586.954,7.14,7.14,0,0,1-5.85-2.79A10.029,10.029,0,0,1,180.67-1.7a12.13,12.13,0,0,1,2.684-7.9,8.177,8.177,0,0,1,6.571-3.3Zm.785,18.164a3.7,3.7,0,0,0,2.674-.976A2.7,2.7,0,0,0,194.4,2.434v-9.1q0-2.758-1.475-3.894a4.746,4.746,0,0,0-2.875-1.135,4.659,4.659,0,0,0-4.159,2.366,10.75,10.75,0,0,0-1.485,5.825,11.737,11.737,0,0,0,1.581,6.09,5.143,5.143,0,0,0,4.724,2.673ZM218.4-20.25a2.18,2.18,0,0,1,.637-1.57,2.1,2.1,0,0,1,1.57-.658,2.126,2.126,0,0,1,1.559.647,2.15,2.15,0,0,1,.647,1.581,2.126,2.126,0,0,1-.647,1.559,2.126,2.126,0,0,1-1.559.647,2.116,2.116,0,0,1-1.57-.647,2.144,2.144,0,0,1-.634-1.559Zm-2.714,26.8a5.412,5.412,0,0,0,2.865-.775q.594-.562.594-3.045V-7.392a6.435,6.435,0,0,0-.191-1.91,1.283,1.283,0,0,0-1.337-.87,2.432,2.432,0,0,0-.456.043q-.223.043-1.284.339v-.658l.913-.3q3.713-1.209,5.182-1.825a2.764,2.764,0,0,1,.764-.251,1.156,1.156,0,0,1,.043.318V2.734q0,2.419.585,3.035A4.362,4.362,0,0,0,226,6.553v.591H215.688ZM230.461.458h.7a11.083,11.083,0,0,0,1.315,3.713,4.815,4.815,0,0,0,4.351,2.378,3.493,3.493,0,0,0,2.515-.881,3.009,3.009,0,0,0,.919-2.281,3.142,3.142,0,0,0-.531-1.719A5.44,5.44,0,0,0,237.864.056L235.487-1.3a13.548,13.548,0,0,1-3.844-2.822,4.958,4.958,0,0,1-1.231-3.353,5.014,5.014,0,0,1,1.7-3.9,6.137,6.137,0,0,1,4.262-1.528,8.285,8.285,0,0,1,2.472.425,11.454,11.454,0,0,0,1.517.425,1.086,1.086,0,0,0,.552-.106.888.888,0,0,0,.3-.339h.509l.149,5.92h-.643a9.815,9.815,0,0,0-1.146-3.2,4.211,4.211,0,0,0-3.8-2.122,3.031,3.031,0,0,0-2.334.913,3.045,3.045,0,0,0-.849,2.143q0,1.952,2.925,3.48l2.8,1.5q4.52,2.461,4.52,5.729a5.123,5.123,0,0,1-1.878,4.1,7.338,7.338,0,0,1-4.912,1.588,11.476,11.476,0,0,1-2.886-.425,13.031,13.031,0,0,0-1.91-.425.628.628,0,0,0-.445.181,1.254,1.254,0,0,0-.3.435h-.552ZM258.745-19.85v-.721a39.951,39.951,0,0,0,4.35-1.231,21.046,21.046,0,0,1,2.079-.679.8.8,0,0,1,.043.251V-9.307a6.669,6.669,0,0,1,1.655-1.931,6.915,6.915,0,0,1,4.5-1.588A6.727,6.727,0,0,1,276.7-10.2,10.274,10.274,0,0,1,278.9-3.363a11.158,11.158,0,0,1-2.865,7.7,9.62,9.62,0,0,1-7.532,3.207,12.063,12.063,0,0,1-4.626-.934q-2.271-.934-2.271-1.867V-17.683a3.348,3.348,0,0,0-.339-1.751q-.339-.52-1.57-.52Zm6.387,23.893a2.114,2.114,0,0,0,1.655,1.581,8.44,8.44,0,0,0,2.567.477,4.869,4.869,0,0,0,4.4-2.228,9.757,9.757,0,0,0,1.432-5.39,12.93,12.93,0,0,0-1.337-5.85,4.508,4.508,0,0,0-4.329-2.684,5.413,5.413,0,0,0-2.949.919,2.722,2.722,0,0,0-1.443,2.345ZM288.356-12.5V1.077a5.562,5.562,0,0,0,.4,2.313A2.916,2.916,0,0,0,291.645,5a4.907,4.907,0,0,0,2.822-.955,8.28,8.28,0,0,0,1.588-1.464V-9.047a2.7,2.7,0,0,0-.637-2.143,4.825,4.825,0,0,0-2.546-.615v-.7h6.853V2.433a2.879,2.879,0,0,0,.52,1.984,2.984,2.984,0,0,0,2.2.477v.594q-1.17.318-1.719.477t-1.846.585q-.552.191-2.419.913a.115.115,0,0,1-.127-.1,1.034,1.034,0,0,1-.016-.224V3.727a14.353,14.353,0,0,1-2.631,2.546,6.513,6.513,0,0,1-3.819,1.273,5.457,5.457,0,0,1-3.48-1.315q-1.655-1.295-1.655-4.35V-9.132a2.808,2.808,0,0,0-.721-2.271,4.338,4.338,0,0,0-2-.508V-12.5Zm27.362.084v1.528h-4.329L311.346,1.33a8.177,8.177,0,0,0,.276,2.44,1.961,1.961,0,0,0,1.995,1.464,2.4,2.4,0,0,0,1.326-.361,6.961,6.961,0,0,0,1.284-1.146l.552.467-.467.637a6.789,6.789,0,0,1-2.334,2.1,5.306,5.306,0,0,1-2.377.615,3.343,3.343,0,0,1-3.395-2.228,9.227,9.227,0,0,1-.488-3.353V-10.893h-2.31a.625.625,0,0,1-.159-.127.256.256,0,0,1-.053-.167.506.506,0,0,1,.1-.329,6.365,6.365,0,0,1,.605-.541,18.271,18.271,0,0,0,2.111-1.963q.647-.752,3.045-3.979a.708.708,0,0,1,.329.043q.053.043.053.318v5.22ZM12.569,35.5a19.429,19.429,0,0,0-4.032,1.783q-3.052,1.888-3.052,4.29a3.259,3.259,0,0,0,1.273,2.841,3.092,3.092,0,0,0,1.846.594,5.07,5.07,0,0,0,2.684-.785,2.3,2.3,0,0,0,1.28-2ZM1.7,43.037A6.044,6.044,0,0,1,4.782,37.9a46.424,46.424,0,0,1,7.787-3.459v-1.8a7.43,7.43,0,0,0-.418-3.014Q11.43,28.2,9.159,28.2a4.122,4.122,0,0,0-2.058.552,1.755,1.755,0,0,0-.976,1.57,5.756,5.756,0,0,0,.106.859,6.1,6.1,0,0,1,.106.775,1.764,1.764,0,0,1-.785,1.655,1.976,1.976,0,0,1-1.065.272,1.778,1.778,0,0,1-1.464-.626,2.149,2.149,0,0,1-.509-1.39,4.419,4.419,0,0,1,1.839-3.109,7.871,7.871,0,0,1,5.375-1.62q4.117,0,5.581,2.674a9.235,9.235,0,0,1,.785,4.262V42.59a5.694,5.694,0,0,0,.167,1.7,1.108,1.108,0,0,0,1.146.827,1.91,1.91,0,0,0,.806-.149,8.241,8.241,0,0,0,1.1-.721v1.1a6.906,6.906,0,0,1-1.464,1.358,4.266,4.266,0,0,1-2.419.806,2.362,2.362,0,0,1-2.089-.934,4.187,4.187,0,0,1-.711-2.228,19.983,19.983,0,0,1-2.758,2.079A7.229,7.229,0,0,1,6.2,47.576a4.412,4.412,0,0,1-3.161-1.283A4.322,4.322,0,0,1,1.7,43.036Zm41.97-15.788a7.672,7.672,0,0,1,4.58,1.368,3.786,3.786,0,0,1,1.922,3,2.038,2.038,0,0,1-.488,1.305,1.821,1.821,0,0,1-1.5.605,1.885,1.885,0,0,1-1.305-.509,2.951,2.951,0,0,1-.817-1.485l-.251-1.019a2.582,2.582,0,0,0-.955-1.588,3.4,3.4,0,0,0-1.846-.445A5.032,5.032,0,0,0,38.925,30.6a8.807,8.807,0,0,0-1.666,5.613A9.593,9.593,0,0,0,39.1,41.959,5.8,5.8,0,0,0,44.039,44.5a5.934,5.934,0,0,0,3.928-1.443,13.461,13.461,0,0,0,2.207-2.631l.594.361a16.821,16.821,0,0,1-2.546,4.032,7.8,7.8,0,0,1-5.941,2.841,7.959,7.959,0,0,1-5.857-2.61,9.714,9.714,0,0,1-2.546-7.087,11.057,11.057,0,0,1,2.777-7.553,8.95,8.95,0,0,1,7.023-3.162ZM65.923,35.5a19.429,19.429,0,0,0-4.032,1.783q-3.055,1.889-3.055,4.286a3.259,3.259,0,0,0,1.273,2.841,3.092,3.092,0,0,0,1.852.6,5.07,5.07,0,0,0,2.684-.785,2.3,2.3,0,0,0,1.284-1.995ZM55.058,43.037A6.044,6.044,0,0,1,58.135,37.9a46.423,46.423,0,0,1,7.787-3.459v-1.8a7.431,7.431,0,0,0-.425-3.013q-.721-1.421-2.992-1.421a4.122,4.122,0,0,0-2.058.552,1.755,1.755,0,0,0-.976,1.57,5.756,5.756,0,0,0,.106.859,6.1,6.1,0,0,1,.106.775,1.764,1.764,0,0,1-.785,1.655,1.976,1.976,0,0,1-1.061.276,1.778,1.778,0,0,1-1.464-.626,2.15,2.15,0,0,1-.509-1.39A4.419,4.419,0,0,1,57.7,28.767a7.891,7.891,0,0,1,5.38-1.623q4.117,0,5.581,2.674a9.235,9.235,0,0,1,.785,4.262v8.51a5.694,5.694,0,0,0,.167,1.7,1.108,1.108,0,0,0,1.146.827,1.91,1.91,0,0,0,.806-.149,8.241,8.241,0,0,0,1.1-.721v1.1a6.907,6.907,0,0,1-1.464,1.358,4.267,4.267,0,0,1-2.419.806,2.362,2.362,0,0,1-2.089-.934,4.187,4.187,0,0,1-.711-2.228,19.983,19.983,0,0,1-2.758,2.079,7.229,7.229,0,0,1-3.671,1.146A4.412,4.412,0,0,1,56.4,46.293a4.322,4.322,0,0,1-1.335-3.257Zm19.789,3.628a3.834,3.834,0,0,0,2.111-.752,3.589,3.589,0,0,0,.605-2.515V32.639a5.014,5.014,0,0,0-.251-1.91,1.666,1.666,0,0,0-1.655-.806,3.752,3.752,0,0,0-.393.021q-.2.021-.5.064v-.743q.87-.251,4.117-1.315l1.995-.658q.149,0,.181.106a1.087,1.087,0,0,1,.032.3v3.119a21.762,21.762,0,0,1,3.055-2.507,6.374,6.374,0,0,1,3.437-1.04,4.5,4.5,0,0,1,2.631.827Q92.5,29.706,92.5,33.844v9.914a3.239,3.239,0,0,0,.615,2.207,2.727,2.727,0,0,0,2.058.7v.593H86.113v-.594a3.635,3.635,0,0,0,2.165-.859,4.358,4.358,0,0,0,.615-2.811V33.933a6.073,6.073,0,0,0-.679-3.024,2.624,2.624,0,0,0-2.507-1.2,4.634,4.634,0,0,0-2.546.849,14.586,14.586,0,0,0-1.867,1.613V44.055a2.475,2.475,0,0,0,.679,2.048,3.722,3.722,0,0,0,2.143.562v.594H74.847Zm31.584-19.119V28.2a5.59,5.59,0,0,0-1.559.339.919.919,0,0,0-.456.934,2.173,2.173,0,0,0,.1.647q.1.308.329.9l4.413,10.968,3.819-9.719q.276-.7.52-1.464a4.206,4.206,0,0,0,.244-1.17,1.225,1.225,0,0,0-.785-1.188,4.366,4.366,0,0,0-1.273-.251v-.658h6.026v.66a1.968,1.968,0,0,0-1.5.689,14.64,14.64,0,0,0-1.326,2.791l-6.133,15.278a3.205,3.205,0,0,1-.276.552.344.344,0,0,1-.3.149.425.425,0,0,1-.361-.244,6.524,6.524,0,0,1-.318-.605l-6.494-15.533a6.214,6.214,0,0,0-1.676-2.567,3.376,3.376,0,0,0-1.549-.509v-.658ZM132.579,35.5a19.43,19.43,0,0,0-4.032,1.783q-3.055,1.889-3.055,4.286a3.259,3.259,0,0,0,1.273,2.841,3.092,3.092,0,0,0,1.846.594,5.07,5.07,0,0,0,2.684-.785,2.3,2.3,0,0,0,1.284-1.995Zm-10.864,7.533a6.044,6.044,0,0,1,3.077-5.136,46.423,46.423,0,0,1,7.787-3.459v-1.8a7.43,7.43,0,0,0-.418-3.014Q131.44,28.2,129.17,28.2a4.122,4.122,0,0,0-2.058.552,1.755,1.755,0,0,0-.976,1.57,5.755,5.755,0,0,0,.106.859,6.1,6.1,0,0,1,.106.775,1.764,1.764,0,0,1-.785,1.655,1.976,1.976,0,0,1-1.061.276,1.778,1.778,0,0,1-1.464-.626,2.15,2.15,0,0,1-.509-1.39,4.419,4.419,0,0,1,1.839-3.109,7.877,7.877,0,0,1,5.371-1.623q4.117,0,5.581,2.674a9.235,9.235,0,0,1,.785,4.262V42.59a5.693,5.693,0,0,0,.167,1.7,1.108,1.108,0,0,0,1.146.827,1.91,1.91,0,0,0,.806-.149,8.243,8.243,0,0,0,1.1-.721v1.1a6.906,6.906,0,0,1-1.464,1.358,4.266,4.266,0,0,1-2.419.806,2.362,2.362,0,0,1-2.089-.934,4.187,4.187,0,0,1-.711-2.228,19.982,19.982,0,0,1-2.758,2.079,7.229,7.229,0,0,1-3.671,1.146,4.412,4.412,0,0,1-3.162-1.284,4.322,4.322,0,0,1-1.336-3.257Zm21.254-2.464h.7a11.085,11.085,0,0,0,1.315,3.713,4.815,4.815,0,0,0,4.35,2.377,3.493,3.493,0,0,0,2.515-.881,3.009,3.009,0,0,0,.919-2.281,3.141,3.141,0,0,0-.531-1.719,5.44,5.44,0,0,0-1.867-1.613l-2.377-1.358a13.548,13.548,0,0,1-3.844-2.822,4.958,4.958,0,0,1-1.231-3.353,5.014,5.014,0,0,1,1.7-3.9,6.137,6.137,0,0,1,4.262-1.528,8.286,8.286,0,0,1,2.472.425,11.454,11.454,0,0,0,1.517.425,1.086,1.086,0,0,0,.552-.106.889.889,0,0,0,.3-.339h.509l.149,5.92h-.65a9.817,9.817,0,0,0-1.146-3.2,4.211,4.211,0,0,0-3.8-2.122,3.014,3.014,0,0,0-3.183,3.055q0,1.952,2.925,3.48l2.8,1.5q4.52,2.461,4.52,5.729a5.123,5.123,0,0,1-1.878,4.1,7.338,7.338,0,0,1-4.912,1.588,11.476,11.476,0,0,1-2.886-.425,13.03,13.03,0,0,0-1.91-.425.629.629,0,0,0-.445.181,1.254,1.254,0,0,0-.3.435h-.552Zm39.19-12.879v1.528H177.83l-.043,12.222a8.177,8.177,0,0,0,.276,2.44,1.961,1.961,0,0,0,1.995,1.464,2.4,2.4,0,0,0,1.326-.361,6.96,6.96,0,0,0,1.284-1.146l.552.467-.467.637a6.789,6.789,0,0,1-2.334,2.1,5.306,5.306,0,0,1-2.377.615,3.343,3.343,0,0,1-3.395-2.228,9.227,9.227,0,0,1-.488-3.353V29.222h-2.313a.624.624,0,0,1-.159-.127.257.257,0,0,1-.053-.167.506.506,0,0,1,.1-.329,6.364,6.364,0,0,1,.605-.541,18.271,18.271,0,0,0,2.111-1.963q.647-.752,3.045-3.979a.708.708,0,0,1,.329.043q.053.043.053.318v5.217Zm3.426,9.719a10.159,10.159,0,0,1,2.684-7.14,8.961,8.961,0,0,1,6.907-2.918,9.435,9.435,0,0,1,6.96,2.758,9.923,9.923,0,0,1,2.758,7.342A10.924,10.924,0,0,1,202.22,44.8a8.692,8.692,0,0,1-6.917,3.119,9.118,9.118,0,0,1-6.9-2.992,10.518,10.518,0,0,1-2.822-7.511Zm9-8.785a4.212,4.212,0,0,0-2.907,1.1q-2.122,1.931-2.122,6.663a14.982,14.982,0,0,0,1.708,7.045q1.708,3.268,4.743,3.268a4.032,4.032,0,0,0,3.66-2.185,11.231,11.231,0,0,0,1.284-5.729,15.178,15.178,0,0,0-1.634-6.917Q197.682,28.628,194.582,28.628ZM1.22,80.035A10.159,10.159,0,0,1,3.9,72.895a8.961,8.961,0,0,1,6.91-2.918,9.435,9.435,0,0,1,6.96,2.758,9.923,9.923,0,0,1,2.758,7.342,10.924,10.924,0,0,1-2.674,7.342,8.692,8.692,0,0,1-6.917,3.119,9.118,9.118,0,0,1-6.9-2.992A10.518,10.518,0,0,1,1.22,80.035Zm9-8.785a4.212,4.212,0,0,0-2.907,1.1q-2.122,1.931-2.122,6.663A14.982,14.982,0,0,0,6.9,86.062q1.708,3.268,4.743,3.268a4.032,4.032,0,0,0,3.66-2.185,11.231,11.231,0,0,0,1.284-5.729A15.178,15.178,0,0,0,14.949,74.5Q13.315,71.25,10.217,71.25Zm19.659-1.019V83.812a5.563,5.563,0,0,0,.4,2.313,2.916,2.916,0,0,0,2.886,1.613,4.907,4.907,0,0,0,2.822-.955,8.28,8.28,0,0,0,1.588-1.464V73.69a2.7,2.7,0,0,0-.637-2.143,4.825,4.825,0,0,0-2.546-.615v-.7h6.853V85.171a2.879,2.879,0,0,0,.52,1.984,2.984,2.984,0,0,0,2.2.477v.594q-1.17.318-1.719.477t-1.846.585q-.552.191-2.419.913a.115.115,0,0,1-.127-.1,1.037,1.037,0,0,1-.016-.225V86.464A14.353,14.353,0,0,1,35.2,89.011a6.513,6.513,0,0,1-3.819,1.273,5.457,5.457,0,0,1-3.48-1.315q-1.655-1.295-1.655-4.35V73.605a2.808,2.808,0,0,0-.721-2.271,4.338,4.338,0,0,0-1.995-.509v-.594Zm16.5,18.949a5.136,5.136,0,0,0,2.591-.689,2.844,2.844,0,0,0,.637-2.217V76.7a8.19,8.19,0,0,0-.393-3,1.431,1.431,0,0,0-1.432-.9,3.943,3.943,0,0,0-.562.053q-.35.053-.732.138v-.7l2.483-.87q1.273-.445,1.761-.637,1.061-.4,2.185-.913.149,0,.181.106a1.933,1.933,0,0,1,.032.445V73.9a16.213,16.213,0,0,1,2.621-2.949,4.037,4.037,0,0,1,2.621-1.061,2.448,2.448,0,0,1,1.761.647,2.3,2.3,0,0,1,.159,3.087,1.661,1.661,0,0,1-1.305.594,2.441,2.441,0,0,1-1.623-.743,2.3,2.3,0,0,0-1.284-.743q-.743,0-1.825,1.2A3.677,3.677,0,0,0,53.165,76.4v9.57a3.17,3.17,0,0,0,.849,2.536,4.262,4.262,0,0,0,2.822.669v.7H46.373ZM77.691,62.487a2.18,2.18,0,0,1,.637-1.57,2.1,2.1,0,0,1,1.57-.658,2.126,2.126,0,0,1,1.559.647,2.15,2.15,0,0,1,.647,1.581,2.207,2.207,0,1,1-4.414,0Zm-2.716,26.8a5.412,5.412,0,0,0,2.865-.775q.594-.562.594-3.045V75.345a6.435,6.435,0,0,0-.191-1.91,1.283,1.283,0,0,0-1.337-.87,2.433,2.433,0,0,0-.456.043q-.223.043-1.284.339V72.29l.913-.3q3.713-1.209,5.182-1.825a2.764,2.764,0,0,1,.764-.251,1.154,1.154,0,0,1,.043.318V85.471q0,2.419.585,3.035a4.362,4.362,0,0,0,2.642.785v.591H74.974Zm13.23.043a4.847,4.847,0,0,0,2.207-.552,2.892,2.892,0,0,0,.849-2.461V75.345a3.453,3.453,0,0,0-.418-2.058,1.7,1.7,0,0,0-1.369-.488,3.873,3.873,0,0,0-.669.043,3.561,3.561,0,0,0-.52.149v-.743l1.528-.509q.827-.276,2.716-1t1.995-.721a.118.118,0,0,1,.127.106,2.47,2.47,0,0,1,.021.4v2.865A16.19,16.19,0,0,1,98.3,70.752a7.187,7.187,0,0,1,3.141-.732,4.383,4.383,0,0,1,3.48,1.485,6.448,6.448,0,0,1,1.125,2.185,17.7,17.7,0,0,1,2.737-2.355A7.452,7.452,0,0,1,112.9,70.02a4.451,4.451,0,0,1,4.562,2.78,13.769,13.769,0,0,1,.659,4.963v8.806a2.537,2.537,0,0,0,.669,2.048,4.708,4.708,0,0,0,2.409.711v.553H111.63v-.594a4.184,4.184,0,0,0,2.429-.743,3.355,3.355,0,0,0,.585-2.334V77.064a7.731,7.731,0,0,0-.445-3.035,3.041,3.041,0,0,0-3.077-1.74,4.871,4.871,0,0,0-2.737.913,13.558,13.558,0,0,0-1.931,1.7V85.764a4.653,4.653,0,0,0,.605,2.61,3.062,3.062,0,0,0,2.557.955v.552H99.874v-.552a3.858,3.858,0,0,0,2.567-.976q.552-.725.552-3.543V78.868a15.91,15.91,0,0,0-.425-4.5A2.85,2.85,0,0,0,99.6,72.29,5.1,5.1,0,0,0,97.051,73a8,8,0,0,0-2.207,1.857V86.465a3.343,3.343,0,0,0,.562,2.228,3.48,3.48,0,0,0,2.451.637v.551H88.2Zm46.863-11.2a19.429,19.429,0,0,0-4.032,1.783q-3.055,1.889-3.055,4.286a3.259,3.259,0,0,0,1.273,2.841,3.092,3.092,0,0,0,1.846.594,5.07,5.07,0,0,0,2.684-.785,2.3,2.3,0,0,0,1.284-1.995ZM124.2,85.659a6.044,6.044,0,0,1,3.077-5.136,46.426,46.426,0,0,1,7.787-3.459v-1.8a7.43,7.43,0,0,0-.425-3.013q-.721-1.421-2.992-1.421a4.122,4.122,0,0,0-2.058.552,1.755,1.755,0,0,0-.976,1.57,5.755,5.755,0,0,0,.106.859,6.1,6.1,0,0,1,.106.775,1.764,1.764,0,0,1-.785,1.655,1.976,1.976,0,0,1-1.061.276,1.778,1.778,0,0,1-1.464-.626,2.15,2.15,0,0,1-.509-1.39,4.419,4.419,0,0,1,1.839-3.109,7.891,7.891,0,0,1,5.38-1.623q4.117,0,5.581,2.674a9.234,9.234,0,0,1,.785,4.262v8.509a5.693,5.693,0,0,0,.167,1.7,1.108,1.108,0,0,0,1.146.827,1.91,1.91,0,0,0,.806-.149,8.243,8.243,0,0,0,1.1-.721v1.1a6.908,6.908,0,0,1-1.464,1.358,4.267,4.267,0,0,1-2.419.806,2.362,2.362,0,0,1-2.089-.934,4.187,4.187,0,0,1-.711-2.228,19.984,19.984,0,0,1-2.758,2.079A7.229,7.229,0,0,1,128.7,90.2a4.412,4.412,0,0,1-3.162-1.284,4.322,4.322,0,0,1-1.339-3.256Zm23.266,8.148a2.512,2.512,0,0,0,2.006,2.461,14.3,14.3,0,0,0,4.6.679,11.784,11.784,0,0,0,5.729-1.22q2.207-1.22,2.207-3,0-1.421-1.783-1.889a21.782,21.782,0,0,0-4.179-.318q-.785-.021-1.655-.053t-1.588-.074q-.467-.021-1.5-.167t-1.549-.251q-.251,0-1.254,1.337a4.292,4.292,0,0,0-1.027,2.5Zm2.758-11.056a5.557,5.557,0,0,1-3-2.271,6.547,6.547,0,0,1-1.071-3.671,7.187,7.187,0,0,1,7.554-6.937,9.444,9.444,0,0,1,3.416.732,9.812,9.812,0,0,0,3.586.732q.445,0,1.347-.032t1.305-.032h.251v1.719H159.94q.382.891.594,1.549a8.305,8.305,0,0,1,.361,2.334,6.214,6.214,0,0,1-2.006,4.445,7.255,7.255,0,0,1-5.4,2.027,16.576,16.576,0,0,1-1.91-.191q-.615,0-1.623,1.04a2.861,2.861,0,0,0-1.008,1.7q0,.679,1.485,1a10.208,10.208,0,0,0,2.165.212,29.072,29.072,0,0,1,7.405.615,4.128,4.128,0,0,1,3.2,4.286q0,3.353-3.745,5.349a15.944,15.944,0,0,1-7.565,1.995,9.541,9.541,0,0,1-5.516-1.411q-2.037-1.411-2.037-2.96a2.5,2.5,0,0,1,.541-1.5,17.656,17.656,0,0,1,2.133-2.173l1.4-1.254.251-.251a6.58,6.58,0,0,1-1.464-.743,1.89,1.89,0,0,1-.849-1.5,2.925,2.925,0,0,1,.732-1.729,28.069,28.069,0,0,1,3.136-3.076Zm4.032-.425a3,3,0,0,0,1.952-.637,4.3,4.3,0,0,0,1.273-3.543,12.2,12.2,0,0,0-1.029-4.541,3.535,3.535,0,0,0-3.426-2.525,2.859,2.859,0,0,0-2.865,1.973,7.139,7.139,0,0,0-.4,2.567,8.764,8.764,0,0,0,1.254,4.647,3.715,3.715,0,0,0,3.245,2.058ZM169.8,62.487a2.18,2.18,0,0,1,.637-1.57,2.1,2.1,0,0,1,1.57-.658,2.126,2.126,0,0,1,1.559.647,2.15,2.15,0,0,1,.647,1.581,2.207,2.207,0,1,1-4.414,0Zm-2.716,26.8a5.412,5.412,0,0,0,2.865-.775q.594-.562.594-3.045V75.345a6.435,6.435,0,0,0-.191-1.91,1.283,1.283,0,0,0-1.337-.87,2.433,2.433,0,0,0-.456.043q-.223.043-1.284.339V72.29l.913-.3q3.713-1.209,5.182-1.825a2.764,2.764,0,0,1,.764-.251,1.154,1.154,0,0,1,.043.318V85.471q0,2.419.585,3.035a4.362,4.362,0,0,0,2.642.785v.591H167.091Zm13.314,0a3.834,3.834,0,0,0,2.111-.752,3.589,3.589,0,0,0,.605-2.515V75.261a5.014,5.014,0,0,0-.251-1.91,1.666,1.666,0,0,0-1.655-.806,3.749,3.749,0,0,0-.393.021q-.2.021-.5.064v-.743q.87-.251,4.117-1.315l1.995-.658q.149,0,.181.106a1.087,1.087,0,0,1,.032.3v3.119a21.764,21.764,0,0,1,3.055-2.507,6.374,6.374,0,0,1,3.437-1.04,4.5,4.5,0,0,1,2.631.827q2.292,1.613,2.292,5.751v9.909a3.239,3.239,0,0,0,.615,2.207,2.727,2.727,0,0,0,2.058.7v.6h-9.063v-.594a3.635,3.635,0,0,0,2.165-.859,4.358,4.358,0,0,0,.615-2.811V76.555a6.073,6.073,0,0,0-.679-3.024,2.624,2.624,0,0,0-2.507-1.2,4.634,4.634,0,0,0-2.546.849,14.588,14.588,0,0,0-1.867,1.613V86.677a2.475,2.475,0,0,0,.679,2.048,3.722,3.722,0,0,0,2.143.562v.593h-9.277Zm34.7-11.161a19.43,19.43,0,0,0-4.032,1.783q-3.055,1.889-3.055,4.286a3.259,3.259,0,0,0,1.273,2.841,3.092,3.092,0,0,0,1.846.594,5.071,5.071,0,0,0,2.684-.785,2.3,2.3,0,0,0,1.284-1.995Zm-10.864,7.533a6.044,6.044,0,0,1,3.077-5.136,46.425,46.425,0,0,1,7.787-3.459v-1.8a7.431,7.431,0,0,0-.425-3.013q-.721-1.421-2.992-1.421a4.122,4.122,0,0,0-2.058.552,1.755,1.755,0,0,0-.976,1.57,5.755,5.755,0,0,0,.106.859,6.094,6.094,0,0,1,.106.775,1.764,1.764,0,0,1-.785,1.655,1.975,1.975,0,0,1-1.061.276,1.778,1.778,0,0,1-1.464-.626,2.15,2.15,0,0,1-.509-1.39,4.419,4.419,0,0,1,1.839-3.109,7.891,7.891,0,0,1,5.38-1.623q4.117,0,5.581,2.674a9.235,9.235,0,0,1,.785,4.262v8.509a5.693,5.693,0,0,0,.167,1.7,1.108,1.108,0,0,0,1.146.827,1.91,1.91,0,0,0,.806-.149,8.242,8.242,0,0,0,1.1-.721v1.1a6.907,6.907,0,0,1-1.464,1.358,4.266,4.266,0,0,1-2.419.806,2.362,2.362,0,0,1-2.089-.934,4.187,4.187,0,0,1-.711-2.228,19.985,19.985,0,0,1-2.758,2.079,7.229,7.229,0,0,1-3.671,1.146,4.412,4.412,0,0,1-3.162-1.284,4.322,4.322,0,0,1-1.34-3.256Zm30.054-15.342v1.528h-4.329l-.043,12.222a8.178,8.178,0,0,0,.276,2.44,1.961,1.961,0,0,0,1.995,1.464,2.4,2.4,0,0,0,1.326-.361,6.959,6.959,0,0,0,1.284-1.146l.552.467-.467.637a6.789,6.789,0,0,1-2.334,2.1,5.306,5.306,0,0,1-2.377.615,3.343,3.343,0,0,1-3.395-2.228,9.227,9.227,0,0,1-.488-3.353V71.844h-2.313a.625.625,0,0,1-.159-.127.256.256,0,0,1-.053-.167.506.506,0,0,1,.1-.329,6.367,6.367,0,0,1,.605-.541,18.271,18.271,0,0,0,2.111-1.963q.647-.752,3.045-3.979a.708.708,0,0,1,.329.043q.053.043.053.318v5.217Zm5.887-7.83a2.18,2.18,0,0,1,.637-1.57,2.1,2.1,0,0,1,1.57-.658,2.126,2.126,0,0,1,1.559.647,2.15,2.15,0,0,1,.647,1.581,2.207,2.207,0,1,1-4.414,0Zm-2.717,26.8a5.412,5.412,0,0,0,2.865-.775q.594-.562.594-3.045V75.345a6.435,6.435,0,0,0-.191-1.91,1.283,1.283,0,0,0-1.337-.87,2.433,2.433,0,0,0-.456.043q-.223.043-1.284.339V72.29l.913-.3q3.713-1.209,5.182-1.825a2.763,2.763,0,0,1,.764-.251,1.155,1.155,0,0,1,.043.318V85.471q0,2.419.585,3.035a4.362,4.362,0,0,0,2.642.785v.591H237.463ZM251.1,80.035a10.159,10.159,0,0,1,2.684-7.14,8.961,8.961,0,0,1,6.907-2.918,9.435,9.435,0,0,1,6.96,2.758,9.923,9.923,0,0,1,2.758,7.342,10.924,10.924,0,0,1-2.674,7.342,8.692,8.692,0,0,1-6.917,3.119,9.118,9.118,0,0,1-6.9-2.992,10.518,10.518,0,0,1-2.821-7.511Zm9-8.785a4.212,4.212,0,0,0-2.908,1.1q-2.122,1.931-2.122,6.663a14.982,14.982,0,0,0,1.708,7.045q1.708,3.268,4.743,3.268a4.032,4.032,0,0,0,3.66-2.185,11.231,11.231,0,0,0,1.284-5.729,15.179,15.179,0,0,0-1.634-6.917q-1.633-3.248-4.731-3.248ZM273.81,89.287a3.834,3.834,0,0,0,2.111-.752,3.589,3.589,0,0,0,.605-2.515V75.261a5.014,5.014,0,0,0-.251-1.91,1.666,1.666,0,0,0-1.655-.806,3.75,3.75,0,0,0-.393.021q-.2.021-.5.064v-.743q.87-.251,4.117-1.315l1.995-.658q.149,0,.181.106a1.087,1.087,0,0,1,.032.3v3.119a21.761,21.761,0,0,1,3.055-2.507,6.374,6.374,0,0,1,3.437-1.04,4.5,4.5,0,0,1,2.631.827q2.292,1.613,2.292,5.751v9.909a3.239,3.239,0,0,0,.615,2.207,2.727,2.727,0,0,0,2.058.7v.6h-9.061v-.594a3.635,3.635,0,0,0,2.164-.859,4.357,4.357,0,0,0,.615-2.811V76.555a6.073,6.073,0,0,0-.679-3.024,2.624,2.624,0,0,0-2.507-1.2,4.634,4.634,0,0,0-2.546.849,14.582,14.582,0,0,0-1.867,1.613V86.677a2.475,2.475,0,0,0,.679,2.048,3.722,3.722,0,0,0,2.143.562v.593H273.8ZM298.3,83.2h.7a11.083,11.083,0,0,0,1.315,3.713,4.815,4.815,0,0,0,4.35,2.377,3.493,3.493,0,0,0,2.515-.881,3.009,3.009,0,0,0,.919-2.281,3.142,3.142,0,0,0-.531-1.719,5.44,5.44,0,0,0-1.867-1.613l-2.377-1.358a13.548,13.548,0,0,1-3.844-2.822,4.958,4.958,0,0,1-1.231-3.353,5.014,5.014,0,0,1,1.7-3.9,6.137,6.137,0,0,1,4.262-1.528,8.285,8.285,0,0,1,2.472.425,11.452,11.452,0,0,0,1.517.425,1.086,1.086,0,0,0,.552-.106.889.889,0,0,0,.3-.339h.509l.149,5.92h-.658a9.815,9.815,0,0,0-1.146-3.2,4.211,4.211,0,0,0-3.8-2.122,3.014,3.014,0,0,0-3.183,3.055q0,1.952,2.925,3.48l2.8,1.5q4.52,2.461,4.52,5.729a5.123,5.123,0,0,1-1.878,4.1,7.339,7.339,0,0,1-4.912,1.588,11.477,11.477,0,0,1-2.886-.425,13.029,13.029,0,0,0-1.91-.425.628.628,0,0,0-.445.181,1.254,1.254,0,0,0-.3.435h-.552Zm23.053,7.193a2.319,2.319,0,0,1-1.719-.711,2.347,2.347,0,0,1-.7-1.708,2.294,2.294,0,0,1,.711-1.7,2.347,2.347,0,0,1,1.708-.7,2.391,2.391,0,0,1,2.4,2.4,2.365,2.365,0,0,1-.69,1.708,2.285,2.285,0,0,1-1.7.713Z" transform="translate(29.929 376.614)" fill="#fff"/>
    </g>
  </g>
</svg>
