<svg xmlns="http://www.w3.org/2000/svg" width="40.414" height="15.576" viewBox="0 0 40.414 15.576"><path d="M.176-15.18v2.618h4.18V0h3.08V-12.562h4.18V-15.18ZM25.63-6.512V-8.668c0-4.686-2.4-6.71-5.83-6.71-3.41,0-5.808,2.024-5.808,6.71v2.156C13.992-1.87,16.39.2,19.8.2,23.232.2,25.63-1.87,25.63-6.512ZM17.072-8.668c0-2.9.946-4.114,2.728-4.114s2.75,1.21,2.75,4.114v2.156c0,2.9-.968,4.114-2.75,4.114s-2.728-1.21-2.728-4.114ZM34.914-5.346c3.52,0,5.676-1.76,5.676-4.972,0-3.256-2.178-4.862-5.676-4.862H29.48V0h3.08V-5.346Zm-2.354-2.6v-4.62h1.914c2.134,0,3.036.792,3.036,2.244,0,1.628-.9,2.376-3.036,2.376Z" transform="translate(-0.176 15.378)" fill="#fff"/></svg>