<svg xmlns="http://www.w3.org/2000/svg" width="21.798" height="15.559" viewBox="0 0 21.798 15.559">
  <g id="Group_137" data-name="Group 137" transform="translate(-84.05 -84.539)">
    <path id="Subtraction_2" data-name="Subtraction 2" d="M10.4,14.559c-.016,0-1.648,0-3.455-.054a25.3,25.3,0,0,1-4.671-.38A2.6,2.6,0,0,1,.434,12.286a15.882,15.882,0,0,1-.38-3.111C0,8.137,0,7.288,0,7.279s0-.858.054-1.895a17.443,17.443,0,0,1,.38-3.111A2.6,2.6,0,0,1,2.273.435,25.3,25.3,0,0,1,6.944.054C8.751,0,10.383,0,10.4,0s1.648,0,3.455.054a25.3,25.3,0,0,1,4.671.38,2.6,2.6,0,0,1,1.839,1.839,15.883,15.883,0,0,1,.38,3.111c.054,1.037.054,1.886.054,1.895s0,.858-.054,1.895a17.444,17.444,0,0,1-.38,3.111,2.6,2.6,0,0,1-1.839,1.839,25.3,25.3,0,0,1-4.671.38C12.047,14.559,10.415,14.559,10.4,14.559ZM8.319,4.16h0V10.4l5.4-3.12Z" transform="translate(84.55 85.039)" fill="#fff" stroke="rgba(0,0,0,0)" stroke-miterlimit="10" stroke-width="1"/>
  </g>
</svg>
