<svg xmlns="http://www.w3.org/2000/svg" width="15" height="16" viewBox="0 0 15 16">
  <path fill="#d0021b" fill-rule="evenodd" d="m266.875 319.666667h3.791667v1.333333h-.375c-.13889.027778-.25.083333-.333334.166667l-.166666.375-.791667 10.041666c-.027778.361113-.048611.611111-.0625.75-.013889.13889-.076388.270833-.1875.395834-.111112.125-.256944.201388-.4375.229166s-.451387.041667-.8125.041667h-8.333333c-.361113 0-.631944-.013889-.8125-.041667-.180557-.027778-.326389-.104166-.4375-.229166-.111112-.125001-.173611-.256944-.1875-.395834-.013889-.138889-.034722-.388887-.0625-.75l-.791667-10.083333c-.027778-.166667-.083333-.291666-.166667-.375l-.333333-.125h-.375v-1.333333h3.791667v-1.208334c0-.416668.131943-.763887.395833-1.041666s.604165-.416667 1.020833-.416667h4.208334c.416668 0 .763887.145832 1.041666.4375s.416667.631943.416667 1.020833zm-6.208333-1.208334v1.208334h5.333333v-1.208334c0-.416668-.263886-.625-.791667-.625h-3.791666c-.500003 0-.75.208332-.75.625zm-.333334 11.875h.833334l-.416667-8h-.875zm3.458334 0v-8h-.916667v8zm2.583333 0 .416667-8h-.833334l-.458333 8z" transform="translate(-256 -317)"/>
</svg>
