<svg id="レイヤー_1" data-name="レイヤー 1" xmlns="http://www.w3.org/2000/svg" viewBox="0 0 240 270"><defs><style>.cls-1{fill:#cb480e;fill-rule:evenodd;}.cls-2{fill:#fff;}</style></defs><path class="cls-1" d="M240,120A120,120,0,1,0,76.432,231.842,37.713,37.713,0,0,0,85.925,236C115.892,244.976,120,270,120,270s4.108-25.024,34.075-34a37.738,37.738,0,0,0,9.494-4.158A120.04,120.04,0,0,0,240,120Z"/><path class="cls-2" d="M80.722,133.479c.468,0,1.907-.144,3.419-.324.54-.072,2.88-.431,3.348-.431,1.224,0,2.339.9,2.339,1.691,0,1.943-6.119,2.124-8.134,2.124-4.824,0-11.159-1.044-11.159-6.407,0-1.153.4-1.657.5-1.657.144,0,.144.073.4.9.828,2.844,4.319,4.031,7.091,4.031C78.742,133.407,80.362,133.479,80.722,133.479ZM75.178,113.79a28.9,28.9,0,0,0,5.8-.649,7.732,7.732,0,0,1,1.8-.288c1.691,0,3.347,1.693,3.347,2.449,0,.54-.252.647-2.664,1.187a10.625,10.625,0,0,0-4.247,2.376c-.288.252-.324.288-.468.288a.115.115,0,0,1-.108-.108c0-.288,1.584-2.2,1.584-2.628,0-.252-.108-.252-1.224-.288-4.211-.072-6.8-1.944-6.8-2.447,0-.109.179-.144.252-.144.108,0,.216.035,1.152.18A13.651,13.651,0,0,0,75.178,113.79Zm15.263,4.535a2.964,2.964,0,0,1,1.548,2.052c0,.683-.433,1.4-1.008,1.4-.468,0-.72-.143-1.945-1.475a9.463,9.463,0,0,0-2.627-1.98c-.18-.144-.576-.4-.576-.54,0-.108.288-.324.612-.324A6.479,6.479,0,0,1,90.441,118.325Zm5.327-.864c0,.4-.288,1.08-.936,1.08-.756,0-1.188-.54-1.872-1.332a9.054,9.054,0,0,0-3.132-2.016c-.395-.143-.467-.288-.467-.395,0-.252.719-.433,1.332-.433C93.9,114.365,95.768,116.021,95.768,117.461Z"/><path class="cls-2" d="M109.811,135.1c0,.36-.288.468-1.152.828-.144.072-2.879,2.555-3.492,2.987a14.43,14.43,0,0,1-2.842,1.836,12.6,12.6,0,0,1,1.187-1.764,24,24,0,0,0,2.844-4.643,4.834,4.834,0,0,1,.54-1.331C107.112,132.9,109.811,134.487,109.811,135.1Zm-1.512-3.492c-.432,0-.863.073-1.008.576a1.762,1.762,0,0,1-1.655,1.368c-.9,0-.9-.756-.9-1.764,0-1.655.108-9.79.108-11.626,0-3.492-.036-5.579-.181-7.631-.035-.324-.359-1.944-.359-2.3,0-.108,0-.432.288-.432a3.477,3.477,0,0,1,1.728.612,2.909,2.909,0,0,0,1.439.252H110.6a1.717,1.717,0,0,0,1.008-.216c.108-.072.648-.612.828-.612.216,0,2.555,1.62,2.555,2.16a.658.658,0,0,1-.324.468c-.107.072-.756.576-.792.611a60.13,60.13,0,0,0-.287,6.552c0,1.691.252,10.078.252,11.986,0,.576,0,1.692-1.765,1.692-.575,0-.611-.18-.863-1.116-.144-.576-.828-.576-1.08-.576Zm-.036-13.354c-1.079,0-1.079.468-1.079,2.124,0,3.491,0,3.527,1.079,3.527h2.124c1.08,0,1.08-.036,1.08-3.563,0-1.62,0-2.088-1.08-2.088Zm.036-6.659c-1.08,0-1.08.072-1.08,3.563,0,1.62,0,2.124,1.08,2.124h2.052c1.08,0,1.08-.036,1.08-3.563,0-1.62,0-2.124-1.08-2.124Zm.036,13.282c-1.116,0-1.116.612-1.116,1.548,0,3.815,0,4.212,1.152,4.212h1.836c1.152,0,1.152-.325,1.152-3.78,0-1.512,0-1.98-1.08-1.98Zm7.163,14.038a1.453,1.453,0,0,1-1.3,1.548c-.755,0-.828-.252-1.835-3.491a17.313,17.313,0,0,0-1.692-3.384c-.036-.036-.18-.288-.108-.36C110.855,132.9,115.5,135.927,115.5,138.914Zm11.087-17.745c-.828,0-1.223.216-1.223,1.08,0,1.943,0,2.159,1.007,2.159H128.1a1.729,1.729,0,0,0,1.115-.288c.181-.107.828-.756,1.044-.756.433,0,2.664,1.728,2.664,2.2,0,.252-.288.289-.647.36-.613.108-.613.252-.613,1.692,0,.468-.036,2.7-.036,3.2,0,2.052,0,2.268.432,2.268.217,0,.4-.144.576-.54.145-.252.468-.792.864-.792a5.04,5.04,0,0,1,2.16,2.088c0,.5-.792.5-1.8.5h-1.044c-.539,0-.936.108-1.044.648v2.556a3.172,3.172,0,0,1-1.008,2.7,4.913,4.913,0,0,1-2.519.792.773.773,0,0,1-.54-.144,7.612,7.612,0,0,1-.72-1.044c-.216-.288-1.619-1.692-1.619-1.763,0-.109.215-.109.359-.109.252,0,1.656.109,1.98.109,1.763,0,1.763-.216,1.763-2.448,0-.756,0-1.3-1.079-1.3h-7.6c-1.044,0-1.044.576-1.044,1.4,0,.576.109,3.419.109,3.636,0,.467,0,.935-.324,1.151a2.249,2.249,0,0,1-1.44.576c-.683,0-.828-.468-.828-.9,0-.684.145-4.031.145-4.787,0-1.008-.721-1.008-.973-1.008-.216,0-1.188.108-1.331.108-.109,0-.181-.108-.324-.252l-.684-.828c-.144-.179-.144-.179-.144-.216,0-.108.072-.108.108-.108.071,0,1.943.18,2.34.18,1.079,0,1.079-.72,1.079-1.188a51.794,51.794,0,0,0-.36-7.235c-.036-.18-.324-1.152-.324-1.367,0-.073,0-.252.144-.252a9.961,9.961,0,0,1,2.34.827,3.732,3.732,0,0,0,1.656.324h1.332c.468,0,.792-.107.792-.935,0-1.8,0-2.3-1.08-2.3H120.61c-.865,0-3.276,0-4.535.107-.109,0-.649.073-.756.073-.145,0-.216-.073-.325-.216l-.683-.828c-.181-.18-.181-.18-.181-.252s.072-.073.145-.073c.611,0,3.635.217,4.319.217.972,0,1.08-.324,1.08-2.232,0-.72-.252-1.152-.972-1.152-.324,0-1.944.144-2.16.144-.143,0-.216-.071-.324-.252l-.72-.828c-.143-.18-.143-.18-.143-.216a.114.114,0,0,1,.107-.107c.4,0,2.737.215,3.24.215.936,0,.936-.719.936-1.223,0-1.332,0-1.908-.936-1.908-.324,0-1.98.144-2.232.144-.107,0-.18-.072-.323-.252l-.685-.828c-.143-.181-.143-.181-.143-.216a.114.114,0,0,1,.107-.108c.468,0,2.736.216,3.24.216.792,0,.792-.5.792-.864,0-.072,0-.36-.036-.72-.036-.216-.324-1.224-.324-1.44,0-.288.18-.324.468-.324.072,0,2.735.288,2.735.792,0,.144-.035.18-.395.648a1.916,1.916,0,0,0-.252,1.008c0,.936.792.936,1.08.936H125c.252,0,.936,0,.936-.972a4.653,4.653,0,0,0-.108-.935,11.6,11.6,0,0,1-.252-1.189c0-.252.18-.359.5-.359.288,0,2.952.431,2.952,1.079,0,.144-.108.216-.468.54-.252.18-.324.432-.324.9,0,.863.54.936,1.043.936a1.327,1.327,0,0,0,1.26-.613c.685-.935.792-1.043,1.08-1.043.468,0,2.376,1.44,2.376,2.087,0,.54-.684.54-1.944.54h-2.735c-.936,0-1.08.433-1.08,1.081,0,1.835,0,2.051.612,2.051a.743.743,0,0,0,.576-.324c.792-1.115.863-1.26,1.224-1.26.431,0,2.7,1.548,2.7,2.088s-.648.54-1.943.54h-2.016c-.9,0-1.116.432-1.116,1.008,0,2.124,0,2.447,1.187,2.447,1.513,0,1.656,0,2.2-.611.325-.4.829-.972,1.188-.972.288,0,2.556,1.476,2.556,2.016,0,.5-.72.5-1.944.5Zm-5.939,4.175c-1.116,0-1.116.54-1.116,1.872,0,.971,0,1.62,1.08,1.62h1.584c1.044,0,1.044-.684,1.044-1.224,0-1.728,0-2.268-1.117-2.268Zm.036,4.427c-1.008,0-1.044.613-1.044,1.153,0,1.943.036,2.447,1.116,2.447h1.4c1.116,0,1.116-.468,1.116-2.159,0-.792,0-1.441-1.08-1.441Zm2.088-17.17c-1.08,0-1.08.613-1.08,1.548,0,1.08,0,1.657,1.08,1.657h2.267c1.08,0,1.08-.613,1.08-1.548,0-1.044,0-1.657-1.08-1.657Zm.036,4.176c-1.009,0-1.08.613-1.08,1.152,0,1.764,0,2.3,1.115,2.3h2.2c1.08,0,1.08-.611,1.08-1.655,0-1.26,0-1.8-1.08-1.8Zm3.635,8.567c-1.079,0-1.079.684-1.079,1.332,0,1.584,0,2.16,1.079,2.16h1.872c1.044,0,1.116-.54,1.116-1.693,0-1.259-.072-1.8-1.116-1.8Zm.036,4.427c-.972,0-1.044.577-1.044,1.153,0,1.979,0,2.447,1.08,2.447h1.872c1.044,0,1.044-.4,1.044-2.052,0-.935,0-1.548-1.044-1.548Z"/><path class="cls-2" d="M152.794,111.666a20.517,20.517,0,0,0-2.915.072c-.108,0-.612.108-.684.108s-.108-.072-.252-.216l-.791-.828a.324.324,0,0,1-.109-.252c0-.072.073-.072.109-.072.143,0,.756.108.9.108.972.108,2.735.144,3.564.144H154.2c1.08,0,1.259-.036,1.511-.468.756-1.224.792-1.331,1.08-1.331a10.6,10.6,0,0,1,3.348,2.3c0,.432-.576.432-1.332.432h-.936c-.4,0-1.08.036-1.08.972,0,13.606,10.367,23.361,16.7,25.449.54.179.576.179.576.323,0,.181-.216.217-.36.217-.324,0-1.692-.109-1.98-.109a3.871,3.871,0,0,0-3.06.9c-.252.252-.611.611-.719.611-.144,0-4.824-3.455-8.387-11.087a40.112,40.112,0,0,1-2.2-5.759c-.289-1.152-.4-1.152-.577-1.152-.215,0-.324.252-1.116,2.592A26.555,26.555,0,0,1,140.34,140.5c-.143,0-.216-.144-.216-.288,0-.18.108-.287,1.332-1.224A34.7,34.7,0,0,0,154.7,118.721a29.988,29.988,0,0,0,.936-6.12c0-.935-.72-.935-1.079-.935Z"/></svg>