<svg id="レイヤー_1" data-name="レイヤー 1" xmlns="http://www.w3.org/2000/svg" viewBox="0 0 36.354 39.317"><defs><style>.cls-1{fill:#cb480e;fill-rule:evenodd;}</style></defs><path class="cls-1" d="M28.177,29.319a5,5,0,1,0,5,5A5,5,0,0,0,28.177,29.319Zm0,6a1,1,0,1,1,1-1A1,1,0,0,1,28.177,35.318Z"/><path class="cls-1" d="M10.177,29.319a5,5,0,1,0,5,5A5,5,0,0,0,10.177,29.319Zm0,6a1,1,0,1,1,1-1A1,1,0,0,1,10.177,35.318Z"/><path class="cls-1" d="M34.871,8.068a2,2,0,0,0-2.45,1.414L32.1,11.318H6.967L3.932,1.482A2,2,0,0,0,.069,2.518L6.645,23.836a2,2,0,0,0,1.91,1.474c.031,0,.059.008.09.008H31.932c.031,0,.06-.007.09-.009a1.993,1.993,0,0,0,1.91-1.473l2.353-13.318A2,2,0,0,0,34.871,8.068Zm-3.481,7.25-1.06,6H10.052l-1.851-6Z"/></svg>