<svg id="レイヤー_1" data-name="レイヤー 1" xmlns="http://www.w3.org/2000/svg" viewBox="0 0 36 36"><defs><style>.cls-1{fill:#cb480e;fill-rule:evenodd;}</style></defs><path class="cls-1" d="M24,0H12A12,12,0,0,0,0,12V24A12,12,0,0,0,12,36H24A12,12,0,0,0,36,24V12A12,12,0,0,0,24,0Zm8,24a8,8,0,0,1-8,8H12a8,8,0,0,1-8-8V12a8,8,0,0,1,8-8H24a8,8,0,0,1,8,8Z"/><path class="cls-1" d="M18,10a8,8,0,1,0,8,8A8,8,0,0,0,18,10Zm0,12a4,4,0,1,1,4-4A4,4,0,0,1,18,22Z"/><path class="cls-1" d="M28,8a2,2,0,1,0,2,2A2,2,0,0,0,28,8Z"/></svg>