<svg id="レイヤー_1" data-name="レイヤー 1" xmlns="http://www.w3.org/2000/svg" viewBox="0 0 149.48 126.961"><defs><style>.cls-1{fill:#4d1121;}</style></defs><path class="cls-1" d="M16.573,114.479a5.3,5.3,0,0,0-2.075-1.288,1.042,1.042,0,0,0-.786.261,1.548,1.548,0,0,1-1.136.525c-2.337.306-5.315.435-8.159.728a20.453,20.453,0,0,1-2.221.152,1.787,1.787,0,0,1-.907-.132,3.947,3.947,0,0,1-.808-.546.357.357,0,0,0-.219-.087c-.087,0-.153.065-.2.24a2.109,2.109,0,0,0-.066.5c0,.567.612,1.2,1.092,1.681a2.522,2.522,0,0,0,1.617.83,1.1,1.1,0,0,0,.873-.35,6.683,6.683,0,0,1,1.864-.592c1.7-.415,5.033-.636,6.737-.9.444-.063.654.055.747.215.055.1-.012.191-.016.289s.158.221.146.266c-.055.095-.207.148-.263.245-.1.181-.044.364-.153.552s-.265.186-.382.377a16.719,16.719,0,0,1-1.673,2.315,7.752,7.752,0,0,0-1.907-.793q-.251-.066-.517-.122c-.184-.038-.368.074-.565.046-.168-.024-.347-.188-.524-.2-.206-.018-.418-.032-.637-.04a.155.155,0,0,0-.175.153.175.175,0,0,0,.109.153c.159.09.419.043.565.137.191.122.263.386.434.516.128.1.25.2.368.3.064.056.127.113.188.171a7.054,7.054,0,0,1,1.8,2.41c.5,1.135.733,1.664,1.542,1.664a1.412,1.412,0,0,0,1.124-.607,1.151,1.151,0,0,0,.3-.491,2.321,2.321,0,0,0,.059-.54c0-.082-.17-.136-.18-.216-.021-.156.1-.335.048-.481a3.979,3.979,0,0,0-1.288-1.553,35.989,35.989,0,0,0,4.259-2.424,2.376,2.376,0,0,1,1.485-.7c.655-.109.918-.35.918-.787C17.993,115.79,17.359,115.2,16.573,114.479Z"/><path class="cls-1" d="M43.333,113.123a.233.233,0,0,0-.15.073,33.152,33.152,0,0,1-3.814,4.549,25.305,25.305,0,0,1-2.4,2.081c-.045.034-.132.124-.178.157s-.1.328-.15.362-.265-.038-.325,0l-.143.1c-.085.058-.11.189-.2.245-.127.081-.16-.154-.29-.078-.319.19-.377.228-.692.186-.2-.026-.432-.161-.453-.619-.027-.59-.06-2.511-.037-3.911.008-.787.026-.876.315-1.238a.873.873,0,0,0,.213-.6c-.019-.415-.452-.788-1.059-1.153a3.026,3.026,0,0,0-1.514-.587,2.914,2.914,0,0,0-1.289.5.3.3,0,0,0-.163.248c0,.065.049.128.161.167a4.24,4.24,0,0,1,.515.261c.293.2.329.509.388,1.315.06.829.119,2.459.153,3.2.043.916-.016,1.533-.009,2.167a1.272,1.272,0,0,1-.275.984,1.228,1.228,0,0,0-.158.827,6.629,6.629,0,0,0,1.219,1.5,2.673,2.673,0,0,0,1.688,1.06.722.722,0,0,0,.7-.536c.138-.334.226-.316.839-.782a20.866,20.866,0,0,0,7.19-10.038.994.994,0,0,0,.075-.288A.15.15,0,0,0,43.333,113.123Z"/><path class="cls-1" d="M29.569,115.243a3.721,3.721,0,0,0-1.66-.764,2.126,2.126,0,0,0-.983.263c-.108.065-.152.108-.152.174s.044.131.152.2c.153.109.262.2.35.262.262.2.3.24.3.611a6.608,6.608,0,0,1-.3,1.573,12.313,12.313,0,0,1-.921,2.424c-.112.208-.24.421-.391.655-.037.057-.075.115-.115.174s-.051.234-.094.3-.12.02-.169.09c-.063.09.006.281-.056.367a.894.894,0,0,1-.243.231c-.08.036-.125-.022-.172.037-.069.088-.045.229-.115.312s-.212.084-.271.152-.145.162-.219.24c-.043.047-.086.092-.13.137-.122.127-.13.24-.259.361s-.36.234-.487.345c-.353.308-.738.613-1.173.941a.257.257,0,0,0-.087.175c0,.087.065.153.2.153a1.347,1.347,0,0,0,.3-.088,11.375,11.375,0,0,0,4.214-2.612,10.489,10.489,0,0,0,2.7-3.779,1.861,1.861,0,0,1,.524-.83.843.843,0,0,0,.306-.655A2.1,2.1,0,0,0,29.569,115.243Z"/><path class="cls-1" d="M88.825,117.313a2.8,2.8,0,0,0-.045-.291.438.438,0,0,0-.068-.1c-.038-.051-.135.03-.185-.019-.035-.034-.02-.2-.061-.231-.06-.048-.125-.095-.2-.141s-.265.01-.365-.042c-.084-.044-.084-.314-.179-.356a4.764,4.764,0,0,0-1.7-.387,1.782,1.782,0,0,0-1.019.279,5.289,5.289,0,0,1-1.756.288c-.4.054-.792.092-1.166.129l.016-.218c0-.088.021-.175.021-.263a1.884,1.884,0,0,1,.132-.5,1.391,1.391,0,0,0,.109-.459c0-.545-.349-.72-.983-1.157a3.839,3.839,0,0,0-.852-.437,19.68,19.68,0,0,0,2.337-.874,4.837,4.837,0,0,1,.918-.262c.545-.087.677-.24.677-.611,0-.5-.481-.983-1.31-1.463a5.721,5.721,0,0,0-1.681-.7l-.064-.01c-.011,0-.036.019-.048.018s-.006-.025-.016-.026l-.062,0c-.018,0-.036.008-.052.008a2.419,2.419,0,0,0-.26.007c-.023,0-.025.059-.05.062s-.048-.05-.061-.048c-.048.006-.12.032-.169.04s-.046-.027-.086-.019c-.009,0-.03.026-.039.027s-.03.02-.048.024-.021-.01-.028-.008-.017.019-.029.022-.027-.01-.038-.007a.742.742,0,0,0-.07.027c-.077.035-.1.074-.1.126a.264.264,0,0,0,.131.2,2.189,2.189,0,0,1,.306.262.828.828,0,0,1,.283.5c0,.131-.349.371-.742.634a26.345,26.345,0,0,1-2.49,1.354c-.564.267-1.147.521-1.868.8l-.19.073c-.049.019-.075.109-.124.128-.026.01-.174-.052-.2-.04-.056.026-.036.061-.115.09a1.032,1.032,0,0,1-.157.048c-.03,0-.052.053-.08.058s-.171-.031-.192-.023c-.118.042-.128.106-.247.147l-.318.109c-.455.152-.912.3-1.359.421a.181.181,0,0,0-.153.175c0,.087.066.153.2.153H73.1a21.543,21.543,0,0,0,5.2-.764c.219-.066.459-.11.678-.176a1.107,1.107,0,0,1,.328.284,1.682,1.682,0,0,1,.327,1.136c0,.415,0,.83-.022,1.224l-.009.1-.259.02c-.9.087-2.173.191-3.39.328q-.3.035-.6.072c-.321.032-.637.064-.914.084-.233.017-.494.121-.654.114s-.206-.194-.365-.244a2.951,2.951,0,0,1-.38-.064c-.1-.045-.131-.144-.249-.215a3.66,3.66,0,0,1-.536-.282.39.39,0,0,0-.192-.1c-.065,0-.133.038-.161.168a2.342,2.342,0,0,0-.091.52c-.018.393.5,1.008.917,1.422a2.264,2.264,0,0,0,1.426.81c.284.014.465-.108.868-.329a10.774,10.774,0,0,1,1.96-.432c.707-.141,1.456-.259,2.16-.357l.324-.029a9.939,9.939,0,0,1-1.631,4.335,13.818,13.818,0,0,1-4.517,4.032.178.178,0,0,0-.109.153.145.145,0,0,0,.153.13,1.226,1.226,0,0,0,.284-.043,15.845,15.845,0,0,0,6.053-3.808,10.053,10.053,0,0,0,2.016-3.559c.027-.083.051-.165.074-.246.029-.1.056-.206.079-.305s.041-.172.058-.263c.009-.051-.168-.208-.153-.264.023-.084.217-.152.223-.2.012-.1-.04-.13-.063-.176.414-.028.829-.05,1.225-.049.458,0,1.608.054,1.957.071a12.663,12.663,0,0,1,1.35.13,12.9,12.9,0,0,0,1.453.244,1.672,1.672,0,0,0,.448-.031.637.637,0,0,0,.449-.315c.06-.11.024-.165.032-.333A.956.956,0,0,0,88.825,117.313Z"/><path class="cls-1" d="M149.374,112.449a.192.192,0,0,0-.155.085c-.156.2-.135.254-.3.449-.062.075-.186.233-.248.308s-.07.263-.13.334-.283.07-.341.137c-.175.2-.326.279-.506.475-.087.1-.056.481-.145.576-.258.276-.666.379-.933.646-.149.149-.3.3-.451.444l-.219.209c-.117.111-.091.392-.209.5-.156.144-.457.116-.615.257q-.606.54-1.228,1.047a23.284,23.284,0,0,1-5.1,3.314l-.335.157-.153.069c-.187.083-.352.147-.5.2a2.46,2.46,0,0,1-.363.054c-.116.024-.186.093-.25.092s-.147-.105-.225-.14-.158-.017-.24-.082-.367-.1-.432-.193c-.08-.108.069-.267.04-.407a2.415,2.415,0,0,1-.076-.307c0-.14.069-.165.074-.328.021-.828.035-1.945.164-3.275.078-.851.146-.959.412-1.261.267-.323.378-.453.383-.781.008-.546-.51-.946-1.224-1.416a5.033,5.033,0,0,0-1.955-.771,4.281,4.281,0,0,0-2.83.388c-.11.086-.177.15-.178.26,0,.065.063.153.194.2.26.113,1.6-.347,2.4.479a1.988,1.988,0,0,1,.371,1.447c.032.809.019,1.682.007,2.534-.018,1.2-.087,2.079-.142,2.887-.032.676-.045.783-.311,1.063a1.474,1.474,0,0,0-.274.911c-.006.393.6,1.1,1.154,1.742A3.064,3.064,0,0,0,136.265,126a.757.757,0,0,0,.684-.448c.269-.5.489-.562,1.193-.923a27.327,27.327,0,0,0,6.868-5.119,19.356,19.356,0,0,0,4.424-6.685.8.8,0,0,0,.046-.218C149.482,112.5,149.439,112.45,149.374,112.449Z"/><path class="cls-1" d="M123.939,113.1c-.127-.091-.254-.175-.379-.252-.193-.118-.465-.046-.642-.128-.206-.1-.312-.34-.473-.383a1.023,1.023,0,0,0-.3-.067h0a.648.648,0,0,0-.3.066c-.021.01-.041.028-.062.04a.945.945,0,0,0-.122.088.608.608,0,0,1-.054.039c-.024.02-.047.028-.071.051-.131.2-.27.169-.36.24s-.131.241-.339.284c-.074.015-.161.037-.242.055-.61.139-1.369.346-1.833.4.044-.109.11-.218.154-.306a3.021,3.021,0,0,1,.655-.982c.284-.284.415-.394.415-.721,0-.568-.35-.939-1.005-1.376a4.616,4.616,0,0,0-1.747-.765,2.106,2.106,0,0,0-.962.328c-.087.066-.152.131-.152.2s.065.13.174.174c.2.088.274.279.383.344.2.132.192.408.192.626a2.664,2.664,0,0,1-.2.931,25.539,25.539,0,0,1-2.141,4.215c-.348.55-.731,1.1-1.14,1.64q-.148.2-.3.39c-.116.148-.235.3-.355.441-.188.228-.38.454-.576.675q-.228.258-.462.51c-.044.048-.09.1-.135.144a.226.226,0,0,0-.087.175.146.146,0,0,0,.153.131.2.2,0,0,0,.109-.022,8.174,8.174,0,0,0,1.053-.487c.24-.132.478-.276.712-.431.16-.1.318-.216.475-.33.221-.162.44-.333.655-.511a18.91,18.91,0,0,0,1.429-1.32,18.208,18.208,0,0,0,2.031-2.556,2.226,2.226,0,0,0,1.027.328,2.925,2.925,0,0,0,.764-.219c.037-.012.068-.02.1-.03.215-.066.408-.113.595-.188h0a1.938,1.938,0,0,1,.567-.108c.131.013.195.056.216.163a3.122,3.122,0,0,1-.161,1.526,20.016,20.016,0,0,1-2.814,5.629c-.146.2-.3.4-.448.589-.178.224-.255.209-.443.42q-.138.159-.279.312c-.084.092-.089.338-.174.427-.188.2-.572.232-.767.419-.141.135-.172.267-.317.4-.28.25-.667.015-.961.245-.169.133-.359.558-.532.684-.271.2-.527.089-.807.27q-.485.312-.987.592-.544.3-1.108.568a.207.207,0,0,0-.13.153c0,.088.043.131.152.131a2.228,2.228,0,0,0,.328-.043c.3-.053.595-.115.891-.184.281-.066.562-.14.839-.221s.553-.168.825-.263c.408-.142.938-.164,1.329-.337.28-.124.6-.257.865-.4.228-.118.675-.238.894-.367a8.37,8.37,0,0,0,1.424-.858,16.592,16.592,0,0,0,5.157-7.825,1.657,1.657,0,0,1,.764-1.136.664.664,0,0,0,.372-.655,1.122,1.122,0,0,0-.316-.7A5.79,5.79,0,0,0,123.939,113.1Z"/><path class="cls-1" d="M105,112.164a4.1,4.1,0,0,0-1.791-.829.781.781,0,0,0-.611.305c-.328.35-.459.436-1.354.612-1.246.261-2.8.545-4.151.764-.2.031-.4.059-.592.083-.22.028-.42.049-.576.06-.083.006-.21.111-.264.111-.1,0-.156-.108-.27-.126-.08-.012-.211.04-.294.016-.1-.029-.151-.137-.253-.188-.078-.043-.069-.148-.175-.2-.08-.042-.271-.032-.36-.086a3.013,3.013,0,0,1-.273-.19.348.348,0,0,0-.218-.11c-.088,0-.154.066-.2.219a2.418,2.418,0,0,0-.065.524,2.727,2.727,0,0,0,.939,1.551,2.439,2.439,0,0,0,1.55.83,1.658,1.658,0,0,0,.962-.393,5.279,5.279,0,0,1,1.354-.568c.917-.284,2.074-.524,3.057-.743a1.089,1.089,0,0,1,.7.043.622.622,0,0,1,.328.453,2.852,2.852,0,0,1-.161.833,18.594,18.594,0,0,1-3.834,6.927c-.258.3-.525.581-.8.855-.137.138-.276.272-.416.4-.1.1-.136.291-.242.386-.251.225-.583.345-.844.554q-.492.391-1.006.744c-.1.071-.066.218-.171.286s-.349.059-.454.124a18.05,18.05,0,0,1-1.9,1.037.207.207,0,0,0-.13.153c0,.088.043.131.152.131a2.228,2.228,0,0,0,.328-.043c.539-.1,1.075-.219,1.6-.368a15.92,15.92,0,0,0,3.042-1.2,14.28,14.28,0,0,0,1.329-.791q.519-.35.993-.741a17.509,17.509,0,0,0,5.263-8.059,1.655,1.655,0,0,1,.765-1.136.665.665,0,0,0,.371-.655C106.335,113.191,105.7,112.667,105,112.164Z"/><path class="cls-1" d="M65.873,120.15c-.012-.094-.175-.179-.166-.265s.149-.255.124-.341a2.454,2.454,0,0,0-.163-.329c-.053-.125-.113-.247-.178-.367a5.282,5.282,0,0,0-.814-1.1A10.365,10.365,0,0,0,62,115.676c-.228-.11-.412-.285-.645-.377q-.267-.105-.536-.192c-.221-.072-.474-.01-.693-.061s-.4-.217-.617-.245l-.044,0c-.152-.006-.22.058-.224.144a.233.233,0,0,0,.1.2,8.41,8.41,0,0,1,1.788,1.609,11.25,11.25,0,0,1,1.194,3.316c.457,1.788.979,2.442,1.9,2.476a1.619,1.619,0,0,0,1.334-.561,1.941,1.941,0,0,0,.419-1.195,1.269,1.269,0,0,0-.019-.4A1.418,1.418,0,0,1,65.873,120.15Z"/><path class="cls-1" d="M55.489,114.977a3.792,3.792,0,0,0-1.769-.808,2.526,2.526,0,0,0-.939.284c-.109.065-.175.131-.175.2,0,.043.066.108.153.152.24.131.277.441.407.595a.59.59,0,0,1,.219.48.651.651,0,0,1-.068.428c-.04.083.038.239-.01.323-.024.042-.173.012-.2.053-.034.056,0,.26-.036.315-.058.094-.183.038-.241.13q-.224.348-.455.678a18.151,18.151,0,0,1-2.435,2.83c-.411.389-.744.682-1.193,1.039-.126.1-.236.29-.364.387-.1.079-.324.142-.431.22l-.171.123c-.067.048-.052.226-.121.274-.086.06-.256-.01-.344.049s-.176.119-.266.177-.078.224-.183.291-.315.03-.41.088c-.129.08-.188.173-.319.252-.084.05-.241.086-.326.136a.221.221,0,0,0-.109.174c0,.066.065.132.174.132a2.6,2.6,0,0,0,.371-.066,15.006,15.006,0,0,0,4.675-1.878,16.617,16.617,0,0,0,4.674-3.975,2.945,2.945,0,0,1,.7-.677.956.956,0,0,0,.458-.787C56.756,116.134,56.232,115.5,55.489,114.977Z"/><path class="cls-1" d="M94,50.875a32.447,32.447,0,0,1-7,3.961,16.769,16.769,0,1,1-12.389-5.468c.069,0,.138,0,.2,0a24.545,24.545,0,0,0,13.192-3.954,24.827,24.827,0,0,0,6-5.468,24.686,24.686,0,1,0-38.78,0,32.47,32.47,0,0,1,7-3.961,16.763,16.763,0,1,1,12.389,5.471c-.069,0-.138,0-.2,0a24.533,24.533,0,0,0-13.191,3.954,24.878,24.878,0,0,0-6,5.464,24.686,24.686,0,1,0,38.78,0Z"/></svg>