<svg id="レイヤー_1" data-name="レイヤー 1" xmlns="http://www.w3.org/2000/svg" viewBox="0 0 136.006 151.36"><defs><style>.cls-1{fill:#4d1121;}</style></defs><path class="cls-1" d="M20.225,126.8h-6v-.738c.146-.02.3-.037.461-.05a1.126,1.126,0,0,0,.4-.1.483.483,0,0,0,.28-.339,2.514,2.514,0,0,0,.061-.611V120.24a2.7,2.7,0,0,0-.37-1.561A1.222,1.222,0,0,0,14,118.158a2.069,2.069,0,0,0-.776.137,2.983,2.983,0,0,0-.623.338,2.19,2.19,0,0,0-.457.425c-.108.141-.2.263-.273.364v5.427a1.714,1.714,0,0,0,.085.592.678.678,0,0,0,.316.358,2.074,2.074,0,0,0,.366.162,2.227,2.227,0,0,0,.435.1v.738H7.327v-.738l.462-.05a1.171,1.171,0,0,0,.4-.1.54.54,0,0,0,.276-.324,2.284,2.284,0,0,0,.065-.626V120.24a2.7,2.7,0,0,0-.37-1.561,1.223,1.223,0,0,0-1.059-.521,2.075,2.075,0,0,0-.777.137,3.009,3.009,0,0,0-.623.338,2.157,2.157,0,0,0-.456.425c-.108.141-.2.263-.273.364v5.427a1.633,1.633,0,0,0,.09.586.7.7,0,0,0,.324.364,2.177,2.177,0,0,0,.369.162,2.267,2.267,0,0,0,.439.1v.738H.142v-.738c.174-.013.347-.03.515-.05a1.859,1.859,0,0,0,.435-.1.788.788,0,0,0,.444-.349,1.277,1.277,0,0,0,.122-.6v-5.883a1.281,1.281,0,0,0-.173-.632,1.423,1.423,0,0,0-.414-.48,1.669,1.669,0,0,0-.46-.2A3.212,3.212,0,0,0,0,117.653v-.738l4.821-.263.152.152v1.425h.04l.672-.6a5.318,5.318,0,0,1,.733-.562,3.477,3.477,0,0,1,.96-.4,4.853,4.853,0,0,1,1.284-.162,3.471,3.471,0,0,1,1.925.5,2.74,2.74,0,0,1,1.1,1.329h.091q.294-.273.718-.641a6.406,6.406,0,0,1,.778-.592,3.7,3.7,0,0,1,1-.424,4.773,4.773,0,0,1,1.31-.173,3.022,3.022,0,0,1,2.349.9,3.653,3.653,0,0,1,.824,2.557v4.912a1.383,1.383,0,0,0,.111.6.74.74,0,0,0,.4.348,3.422,3.422,0,0,0,.4.142,2.964,2.964,0,0,0,.552.1Z"/><path class="cls-1" d="M35.212,126.588a7.681,7.681,0,0,1-1.05.354,4.971,4.971,0,0,1-1.28.161,3.516,3.516,0,0,1-1.827-.369,1.843,1.843,0,0,1-.8-1.056H30.2a6.693,6.693,0,0,1-.663.586,3.866,3.866,0,0,1-.683.415,5.146,5.146,0,0,1-.917.333,5.217,5.217,0,0,1-1.229.112,3.019,3.019,0,0,1-2-.694,2.276,2.276,0,0,1-.83-1.838,3.055,3.055,0,0,1,.182-1.118,2.53,2.53,0,0,1,.517-.814,2.647,2.647,0,0,1,.7-.537,7.658,7.658,0,0,1,.875-.4q.912-.333,2.187-.693a12.283,12.283,0,0,0,1.863-.643v-.97c0-.169-.014-.391-.04-.667a2.149,2.149,0,0,0-.172-.7,1.342,1.342,0,0,0-.445-.546,1.322,1.322,0,0,0-.8-.222,1.918,1.918,0,0,0-.743.126,2.544,2.544,0,0,0-.48.258,3.993,3.993,0,0,0,.172.617,2.447,2.447,0,0,1,.142.8,1.363,1.363,0,0,1-.091.43.956.956,0,0,1-.264.409,1.732,1.732,0,0,1-.522.313,2.6,2.6,0,0,1-.887.112,1.815,1.815,0,0,1-1.287-.41,1.444,1.444,0,0,1,.014-2.082,3.65,3.65,0,0,1,1.1-.743,6.333,6.333,0,0,1,1.465-.47,7.844,7.844,0,0,1,1.536-.167,12.761,12.761,0,0,1,1.8.117,4.232,4.232,0,0,1,1.476.48,2.552,2.552,0,0,1,1,1.026,3.629,3.629,0,0,1,.369,1.753q0,1.143-.046,2.709t-.046,2.062a1.576,1.576,0,0,0,.137.718.871.871,0,0,0,.42.394,1.481,1.481,0,0,0,.54.1q.369.015.673.015ZM30.2,121.322q-.567.192-1.126.44a4.545,4.545,0,0,0-.913.522,1.964,1.964,0,0,0-.588.725,2.357,2.357,0,0,0-.213,1.038,1.556,1.556,0,0,0,.36,1.145,1.218,1.218,0,0,0,.888.355,1.685,1.685,0,0,0,.917-.229,2.648,2.648,0,0,0,.635-.561Z"/><path class="cls-1" d="M48.541,118.623a2.071,2.071,0,0,1-.475,1.35,1.54,1.54,0,0,1-1.254.581,2.056,2.056,0,0,1-1.248-.373,1.271,1.271,0,0,1-.51-1.1,2.241,2.241,0,0,1,.051-.548c.033-.131.064-.254.09-.368a2.159,2.159,0,0,0-.98.321,3.222,3.222,0,0,0-.91.8v5.549a1.366,1.366,0,0,0,.111.587.788.788,0,0,0,.375.363,2.616,2.616,0,0,0,.722.188c.334.05.575.079.723.085v.738H38.474v-.738c.168-.013.338-.032.511-.055a2.549,2.549,0,0,0,.439-.1.746.746,0,0,0,.445-.344,1.311,1.311,0,0,0,.121-.606v-5.883a1.245,1.245,0,0,0-.172-.652,1.479,1.479,0,0,0-.414-.46,1.669,1.669,0,0,0-.46-.2,3.212,3.212,0,0,0-.611-.111v-.738l4.82-.263.152.152v1.466h.041A5.916,5.916,0,0,1,44.827,117a3.184,3.184,0,0,1,1.632-.46,2.021,2.021,0,0,1,1.511.582A2.049,2.049,0,0,1,48.541,118.623Z"/><path class="cls-1" d="M64.9,126.588l-4.821.293-.152-.141v-1.325h-.061l-.67.612a3.888,3.888,0,0,1-.782.54,5.073,5.073,0,0,1-.974.405,5.159,5.159,0,0,1-1.338.131,2.948,2.948,0,0,1-2.336-.92,3.791,3.791,0,0,1-.813-2.6v-4.548a1.223,1.223,0,0,0-.15-.642,1.62,1.62,0,0,0-.4-.44,1.287,1.287,0,0,0-.523-.217,4.845,4.845,0,0,0-.583-.086v-.738l4.883-.263.11.152v6.721a2.441,2.441,0,0,0,.4,1.537,1.337,1.337,0,0,0,1.1.5,2.3,2.3,0,0,0,1.289-.374,2.687,2.687,0,0,0,.834-.8v-5.447a1.411,1.411,0,0,0-.131-.617,1.123,1.123,0,0,0-.384-.445,1.2,1.2,0,0,0-.521-.162q-.337-.039-.692-.06v-.738l4.911-.263.152.152v7.8a1.117,1.117,0,0,0,.553,1.022,1.284,1.284,0,0,0,.5.167,5.5,5.5,0,0,0,.607.055Z"/><path class="cls-1" d="M81.355,126.8H75.281v-.738c.134-.013.293-.03.475-.05a1.185,1.185,0,0,0,.4-.1.623.623,0,0,0,.3-.324,1.753,1.753,0,0,0,.086-.626V120.23a2.573,2.573,0,0,0-.389-1.556,1.306,1.306,0,0,0-1.107-.516,2.273,2.273,0,0,0-.753.121,2.812,2.812,0,0,0-.682.354,2.333,2.333,0,0,0-.47.414c-.118.142-.218.267-.3.375v5.427a1.561,1.561,0,0,0,.091.592.742.742,0,0,0,.343.358,1.67,1.67,0,0,0,.4.162,3.3,3.3,0,0,0,.48.1v.738H67.993v-.738c.176-.013.347-.03.513-.05a2.051,2.051,0,0,0,.443-.1.769.769,0,0,0,.443-.349,1.32,1.32,0,0,0,.117-.6V113.69a1.8,1.8,0,0,0-.152-.687,1.181,1.181,0,0,0-.424-.546,1.7,1.7,0,0,0-.587-.206,5.474,5.474,0,0,0-.687-.1v-.737l5.034-.263.152.162v6.954h.04l.691-.622a5.786,5.786,0,0,1,.752-.561,3.61,3.61,0,0,1,.974-.414,4.648,4.648,0,0,1,1.3-.173,3.093,3.093,0,0,1,2.458.941,3.624,3.624,0,0,1,.822,2.476v4.952a1.347,1.347,0,0,0,.111.6.788.788,0,0,0,.415.353,2.759,2.759,0,0,0,.4.142,3.964,3.964,0,0,0,.546.1Z"/><path class="cls-1" d="M96.322,126.588a7.663,7.663,0,0,1-1.049.354,4.987,4.987,0,0,1-1.282.161,3.508,3.508,0,0,1-1.825-.369,1.847,1.847,0,0,1-.8-1.056h-.059a6.812,6.812,0,0,1-.664.586,3.8,3.8,0,0,1-.684.415,5.129,5.129,0,0,1-.915.333,5.232,5.232,0,0,1-1.23.112,3.023,3.023,0,0,1-2-.694,2.273,2.273,0,0,1-.83-1.838,3.055,3.055,0,0,1,.182-1.118,2.562,2.562,0,0,1,.516-.814,2.652,2.652,0,0,1,.7-.537,7.675,7.675,0,0,1,.876-.4q.91-.333,2.186-.693a12.3,12.3,0,0,0,1.864-.643v-.97q0-.254-.041-.667a2.149,2.149,0,0,0-.172-.7,1.342,1.342,0,0,0-.445-.546,1.32,1.32,0,0,0-.8-.222,1.918,1.918,0,0,0-.743.126,2.544,2.544,0,0,0-.48.258,3.88,3.88,0,0,0,.172.617,2.447,2.447,0,0,1,.142.8,1.336,1.336,0,0,1-.091.43.946.946,0,0,1-.264.409,1.732,1.732,0,0,1-.522.313,2.6,2.6,0,0,1-.886.112,1.817,1.817,0,0,1-1.288-.41,1.444,1.444,0,0,1,.014-2.082,3.67,3.67,0,0,1,1.1-.743,6.341,6.341,0,0,1,1.466-.47A7.836,7.836,0,0,1,90,116.48a12.776,12.776,0,0,1,1.8.117,4.226,4.226,0,0,1,1.475.48,2.552,2.552,0,0,1,1,1.026,3.63,3.63,0,0,1,.368,1.753q0,1.143-.045,2.709t-.045,2.062a1.577,1.577,0,0,0,.136.718.871.871,0,0,0,.42.394,1.487,1.487,0,0,0,.541.1q.369.015.672.015Zm-5.013-5.266q-.568.192-1.127.44a4.507,4.507,0,0,0-.912.522,1.957,1.957,0,0,0-.589.725,2.357,2.357,0,0,0-.213,1.038,1.556,1.556,0,0,0,.36,1.145,1.218,1.218,0,0,0,.888.355,1.688,1.688,0,0,0,.918-.229,2.62,2.62,0,0,0,.633-.561Z"/><path class="cls-1" d="M105.355,127.124a6.955,6.955,0,0,1-2.482-.41A4.872,4.872,0,0,1,101.1,125.6a4.565,4.565,0,0,1-1.041-1.7,6.4,6.4,0,0,1-.344-2.132,4.894,4.894,0,0,1,.42-2,5.258,5.258,0,0,1,2.971-2.845,6.452,6.452,0,0,1,2.421-.44,5.352,5.352,0,0,1,2.941.7,2.16,2.16,0,0,1,1.082,1.895,1.734,1.734,0,0,1-.385,1.173,1.676,1.676,0,0,1-1.324.444,2.126,2.126,0,0,1-1.268-.364,1.117,1.117,0,0,1-.511-.95,3.1,3.1,0,0,1,.162-.98,4.111,4.111,0,0,0,.192-.738.776.776,0,0,0-.283-.278,1.136,1.136,0,0,0-.535-.1,1.659,1.659,0,0,0-.83.212,2.062,2.062,0,0,0-.7.748,4.388,4.388,0,0,0-.5,1.355,9.6,9.6,0,0,0-.187,2.041,4.642,4.642,0,0,0,.844,2.9,2.481,2.481,0,0,0,2.017,1.1,2.892,2.892,0,0,0,1.783-.5,4.53,4.53,0,0,0,1.178-1.42l.758.525a5.733,5.733,0,0,1-.748,1.127,4.765,4.765,0,0,1-1.041.9,5.441,5.441,0,0,1-1.294.627A4.981,4.981,0,0,1,105.355,127.124Z"/><path class="cls-1" d="M126.205,126.8h-6.074v-.738c.134-.013.292-.03.474-.05a1.192,1.192,0,0,0,.405-.1.627.627,0,0,0,.3-.324,1.753,1.753,0,0,0,.086-.626V120.23a2.566,2.566,0,0,0-.39-1.556,1.3,1.3,0,0,0-1.106-.516,2.269,2.269,0,0,0-.753.121,2.836,2.836,0,0,0-.683.354,2.361,2.361,0,0,0-.47.414c-.117.142-.217.267-.3.375v5.427a1.539,1.539,0,0,0,.092.592.742.742,0,0,0,.343.358,1.661,1.661,0,0,0,.4.162,3.351,3.351,0,0,0,.48.1v.738h-6.165v-.738c.176-.013.347-.03.514-.05a2.028,2.028,0,0,0,.442-.1.769.769,0,0,0,.443-.349,1.32,1.32,0,0,0,.117-.6V113.69a1.777,1.777,0,0,0-.152-.687,1.181,1.181,0,0,0-.424-.546,1.7,1.7,0,0,0-.587-.206,5.5,5.5,0,0,0-.687-.1v-.737l5.033-.263.152.162v6.954h.041l.691-.622a5.719,5.719,0,0,1,.752-.561,3.61,3.61,0,0,1,.974-.414,4.648,4.648,0,0,1,1.3-.173,3.089,3.089,0,0,1,2.457.941,3.62,3.62,0,0,1,.823,2.476v4.952a1.347,1.347,0,0,0,.111.6.788.788,0,0,0,.415.353,2.718,2.718,0,0,0,.4.142,3.936,3.936,0,0,0,.546.1Z"/><path class="cls-1" d="M136.006,126.8h-6.388v-.738c.175-.013.348-.03.516-.05a1.859,1.859,0,0,0,.435-.1.841.841,0,0,0,.455-.349,1.2,1.2,0,0,0,.131-.6v-5.883a1.173,1.173,0,0,0-.162-.621,1.326,1.326,0,0,0-.4-.43,2.183,2.183,0,0,0-.551-.233,3.583,3.583,0,0,0-.672-.141v-.738l4.952-.263.152.152v8.025a1.124,1.124,0,0,0,.152.6.915.915,0,0,0,.434.368,3.339,3.339,0,0,0,.445.162,3.051,3.051,0,0,0,.5.1Zm-1.475-13.786a1.707,1.707,0,0,1-.592,1.308,2.095,2.095,0,0,1-2.81,0,1.752,1.752,0,0,1,0-2.622,2.01,2.01,0,0,1,1.41-.546,1.988,1.988,0,0,1,1.405.546A1.727,1.727,0,0,1,134.531,113.014Z"/><path class="cls-1" d="M35.978,137.108a2.122,2.122,0,0,1-.081.556,1.259,1.259,0,0,1-.263.515,1.489,1.489,0,0,1-.474.385,1.847,1.847,0,0,1-.789.131,1.53,1.53,0,0,1-1.253-.556,7.362,7.362,0,0,1-.97-1.849,1.392,1.392,0,0,0-.658.887,11.573,11.573,0,0,0-.252,3.077v.8h2.79v1.1h-2.77v6.955a.924.924,0,0,0,.182.611,1.052,1.052,0,0,0,.475.318,5.261,5.261,0,0,0,.637.156c.263.051.5.086.708.107v.737H26.427V150.3q.264-.021.513-.051a2.051,2.051,0,0,0,.443-.1.764.764,0,0,0,.443-.348,1.32,1.32,0,0,0,.117-.6v-7.046H25.891v-1.1h2.052a7.081,7.081,0,0,1,.313-2.094,5.276,5.276,0,0,1,.97-1.81,4.633,4.633,0,0,1,1.678-1.272,5.749,5.749,0,0,1,2.446-.484,3.382,3.382,0,0,1,1.941.475A1.449,1.449,0,0,1,35.978,137.108Z"/><path class="cls-1" d="M50.217,150.824l-4.821.293-.152-.142v-1.323h-.06l-.672.611a3.862,3.862,0,0,1-.782.541,5.1,5.1,0,0,1-.974.4,5.19,5.19,0,0,1-1.337.131,2.953,2.953,0,0,1-2.337-.919,3.8,3.8,0,0,1-.812-2.6v-4.548a1.216,1.216,0,0,0-.151-.642,1.587,1.587,0,0,0-.4-.439,1.256,1.256,0,0,0-.522-.218,4.638,4.638,0,0,0-.582-.086v-.738l4.882-.263.111.152v6.721a2.425,2.425,0,0,0,.4,1.537,1.333,1.333,0,0,0,1.1.5,2.3,2.3,0,0,0,1.288-.374,2.685,2.685,0,0,0,.834-.8v-5.449a1.4,1.4,0,0,0-.132-.616,1.1,1.1,0,0,0-.384-.444,1.181,1.181,0,0,0-.52-.162c-.226-.027-.456-.048-.693-.061v-.738l4.913-.263.152.152v7.8a1.116,1.116,0,0,0,.552,1.021,1.3,1.3,0,0,0,.5.167,5.514,5.514,0,0,0,.608.055Z"/><path class="cls-1" d="M66.5,151.036H61.733q-.877-1.542-1.6-2.616t-1.373-1.991l-.6.5v2.2a1.447,1.447,0,0,0,.106.6.679.679,0,0,0,.41.343,2.659,2.659,0,0,0,.424.142,3.16,3.16,0,0,0,.486.081v.737H53.307V150.3c.17-.014.34-.033.509-.057a2.673,2.673,0,0,0,.448-.095.726.726,0,0,0,.443-.344,1.351,1.351,0,0,0,.117-.606v-11.27a1.821,1.821,0,0,0-.147-.692,1.13,1.13,0,0,0-.429-.541,1.807,1.807,0,0,0-.577-.2,4.72,4.72,0,0,0-.7-.1v-.738l5.033-.263.152.161v10.431q.747-.666,1.68-1.547t1.5-1.454a1.341,1.341,0,0,0,.369-.521,1.573,1.573,0,0,0,.035-.217q0-.183-.319-.3a4.791,4.791,0,0,0-.961-.211v-.718H65.6v.7a10.674,10.674,0,0,0-1.539.53,9.156,9.156,0,0,0-1.155.663q-.414.273-.8.572t-.891.745q.989,1.435,1.825,2.657t1.756,2.586a1.536,1.536,0,0,0,.777.637,3.917,3.917,0,0,0,.929.2Z"/><path class="cls-1" d="M82.273,150.824l-4.82.293-.153-.142v-1.323h-.06l-.671.611a3.843,3.843,0,0,1-.783.541,5.076,5.076,0,0,1-.974.4,5.184,5.184,0,0,1-1.337.131,2.951,2.951,0,0,1-2.336-.919,3.8,3.8,0,0,1-.812-2.6v-4.548a1.215,1.215,0,0,0-.152-.642,1.583,1.583,0,0,0-.4-.439,1.272,1.272,0,0,0-.523-.218,4.679,4.679,0,0,0-.583-.086v-.738l4.882-.263.111.152v6.721a2.437,2.437,0,0,0,.4,1.537,1.335,1.335,0,0,0,1.1.5,2.3,2.3,0,0,0,1.289-.374,2.674,2.674,0,0,0,.834-.8v-5.449a1.4,1.4,0,0,0-.131-.616,1.122,1.122,0,0,0-.384-.444,1.186,1.186,0,0,0-.522-.162c-.225-.027-.455-.048-.69-.061v-.738l4.911-.263.151.152v7.8a1.117,1.117,0,0,0,.554,1.021,1.285,1.285,0,0,0,.5.167,5.554,5.554,0,0,0,.609.055Z"/><path class="cls-1" d="M95.653,142.86a2.07,2.07,0,0,1-.475,1.349,1.54,1.54,0,0,1-1.254.581,2.062,2.062,0,0,1-1.248-.372,1.273,1.273,0,0,1-.509-1.1,2.3,2.3,0,0,1,.05-.548c.033-.131.064-.253.09-.368a2.159,2.159,0,0,0-.98.321,3.226,3.226,0,0,0-.91.8v5.548a1.352,1.352,0,0,0,.111.586.786.786,0,0,0,.375.364,2.59,2.59,0,0,0,.722.188q.5.075.723.086v.737H85.586V150.3c.169-.014.339-.033.511-.057a2.379,2.379,0,0,0,.439-.095.739.739,0,0,0,.445-.344,1.309,1.309,0,0,0,.121-.606v-5.883a1.243,1.243,0,0,0-.172-.652,1.479,1.479,0,0,0-.414-.46,1.685,1.685,0,0,0-.46-.2,3.292,3.292,0,0,0-.611-.111v-.738l4.821-.263.151.152v1.465h.041a5.991,5.991,0,0,1,1.481-1.268,3.174,3.174,0,0,1,1.632-.46,2.025,2.025,0,0,1,1.511.581A2.056,2.056,0,0,1,95.653,142.86Z"/><path class="cls-1" d="M109.7,148.621a6.222,6.222,0,0,1-.855,1.086,5.208,5.208,0,0,1-1.137.875,6.335,6.335,0,0,1-1.369.581,5.854,5.854,0,0,1-1.593.2,7.086,7.086,0,0,1-2.582-.425,5.077,5.077,0,0,1-1.794-1.142,4.58,4.58,0,0,1-1.056-1.693,6.258,6.258,0,0,1-.349-2.118,5.249,5.249,0,0,1,.379-1.975,5.328,5.328,0,0,1,1.076-1.684,5.155,5.155,0,0,1,1.734-1.161,5.9,5.9,0,0,1,2.34-.445,6.672,6.672,0,0,1,2.325.343,4.113,4.113,0,0,1,1.506.951,3.451,3.451,0,0,1,.839,1.358,5.172,5.172,0,0,1,.262,1.643v.657H102.6a5.26,5.26,0,0,0,.8,3.154,3.33,3.33,0,0,0,4.245.561,4.9,4.9,0,0,0,1.294-1.32Zm-3.862-3.841q0-.606-.06-1.244a4.112,4.112,0,0,0-.213-1.04,1.584,1.584,0,0,0-.47-.718,1.152,1.152,0,0,0-.753-.243,1.4,1.4,0,0,0-1.243.788,5.363,5.363,0,0,0-.5,2.5Z"/><path class="cls-1" d="M81.015,54.836a16.769,16.769,0,1,1-12.389-5.468c.069,0,.137,0,.2,0A24.543,24.543,0,0,0,82.02,45.411a24.831,24.831,0,0,0,6-5.468,24.686,24.686,0,1,0-38.78,0,32.447,32.447,0,0,1,7-3.961,16.763,16.763,0,1,1,12.389,5.471c-.069,0-.138,0-.2,0a24.537,24.537,0,0,0-13.192,3.954,24.892,24.892,0,0,0-6,5.464,24.686,24.686,0,1,0,38.78,0A32.47,32.47,0,0,1,81.015,54.836Z"/></svg>