<svg id="レイヤー_1" data-name="レイヤー 1" xmlns="http://www.w3.org/2000/svg" viewBox="0 0 49.372 90.822"><defs><style>.cls-1{fill:#f8ede1;}</style></defs><path class="cls-1" d="M37.075,54.836a16.769,16.769,0,1,1-12.389-5.468c.069,0,.138,0,.2,0a24.545,24.545,0,0,0,13.192-3.954,24.827,24.827,0,0,0,5.995-5.468,24.686,24.686,0,1,0-38.78,0,32.47,32.47,0,0,1,7-3.961,16.763,16.763,0,1,1,12.389,5.471c-.069,0-.138,0-.2,0a24.537,24.537,0,0,0-13.192,3.954A24.892,24.892,0,0,0,5.3,50.875a24.686,24.686,0,1,0,38.78,0A32.447,32.447,0,0,1,37.075,54.836Z"/></svg>